%TF.GenerationSoftware,KiCad,Pcbnew,(6.0.2)*%
%TF.CreationDate,2022-05-21T08:25:36-07:00*%
%TF.ProjectId,muffin,6d756666-696e-42e6-9b69-6361645f7063,rev?*%
%TF.SameCoordinates,Original*%
%TF.FileFunction,Legend,Top*%
%TF.FilePolarity,Positive*%
%FSLAX46Y46*%
G04 Gerber Fmt 4.6, Leading zero omitted, Abs format (unit mm)*
G04 Created by KiCad (PCBNEW (6.0.2)) date 2022-05-21 08:25:36*
%MOMM*%
%LPD*%
G01*
G04 APERTURE LIST*
%ADD10C,0.150000*%
%ADD11C,0.120000*%
G04 APERTURE END LIST*
D10*
X155601428Y-87881428D02*
X156077619Y-89214761D01*
X156553809Y-87881428D01*
X158363333Y-89214761D02*
X157220476Y-89214761D01*
X157791904Y-89214761D02*
X157791904Y-87214761D01*
X157601428Y-87500476D01*
X157410952Y-87690952D01*
X157220476Y-87786190D01*
%TO.C,R3*%
X122991333Y-49492380D02*
X122658000Y-49016190D01*
X122419904Y-49492380D02*
X122419904Y-48492380D01*
X122800857Y-48492380D01*
X122896095Y-48540000D01*
X122943714Y-48587619D01*
X122991333Y-48682857D01*
X122991333Y-48825714D01*
X122943714Y-48920952D01*
X122896095Y-48968571D01*
X122800857Y-49016190D01*
X122419904Y-49016190D01*
X123324666Y-48492380D02*
X123943714Y-48492380D01*
X123610380Y-48873333D01*
X123753238Y-48873333D01*
X123848476Y-48920952D01*
X123896095Y-48968571D01*
X123943714Y-49063809D01*
X123943714Y-49301904D01*
X123896095Y-49397142D01*
X123848476Y-49444761D01*
X123753238Y-49492380D01*
X123467523Y-49492380D01*
X123372285Y-49444761D01*
X123324666Y-49397142D01*
%TO.C,D6*%
X149361904Y-88802380D02*
X149361904Y-87802380D01*
X149600000Y-87802380D01*
X149742857Y-87850000D01*
X149838095Y-87945238D01*
X149885714Y-88040476D01*
X149933333Y-88230952D01*
X149933333Y-88373809D01*
X149885714Y-88564285D01*
X149838095Y-88659523D01*
X149742857Y-88754761D01*
X149600000Y-88802380D01*
X149361904Y-88802380D01*
X150790476Y-87802380D02*
X150600000Y-87802380D01*
X150504761Y-87850000D01*
X150457142Y-87897619D01*
X150361904Y-88040476D01*
X150314285Y-88230952D01*
X150314285Y-88611904D01*
X150361904Y-88707142D01*
X150409523Y-88754761D01*
X150504761Y-88802380D01*
X150695238Y-88802380D01*
X150790476Y-88754761D01*
X150838095Y-88707142D01*
X150885714Y-88611904D01*
X150885714Y-88373809D01*
X150838095Y-88278571D01*
X150790476Y-88230952D01*
X150695238Y-88183333D01*
X150504761Y-88183333D01*
X150409523Y-88230952D01*
X150361904Y-88278571D01*
X150314285Y-88373809D01*
%TO.C,C1*%
X147803333Y-60147142D02*
X147755714Y-60194761D01*
X147612857Y-60242380D01*
X147517619Y-60242380D01*
X147374761Y-60194761D01*
X147279523Y-60099523D01*
X147231904Y-60004285D01*
X147184285Y-59813809D01*
X147184285Y-59670952D01*
X147231904Y-59480476D01*
X147279523Y-59385238D01*
X147374761Y-59290000D01*
X147517619Y-59242380D01*
X147612857Y-59242380D01*
X147755714Y-59290000D01*
X147803333Y-59337619D01*
X148755714Y-60242380D02*
X148184285Y-60242380D01*
X148470000Y-60242380D02*
X148470000Y-59242380D01*
X148374761Y-59385238D01*
X148279523Y-59480476D01*
X148184285Y-59528095D01*
%TO.C,C7*%
X116943333Y-68637142D02*
X116895714Y-68684761D01*
X116752857Y-68732380D01*
X116657619Y-68732380D01*
X116514761Y-68684761D01*
X116419523Y-68589523D01*
X116371904Y-68494285D01*
X116324285Y-68303809D01*
X116324285Y-68160952D01*
X116371904Y-67970476D01*
X116419523Y-67875238D01*
X116514761Y-67780000D01*
X116657619Y-67732380D01*
X116752857Y-67732380D01*
X116895714Y-67780000D01*
X116943333Y-67827619D01*
X117276666Y-67732380D02*
X117943333Y-67732380D01*
X117514761Y-68732380D01*
%TO.C,R4*%
X151293333Y-67512380D02*
X150960000Y-67036190D01*
X150721904Y-67512380D02*
X150721904Y-66512380D01*
X151102857Y-66512380D01*
X151198095Y-66560000D01*
X151245714Y-66607619D01*
X151293333Y-66702857D01*
X151293333Y-66845714D01*
X151245714Y-66940952D01*
X151198095Y-66988571D01*
X151102857Y-67036190D01*
X150721904Y-67036190D01*
X152150476Y-66845714D02*
X152150476Y-67512380D01*
X151912380Y-66464761D02*
X151674285Y-67179047D01*
X152293333Y-67179047D01*
%TO.C,SW2*%
X110871428Y-115830952D02*
X110871428Y-115069047D01*
X111252380Y-115450000D02*
X110490476Y-115450000D01*
X110871428Y-113320952D02*
X110871428Y-112559047D01*
%TO.C,C4*%
X147873333Y-63107142D02*
X147825714Y-63154761D01*
X147682857Y-63202380D01*
X147587619Y-63202380D01*
X147444761Y-63154761D01*
X147349523Y-63059523D01*
X147301904Y-62964285D01*
X147254285Y-62773809D01*
X147254285Y-62630952D01*
X147301904Y-62440476D01*
X147349523Y-62345238D01*
X147444761Y-62250000D01*
X147587619Y-62202380D01*
X147682857Y-62202380D01*
X147825714Y-62250000D01*
X147873333Y-62297619D01*
X148730476Y-62535714D02*
X148730476Y-63202380D01*
X148492380Y-62154761D02*
X148254285Y-62869047D01*
X148873333Y-62869047D01*
%TO.C,D2*%
X135381904Y-84852380D02*
X135381904Y-83852380D01*
X135620000Y-83852380D01*
X135762857Y-83900000D01*
X135858095Y-83995238D01*
X135905714Y-84090476D01*
X135953333Y-84280952D01*
X135953333Y-84423809D01*
X135905714Y-84614285D01*
X135858095Y-84709523D01*
X135762857Y-84804761D01*
X135620000Y-84852380D01*
X135381904Y-84852380D01*
X136334285Y-83947619D02*
X136381904Y-83900000D01*
X136477142Y-83852380D01*
X136715238Y-83852380D01*
X136810476Y-83900000D01*
X136858095Y-83947619D01*
X136905714Y-84042857D01*
X136905714Y-84138095D01*
X136858095Y-84280952D01*
X136286666Y-84852380D01*
X136905714Y-84852380D01*
%TO.C,J1*%
X131023333Y-49219404D02*
X131023333Y-49790833D01*
X130985238Y-49905119D01*
X130909047Y-49981309D01*
X130794761Y-50019404D01*
X130718571Y-50019404D01*
X131823333Y-50019404D02*
X131366190Y-50019404D01*
X131594761Y-50019404D02*
X131594761Y-49219404D01*
X131518571Y-49333690D01*
X131442380Y-49409880D01*
X131366190Y-49447976D01*
%TO.C,C2*%
X132223333Y-76077142D02*
X132175714Y-76124761D01*
X132032857Y-76172380D01*
X131937619Y-76172380D01*
X131794761Y-76124761D01*
X131699523Y-76029523D01*
X131651904Y-75934285D01*
X131604285Y-75743809D01*
X131604285Y-75600952D01*
X131651904Y-75410476D01*
X131699523Y-75315238D01*
X131794761Y-75220000D01*
X131937619Y-75172380D01*
X132032857Y-75172380D01*
X132175714Y-75220000D01*
X132223333Y-75267619D01*
X132604285Y-75267619D02*
X132651904Y-75220000D01*
X132747142Y-75172380D01*
X132985238Y-75172380D01*
X133080476Y-75220000D01*
X133128095Y-75267619D01*
X133175714Y-75362857D01*
X133175714Y-75458095D01*
X133128095Y-75600952D01*
X132556666Y-76172380D01*
X133175714Y-76172380D01*
%TO.C,D10*%
X157655714Y-72412380D02*
X157655714Y-71412380D01*
X157893809Y-71412380D01*
X158036666Y-71460000D01*
X158131904Y-71555238D01*
X158179523Y-71650476D01*
X158227142Y-71840952D01*
X158227142Y-71983809D01*
X158179523Y-72174285D01*
X158131904Y-72269523D01*
X158036666Y-72364761D01*
X157893809Y-72412380D01*
X157655714Y-72412380D01*
X159179523Y-72412380D02*
X158608095Y-72412380D01*
X158893809Y-72412380D02*
X158893809Y-71412380D01*
X158798571Y-71555238D01*
X158703333Y-71650476D01*
X158608095Y-71698095D01*
X159798571Y-71412380D02*
X159893809Y-71412380D01*
X159989047Y-71460000D01*
X160036666Y-71507619D01*
X160084285Y-71602857D01*
X160131904Y-71793333D01*
X160131904Y-72031428D01*
X160084285Y-72221904D01*
X160036666Y-72317142D01*
X159989047Y-72364761D01*
X159893809Y-72412380D01*
X159798571Y-72412380D01*
X159703333Y-72364761D01*
X159655714Y-72317142D01*
X159608095Y-72221904D01*
X159560476Y-72031428D01*
X159560476Y-71793333D01*
X159608095Y-71602857D01*
X159655714Y-71507619D01*
X159703333Y-71460000D01*
X159798571Y-71412380D01*
%TO.C,SW7*%
X113766666Y-50854761D02*
X113909523Y-50902380D01*
X114147619Y-50902380D01*
X114242857Y-50854761D01*
X114290476Y-50807142D01*
X114338095Y-50711904D01*
X114338095Y-50616666D01*
X114290476Y-50521428D01*
X114242857Y-50473809D01*
X114147619Y-50426190D01*
X113957142Y-50378571D01*
X113861904Y-50330952D01*
X113814285Y-50283333D01*
X113766666Y-50188095D01*
X113766666Y-50092857D01*
X113814285Y-49997619D01*
X113861904Y-49950000D01*
X113957142Y-49902380D01*
X114195238Y-49902380D01*
X114338095Y-49950000D01*
X114671428Y-49902380D02*
X114909523Y-50902380D01*
X115100000Y-50188095D01*
X115290476Y-50902380D01*
X115528571Y-49902380D01*
X115814285Y-49902380D02*
X116480952Y-49902380D01*
X116052380Y-50902380D01*
%TO.C,R8*%
X134593333Y-58792380D02*
X134260000Y-58316190D01*
X134021904Y-58792380D02*
X134021904Y-57792380D01*
X134402857Y-57792380D01*
X134498095Y-57840000D01*
X134545714Y-57887619D01*
X134593333Y-57982857D01*
X134593333Y-58125714D01*
X134545714Y-58220952D01*
X134498095Y-58268571D01*
X134402857Y-58316190D01*
X134021904Y-58316190D01*
X135164761Y-58220952D02*
X135069523Y-58173333D01*
X135021904Y-58125714D01*
X134974285Y-58030476D01*
X134974285Y-57982857D01*
X135021904Y-57887619D01*
X135069523Y-57840000D01*
X135164761Y-57792380D01*
X135355238Y-57792380D01*
X135450476Y-57840000D01*
X135498095Y-57887619D01*
X135545714Y-57982857D01*
X135545714Y-58030476D01*
X135498095Y-58125714D01*
X135450476Y-58173333D01*
X135355238Y-58220952D01*
X135164761Y-58220952D01*
X135069523Y-58268571D01*
X135021904Y-58316190D01*
X134974285Y-58411428D01*
X134974285Y-58601904D01*
X135021904Y-58697142D01*
X135069523Y-58744761D01*
X135164761Y-58792380D01*
X135355238Y-58792380D01*
X135450476Y-58744761D01*
X135498095Y-58697142D01*
X135545714Y-58601904D01*
X135545714Y-58411428D01*
X135498095Y-58316190D01*
X135450476Y-58268571D01*
X135355238Y-58220952D01*
%TO.C,D1*%
X129761904Y-84802380D02*
X129761904Y-83802380D01*
X130000000Y-83802380D01*
X130142857Y-83850000D01*
X130238095Y-83945238D01*
X130285714Y-84040476D01*
X130333333Y-84230952D01*
X130333333Y-84373809D01*
X130285714Y-84564285D01*
X130238095Y-84659523D01*
X130142857Y-84754761D01*
X130000000Y-84802380D01*
X129761904Y-84802380D01*
X131285714Y-84802380D02*
X130714285Y-84802380D01*
X131000000Y-84802380D02*
X131000000Y-83802380D01*
X130904761Y-83945238D01*
X130809523Y-84040476D01*
X130714285Y-84088095D01*
%TO.C,D8*%
X157701904Y-67442380D02*
X157701904Y-66442380D01*
X157940000Y-66442380D01*
X158082857Y-66490000D01*
X158178095Y-66585238D01*
X158225714Y-66680476D01*
X158273333Y-66870952D01*
X158273333Y-67013809D01*
X158225714Y-67204285D01*
X158178095Y-67299523D01*
X158082857Y-67394761D01*
X157940000Y-67442380D01*
X157701904Y-67442380D01*
X158844761Y-66870952D02*
X158749523Y-66823333D01*
X158701904Y-66775714D01*
X158654285Y-66680476D01*
X158654285Y-66632857D01*
X158701904Y-66537619D01*
X158749523Y-66490000D01*
X158844761Y-66442380D01*
X159035238Y-66442380D01*
X159130476Y-66490000D01*
X159178095Y-66537619D01*
X159225714Y-66632857D01*
X159225714Y-66680476D01*
X159178095Y-66775714D01*
X159130476Y-66823333D01*
X159035238Y-66870952D01*
X158844761Y-66870952D01*
X158749523Y-66918571D01*
X158701904Y-66966190D01*
X158654285Y-67061428D01*
X158654285Y-67251904D01*
X158701904Y-67347142D01*
X158749523Y-67394761D01*
X158844761Y-67442380D01*
X159035238Y-67442380D01*
X159130476Y-67394761D01*
X159178095Y-67347142D01*
X159225714Y-67251904D01*
X159225714Y-67061428D01*
X159178095Y-66966190D01*
X159130476Y-66918571D01*
X159035238Y-66870952D01*
%TO.C,D9*%
X157701904Y-69962380D02*
X157701904Y-68962380D01*
X157940000Y-68962380D01*
X158082857Y-69010000D01*
X158178095Y-69105238D01*
X158225714Y-69200476D01*
X158273333Y-69390952D01*
X158273333Y-69533809D01*
X158225714Y-69724285D01*
X158178095Y-69819523D01*
X158082857Y-69914761D01*
X157940000Y-69962380D01*
X157701904Y-69962380D01*
X158749523Y-69962380D02*
X158940000Y-69962380D01*
X159035238Y-69914761D01*
X159082857Y-69867142D01*
X159178095Y-69724285D01*
X159225714Y-69533809D01*
X159225714Y-69152857D01*
X159178095Y-69057619D01*
X159130476Y-69010000D01*
X159035238Y-68962380D01*
X158844761Y-68962380D01*
X158749523Y-69010000D01*
X158701904Y-69057619D01*
X158654285Y-69152857D01*
X158654285Y-69390952D01*
X158701904Y-69486190D01*
X158749523Y-69533809D01*
X158844761Y-69581428D01*
X159035238Y-69581428D01*
X159130476Y-69533809D01*
X159178095Y-69486190D01*
X159225714Y-69390952D01*
%TO.C,C8*%
X125973333Y-59757142D02*
X125925714Y-59804761D01*
X125782857Y-59852380D01*
X125687619Y-59852380D01*
X125544761Y-59804761D01*
X125449523Y-59709523D01*
X125401904Y-59614285D01*
X125354285Y-59423809D01*
X125354285Y-59280952D01*
X125401904Y-59090476D01*
X125449523Y-58995238D01*
X125544761Y-58900000D01*
X125687619Y-58852380D01*
X125782857Y-58852380D01*
X125925714Y-58900000D01*
X125973333Y-58947619D01*
X126544761Y-59280952D02*
X126449523Y-59233333D01*
X126401904Y-59185714D01*
X126354285Y-59090476D01*
X126354285Y-59042857D01*
X126401904Y-58947619D01*
X126449523Y-58900000D01*
X126544761Y-58852380D01*
X126735238Y-58852380D01*
X126830476Y-58900000D01*
X126878095Y-58947619D01*
X126925714Y-59042857D01*
X126925714Y-59090476D01*
X126878095Y-59185714D01*
X126830476Y-59233333D01*
X126735238Y-59280952D01*
X126544761Y-59280952D01*
X126449523Y-59328571D01*
X126401904Y-59376190D01*
X126354285Y-59471428D01*
X126354285Y-59661904D01*
X126401904Y-59757142D01*
X126449523Y-59804761D01*
X126544761Y-59852380D01*
X126735238Y-59852380D01*
X126830476Y-59804761D01*
X126878095Y-59757142D01*
X126925714Y-59661904D01*
X126925714Y-59471428D01*
X126878095Y-59376190D01*
X126830476Y-59328571D01*
X126735238Y-59280952D01*
%TO.C,R2*%
X124473333Y-44002380D02*
X124140000Y-43526190D01*
X123901904Y-44002380D02*
X123901904Y-43002380D01*
X124282857Y-43002380D01*
X124378095Y-43050000D01*
X124425714Y-43097619D01*
X124473333Y-43192857D01*
X124473333Y-43335714D01*
X124425714Y-43430952D01*
X124378095Y-43478571D01*
X124282857Y-43526190D01*
X123901904Y-43526190D01*
X124854285Y-43097619D02*
X124901904Y-43050000D01*
X124997142Y-43002380D01*
X125235238Y-43002380D01*
X125330476Y-43050000D01*
X125378095Y-43097619D01*
X125425714Y-43192857D01*
X125425714Y-43288095D01*
X125378095Y-43430952D01*
X124806666Y-44002380D01*
X125425714Y-44002380D01*
%TO.C,U1*%
X141888095Y-72082380D02*
X141888095Y-72891904D01*
X141935714Y-72987142D01*
X141983333Y-73034761D01*
X142078571Y-73082380D01*
X142269047Y-73082380D01*
X142364285Y-73034761D01*
X142411904Y-72987142D01*
X142459523Y-72891904D01*
X142459523Y-72082380D01*
X143459523Y-73082380D02*
X142888095Y-73082380D01*
X143173809Y-73082380D02*
X143173809Y-72082380D01*
X143078571Y-72225238D01*
X142983333Y-72320476D01*
X142888095Y-72368095D01*
%TO.C,D3*%
X140016904Y-91752380D02*
X140016904Y-90752380D01*
X140255000Y-90752380D01*
X140397857Y-90800000D01*
X140493095Y-90895238D01*
X140540714Y-90990476D01*
X140588333Y-91180952D01*
X140588333Y-91323809D01*
X140540714Y-91514285D01*
X140493095Y-91609523D01*
X140397857Y-91704761D01*
X140255000Y-91752380D01*
X140016904Y-91752380D01*
X140921666Y-90752380D02*
X141540714Y-90752380D01*
X141207380Y-91133333D01*
X141350238Y-91133333D01*
X141445476Y-91180952D01*
X141493095Y-91228571D01*
X141540714Y-91323809D01*
X141540714Y-91561904D01*
X141493095Y-91657142D01*
X141445476Y-91704761D01*
X141350238Y-91752380D01*
X141064523Y-91752380D01*
X140969285Y-91704761D01*
X140921666Y-91657142D01*
%TO.C,C3*%
X127603333Y-63497142D02*
X127555714Y-63544761D01*
X127412857Y-63592380D01*
X127317619Y-63592380D01*
X127174761Y-63544761D01*
X127079523Y-63449523D01*
X127031904Y-63354285D01*
X126984285Y-63163809D01*
X126984285Y-63020952D01*
X127031904Y-62830476D01*
X127079523Y-62735238D01*
X127174761Y-62640000D01*
X127317619Y-62592380D01*
X127412857Y-62592380D01*
X127555714Y-62640000D01*
X127603333Y-62687619D01*
X127936666Y-62592380D02*
X128555714Y-62592380D01*
X128222380Y-62973333D01*
X128365238Y-62973333D01*
X128460476Y-63020952D01*
X128508095Y-63068571D01*
X128555714Y-63163809D01*
X128555714Y-63401904D01*
X128508095Y-63497142D01*
X128460476Y-63544761D01*
X128365238Y-63592380D01*
X128079523Y-63592380D01*
X127984285Y-63544761D01*
X127936666Y-63497142D01*
%TO.C,R1*%
X137873333Y-44009880D02*
X137540000Y-43533690D01*
X137301904Y-44009880D02*
X137301904Y-43009880D01*
X137682857Y-43009880D01*
X137778095Y-43057500D01*
X137825714Y-43105119D01*
X137873333Y-43200357D01*
X137873333Y-43343214D01*
X137825714Y-43438452D01*
X137778095Y-43486071D01*
X137682857Y-43533690D01*
X137301904Y-43533690D01*
X138825714Y-44009880D02*
X138254285Y-44009880D01*
X138540000Y-44009880D02*
X138540000Y-43009880D01*
X138444761Y-43152738D01*
X138349523Y-43247976D01*
X138254285Y-43295595D01*
%TO.C,C5*%
X116893333Y-73587142D02*
X116845714Y-73634761D01*
X116702857Y-73682380D01*
X116607619Y-73682380D01*
X116464761Y-73634761D01*
X116369523Y-73539523D01*
X116321904Y-73444285D01*
X116274285Y-73253809D01*
X116274285Y-73110952D01*
X116321904Y-72920476D01*
X116369523Y-72825238D01*
X116464761Y-72730000D01*
X116607619Y-72682380D01*
X116702857Y-72682380D01*
X116845714Y-72730000D01*
X116893333Y-72777619D01*
X117798095Y-72682380D02*
X117321904Y-72682380D01*
X117274285Y-73158571D01*
X117321904Y-73110952D01*
X117417142Y-73063333D01*
X117655238Y-73063333D01*
X117750476Y-73110952D01*
X117798095Y-73158571D01*
X117845714Y-73253809D01*
X117845714Y-73491904D01*
X117798095Y-73587142D01*
X117750476Y-73634761D01*
X117655238Y-73682380D01*
X117417142Y-73682380D01*
X117321904Y-73634761D01*
X117274285Y-73587142D01*
%TO.C,D5*%
X144911904Y-84252380D02*
X144911904Y-83252380D01*
X145150000Y-83252380D01*
X145292857Y-83300000D01*
X145388095Y-83395238D01*
X145435714Y-83490476D01*
X145483333Y-83680952D01*
X145483333Y-83823809D01*
X145435714Y-84014285D01*
X145388095Y-84109523D01*
X145292857Y-84204761D01*
X145150000Y-84252380D01*
X144911904Y-84252380D01*
X146388095Y-83252380D02*
X145911904Y-83252380D01*
X145864285Y-83728571D01*
X145911904Y-83680952D01*
X146007142Y-83633333D01*
X146245238Y-83633333D01*
X146340476Y-83680952D01*
X146388095Y-83728571D01*
X146435714Y-83823809D01*
X146435714Y-84061904D01*
X146388095Y-84157142D01*
X146340476Y-84204761D01*
X146245238Y-84252380D01*
X146007142Y-84252380D01*
X145911904Y-84204761D01*
X145864285Y-84157142D01*
%TO.C,R5*%
X116542380Y-58486666D02*
X116066190Y-58820000D01*
X116542380Y-59058095D02*
X115542380Y-59058095D01*
X115542380Y-58677142D01*
X115590000Y-58581904D01*
X115637619Y-58534285D01*
X115732857Y-58486666D01*
X115875714Y-58486666D01*
X115970952Y-58534285D01*
X116018571Y-58581904D01*
X116066190Y-58677142D01*
X116066190Y-59058095D01*
X115542380Y-57581904D02*
X115542380Y-58058095D01*
X116018571Y-58105714D01*
X115970952Y-58058095D01*
X115923333Y-57962857D01*
X115923333Y-57724761D01*
X115970952Y-57629523D01*
X116018571Y-57581904D01*
X116113809Y-57534285D01*
X116351904Y-57534285D01*
X116447142Y-57581904D01*
X116494761Y-57629523D01*
X116542380Y-57724761D01*
X116542380Y-57962857D01*
X116494761Y-58058095D01*
X116447142Y-58105714D01*
%TO.C,R9*%
X151253333Y-72372380D02*
X150920000Y-71896190D01*
X150681904Y-72372380D02*
X150681904Y-71372380D01*
X151062857Y-71372380D01*
X151158095Y-71420000D01*
X151205714Y-71467619D01*
X151253333Y-71562857D01*
X151253333Y-71705714D01*
X151205714Y-71800952D01*
X151158095Y-71848571D01*
X151062857Y-71896190D01*
X150681904Y-71896190D01*
X151729523Y-72372380D02*
X151920000Y-72372380D01*
X152015238Y-72324761D01*
X152062857Y-72277142D01*
X152158095Y-72134285D01*
X152205714Y-71943809D01*
X152205714Y-71562857D01*
X152158095Y-71467619D01*
X152110476Y-71420000D01*
X152015238Y-71372380D01*
X151824761Y-71372380D01*
X151729523Y-71420000D01*
X151681904Y-71467619D01*
X151634285Y-71562857D01*
X151634285Y-71800952D01*
X151681904Y-71896190D01*
X151729523Y-71943809D01*
X151824761Y-71991428D01*
X152015238Y-71991428D01*
X152110476Y-71943809D01*
X152158095Y-71896190D01*
X152205714Y-71800952D01*
%TO.C,D7*%
X133651904Y-52902380D02*
X133651904Y-51902380D01*
X133890000Y-51902380D01*
X134032857Y-51950000D01*
X134128095Y-52045238D01*
X134175714Y-52140476D01*
X134223333Y-52330952D01*
X134223333Y-52473809D01*
X134175714Y-52664285D01*
X134128095Y-52759523D01*
X134032857Y-52854761D01*
X133890000Y-52902380D01*
X133651904Y-52902380D01*
X134556666Y-51902380D02*
X135223333Y-51902380D01*
X134794761Y-52902380D01*
%TO.C,R6*%
X151263333Y-69932380D02*
X150930000Y-69456190D01*
X150691904Y-69932380D02*
X150691904Y-68932380D01*
X151072857Y-68932380D01*
X151168095Y-68980000D01*
X151215714Y-69027619D01*
X151263333Y-69122857D01*
X151263333Y-69265714D01*
X151215714Y-69360952D01*
X151168095Y-69408571D01*
X151072857Y-69456190D01*
X150691904Y-69456190D01*
X152120476Y-68932380D02*
X151930000Y-68932380D01*
X151834761Y-68980000D01*
X151787142Y-69027619D01*
X151691904Y-69170476D01*
X151644285Y-69360952D01*
X151644285Y-69741904D01*
X151691904Y-69837142D01*
X151739523Y-69884761D01*
X151834761Y-69932380D01*
X152025238Y-69932380D01*
X152120476Y-69884761D01*
X152168095Y-69837142D01*
X152215714Y-69741904D01*
X152215714Y-69503809D01*
X152168095Y-69408571D01*
X152120476Y-69360952D01*
X152025238Y-69313333D01*
X151834761Y-69313333D01*
X151739523Y-69360952D01*
X151691904Y-69408571D01*
X151644285Y-69503809D01*
%TO.C,Y1*%
X118511190Y-69686190D02*
X118987380Y-69686190D01*
X117987380Y-70019523D02*
X118511190Y-69686190D01*
X117987380Y-69352857D01*
X118987380Y-68495714D02*
X118987380Y-69067142D01*
X118987380Y-68781428D02*
X117987380Y-68781428D01*
X118130238Y-68876666D01*
X118225476Y-68971904D01*
X118273095Y-69067142D01*
%TO.C,D4*%
X147261904Y-57022380D02*
X147261904Y-56022380D01*
X147500000Y-56022380D01*
X147642857Y-56070000D01*
X147738095Y-56165238D01*
X147785714Y-56260476D01*
X147833333Y-56450952D01*
X147833333Y-56593809D01*
X147785714Y-56784285D01*
X147738095Y-56879523D01*
X147642857Y-56974761D01*
X147500000Y-57022380D01*
X147261904Y-57022380D01*
X148690476Y-56355714D02*
X148690476Y-57022380D01*
X148452380Y-55974761D02*
X148214285Y-56689047D01*
X148833333Y-56689047D01*
%TO.C,R7*%
X128723333Y-56822380D02*
X128390000Y-56346190D01*
X128151904Y-56822380D02*
X128151904Y-55822380D01*
X128532857Y-55822380D01*
X128628095Y-55870000D01*
X128675714Y-55917619D01*
X128723333Y-56012857D01*
X128723333Y-56155714D01*
X128675714Y-56250952D01*
X128628095Y-56298571D01*
X128532857Y-56346190D01*
X128151904Y-56346190D01*
X129056666Y-55822380D02*
X129723333Y-55822380D01*
X129294761Y-56822380D01*
%TO.C,C6*%
X112413333Y-57297142D02*
X112365714Y-57344761D01*
X112222857Y-57392380D01*
X112127619Y-57392380D01*
X111984761Y-57344761D01*
X111889523Y-57249523D01*
X111841904Y-57154285D01*
X111794285Y-56963809D01*
X111794285Y-56820952D01*
X111841904Y-56630476D01*
X111889523Y-56535238D01*
X111984761Y-56440000D01*
X112127619Y-56392380D01*
X112222857Y-56392380D01*
X112365714Y-56440000D01*
X112413333Y-56487619D01*
X113270476Y-56392380D02*
X113080000Y-56392380D01*
X112984761Y-56440000D01*
X112937142Y-56487619D01*
X112841904Y-56630476D01*
X112794285Y-56820952D01*
X112794285Y-57201904D01*
X112841904Y-57297142D01*
X112889523Y-57344761D01*
X112984761Y-57392380D01*
X113175238Y-57392380D01*
X113270476Y-57344761D01*
X113318095Y-57297142D01*
X113365714Y-57201904D01*
X113365714Y-56963809D01*
X113318095Y-56868571D01*
X113270476Y-56820952D01*
X113175238Y-56773333D01*
X112984761Y-56773333D01*
X112889523Y-56820952D01*
X112841904Y-56868571D01*
X112794285Y-56963809D01*
D11*
%TO.C,R3*%
X122930936Y-51425000D02*
X123385064Y-51425000D01*
X122930936Y-49955000D02*
X123385064Y-49955000D01*
%TO.C,D6*%
X149107500Y-87480000D02*
X151967500Y-87480000D01*
X151967500Y-85560000D02*
X149107500Y-85560000D01*
X151967500Y-87480000D02*
X151967500Y-85560000D01*
%TO.C,C1*%
X144558748Y-60475000D02*
X145081252Y-60475000D01*
X144558748Y-59005000D02*
X145081252Y-59005000D01*
%TO.C,C7*%
X117371252Y-67335000D02*
X116848748Y-67335000D01*
X117371252Y-65865000D02*
X116848748Y-65865000D01*
%TO.C,R4*%
X148322936Y-65395000D02*
X148777064Y-65395000D01*
X148322936Y-66865000D02*
X148777064Y-66865000D01*
%TO.C,C4*%
X144518748Y-63445000D02*
X145041252Y-63445000D01*
X144518748Y-61975000D02*
X145041252Y-61975000D01*
%TO.C,D2*%
X137980000Y-83500000D02*
X137980000Y-81580000D01*
X135120000Y-83500000D02*
X137980000Y-83500000D01*
X137980000Y-81580000D02*
X135120000Y-81580000D01*
%TO.C,C2*%
X132651252Y-73305000D02*
X132128748Y-73305000D01*
X132651252Y-74775000D02*
X132128748Y-74775000D01*
%TO.C,SW1*%
X109816000Y-79850000D02*
X113916000Y-79850000D01*
X100316000Y-81950000D02*
X100016000Y-81650000D01*
X100016000Y-81650000D02*
X100616000Y-81650000D01*
X107816000Y-85250000D02*
X107816000Y-86250000D01*
X107316000Y-85750000D02*
X108316000Y-85750000D01*
X100616000Y-81650000D02*
X100316000Y-81950000D01*
X113916000Y-84450000D02*
X113916000Y-87050000D01*
X113916000Y-89250000D02*
X113916000Y-91650000D01*
X105816000Y-91650000D02*
X101716000Y-91650000D01*
X113916000Y-91650000D02*
X109816000Y-91650000D01*
X105816000Y-79850000D02*
X101716000Y-79850000D01*
X101716000Y-79850000D02*
X101716000Y-91650000D01*
X113916000Y-79850000D02*
X113916000Y-82250000D01*
X110816000Y-85750000D02*
G75*
G03*
X110816000Y-85750000I-3000000J0D01*
G01*
%TO.C,D10*%
X157247500Y-70070000D02*
X154387500Y-70070000D01*
X154387500Y-71990000D02*
X157247500Y-71990000D01*
X157247500Y-71990000D02*
X157247500Y-70070000D01*
%TO.C,SW7*%
X111273000Y-45502500D02*
X111273000Y-49402500D01*
X118473000Y-49172500D02*
X118473000Y-49402500D01*
X118993000Y-45502500D02*
X118993000Y-49402500D01*
X111793000Y-49172500D02*
X112333000Y-49172500D01*
X111793000Y-49172500D02*
X111793000Y-49402500D01*
X113433000Y-49172500D02*
X116833000Y-49172500D01*
X117933000Y-49172500D02*
X118473000Y-49172500D01*
X111273000Y-45502500D02*
X118993000Y-45502500D01*
%TO.C,R8*%
X132095000Y-57152936D02*
X132095000Y-57607064D01*
X133565000Y-57152936D02*
X133565000Y-57607064D01*
%TO.C,D1*%
X132355000Y-83470000D02*
X132355000Y-81550000D01*
X132355000Y-81550000D02*
X129495000Y-81550000D01*
X129495000Y-83470000D02*
X132355000Y-83470000D01*
%TO.C,D8*%
X157210000Y-65147500D02*
X154350000Y-65147500D01*
X154350000Y-67067500D02*
X157210000Y-67067500D01*
X157210000Y-67067500D02*
X157210000Y-65147500D01*
%TO.C,D9*%
X157217500Y-69540000D02*
X157217500Y-67620000D01*
X157217500Y-67620000D02*
X154357500Y-67620000D01*
X154357500Y-69540000D02*
X157217500Y-69540000D01*
%TO.C,C8*%
X126401252Y-58455000D02*
X125878748Y-58455000D01*
X126401252Y-56985000D02*
X125878748Y-56985000D01*
%TO.C,R2*%
X124887064Y-45872500D02*
X124432936Y-45872500D01*
X124887064Y-44402500D02*
X124432936Y-44402500D01*
%TO.C,U1*%
X133880000Y-64780000D02*
X134605000Y-64780000D01*
X133880000Y-65505000D02*
X133880000Y-64780000D01*
X141100000Y-71275000D02*
X141100000Y-72000000D01*
X141100000Y-72000000D02*
X140375000Y-72000000D01*
X133880000Y-71275000D02*
X133880000Y-72000000D01*
X141100000Y-65505000D02*
X141100000Y-64780000D01*
X133880000Y-72000000D02*
X134605000Y-72000000D01*
%TO.C,D3*%
X139755000Y-90430000D02*
X142615000Y-90430000D01*
X142615000Y-88510000D02*
X139755000Y-88510000D01*
X142615000Y-90430000D02*
X142615000Y-88510000D01*
%TO.C,C3*%
X128031252Y-62195000D02*
X127508748Y-62195000D01*
X128031252Y-60725000D02*
X127508748Y-60725000D01*
%TO.C,R1*%
X137812936Y-45942500D02*
X138267064Y-45942500D01*
X137812936Y-44472500D02*
X138267064Y-44472500D01*
%TO.C,C5*%
X117321252Y-70815000D02*
X116798748Y-70815000D01*
X117321252Y-72285000D02*
X116798748Y-72285000D01*
%TO.C,D5*%
X144437500Y-82920000D02*
X147297500Y-82920000D01*
X147297500Y-82920000D02*
X147297500Y-81000000D01*
X147297500Y-81000000D02*
X144437500Y-81000000D01*
%TO.C,R5*%
X117005000Y-58547064D02*
X117005000Y-58092936D01*
X118475000Y-58547064D02*
X118475000Y-58092936D01*
%TO.C,R9*%
X148312936Y-71735000D02*
X148767064Y-71735000D01*
X148312936Y-70265000D02*
X148767064Y-70265000D01*
%TO.C,D7*%
X132460000Y-50810000D02*
X130460000Y-50810000D01*
X131160000Y-53930000D02*
X132460000Y-53930000D01*
%TO.C,R6*%
X148322936Y-67855000D02*
X148777064Y-67855000D01*
X148322936Y-69325000D02*
X148777064Y-69325000D01*
%TO.C,Y1*%
X124585000Y-72335000D02*
X124585000Y-66085000D01*
X119535000Y-72335000D02*
X119535000Y-66085000D01*
X119535000Y-72335000D02*
G75*
G03*
X124585000Y-72335000I2525000J0D01*
G01*
X124585000Y-66085000D02*
G75*
G03*
X119535000Y-66085000I-2525000J0D01*
G01*
%TO.C,D4*%
X142962500Y-57510000D02*
X145822500Y-57510000D01*
X145822500Y-55590000D02*
X142962500Y-55590000D01*
X142962500Y-55590000D02*
X142962500Y-57510000D01*
%TO.C,G\u002A\u002A\u002A*%
G36*
X153467047Y-82267429D02*
G01*
X153448233Y-82257080D01*
X153402823Y-82233647D01*
X153339345Y-82201511D01*
X153314517Y-82189058D01*
X153147285Y-82097761D01*
X153014414Y-82006777D01*
X152911366Y-81911359D01*
X152833603Y-81806763D01*
X152776587Y-81688241D01*
X152746843Y-81595388D01*
X152732837Y-81492431D01*
X152733588Y-81469784D01*
X152756742Y-81469784D01*
X152769848Y-81600702D01*
X152807559Y-81719731D01*
X152872692Y-81838096D01*
X152910122Y-81891981D01*
X152966990Y-81951070D01*
X153054235Y-82017921D01*
X153164862Y-82088367D01*
X153291879Y-82158240D01*
X153428293Y-82223374D01*
X153549884Y-82273208D01*
X153684732Y-82323164D01*
X153791821Y-82360582D01*
X153879684Y-82387815D01*
X153956852Y-82407220D01*
X154031856Y-82421152D01*
X154113230Y-82431966D01*
X154132994Y-82434178D01*
X154236469Y-82447174D01*
X154342865Y-82463329D01*
X154434961Y-82479932D01*
X154466430Y-82486662D01*
X154561689Y-82505727D01*
X154668113Y-82522837D01*
X154736525Y-82531403D01*
X154815657Y-82543022D01*
X154887289Y-82559429D01*
X154932664Y-82575678D01*
X154978003Y-82594176D01*
X155036824Y-82608855D01*
X155113942Y-82620206D01*
X155214175Y-82628720D01*
X155342339Y-82634890D01*
X155503251Y-82639206D01*
X155566576Y-82640343D01*
X155730387Y-82641482D01*
X155859303Y-82638848D01*
X155957493Y-82632258D01*
X156029126Y-82621529D01*
X156037309Y-82619677D01*
X156090693Y-82608799D01*
X156141714Y-82603859D01*
X156198840Y-82605453D01*
X156270537Y-82614176D01*
X156365272Y-82630624D01*
X156462548Y-82649587D01*
X156528136Y-82661952D01*
X156568506Y-82665023D01*
X156596900Y-82657238D01*
X156626557Y-82637039D01*
X156636736Y-82629068D01*
X156707413Y-82584052D01*
X156777202Y-82565910D01*
X156856602Y-82573906D01*
X156954844Y-82606790D01*
X157026185Y-82633741D01*
X157084995Y-82649265D01*
X157146394Y-82655622D01*
X157225504Y-82655068D01*
X157266718Y-82653361D01*
X157452294Y-82645628D01*
X157669781Y-82638031D01*
X157911862Y-82630805D01*
X158168957Y-82624241D01*
X158298686Y-82619622D01*
X158442723Y-82611979D01*
X158582560Y-82602416D01*
X158688726Y-82593164D01*
X158798270Y-82581031D01*
X158876511Y-82569112D01*
X158931323Y-82555623D01*
X158970581Y-82538780D01*
X158992741Y-82524249D01*
X159046548Y-82495050D01*
X159121214Y-82476017D01*
X159195067Y-82466825D01*
X159289547Y-82452758D01*
X159374926Y-82430469D01*
X159418986Y-82412661D01*
X159475958Y-82390569D01*
X159557115Y-82367721D01*
X159647704Y-82348104D01*
X159676380Y-82343142D01*
X159756943Y-82329244D01*
X159823340Y-82316066D01*
X159865571Y-82305671D01*
X159874160Y-82302373D01*
X159924248Y-82269434D01*
X159992782Y-82219833D01*
X160072452Y-82159380D01*
X160155948Y-82093884D01*
X160235960Y-82029154D01*
X160305177Y-81970998D01*
X160356291Y-81925227D01*
X160380115Y-81900303D01*
X160429891Y-81849524D01*
X160494226Y-81801495D01*
X160517269Y-81788033D01*
X160576563Y-81746840D01*
X160619361Y-81691737D01*
X160647746Y-81616845D01*
X160663802Y-81516286D01*
X160669611Y-81384178D01*
X160669730Y-81357709D01*
X160669091Y-81266321D01*
X160665036Y-81200548D01*
X160654358Y-81146777D01*
X160633848Y-81091397D01*
X160600299Y-81020795D01*
X160581467Y-80983166D01*
X160543407Y-80901523D01*
X160513589Y-80826406D01*
X160496096Y-80768700D01*
X160493204Y-80747835D01*
X160484575Y-80705853D01*
X160461270Y-80639482D01*
X160427163Y-80558898D01*
X160397878Y-80497366D01*
X160354778Y-80405595D01*
X160316180Y-80313594D01*
X160287469Y-80234685D01*
X160277097Y-80198610D01*
X160249869Y-80117682D01*
X160209192Y-80032974D01*
X160186092Y-79995367D01*
X160150869Y-79941596D01*
X160127074Y-79900436D01*
X160120540Y-79883977D01*
X160103058Y-79871561D01*
X160057974Y-79856382D01*
X160014539Y-79845949D01*
X159950683Y-79829778D01*
X159915514Y-79811005D01*
X159898660Y-79783383D01*
X159896165Y-79774649D01*
X159865377Y-79727084D01*
X159827406Y-79705698D01*
X159763648Y-79664985D01*
X159711014Y-79597671D01*
X159677405Y-79516249D01*
X159669421Y-79455822D01*
X159657375Y-79382446D01*
X159625903Y-79314851D01*
X159582003Y-79263395D01*
X159532675Y-79238436D01*
X159521915Y-79237529D01*
X159491575Y-79226349D01*
X159440156Y-79196573D01*
X159375358Y-79153845D01*
X159304884Y-79103810D01*
X159236435Y-79052114D01*
X159177711Y-79004402D01*
X159136415Y-78966318D01*
X159120248Y-78943508D01*
X159120231Y-78943100D01*
X159104290Y-78923789D01*
X159064036Y-78896622D01*
X159041389Y-78884281D01*
X158991797Y-78861067D01*
X158965658Y-78856710D01*
X158952693Y-78870050D01*
X158951028Y-78874076D01*
X158923517Y-78900652D01*
X158880619Y-78904268D01*
X158837205Y-78886928D01*
X158809978Y-78855058D01*
X158784462Y-78819955D01*
X158742284Y-78806898D01*
X158718396Y-78806023D01*
X158649155Y-78806023D01*
X158661763Y-78698750D01*
X158664708Y-78601228D01*
X158643801Y-78525796D01*
X158593979Y-78461658D01*
X158525471Y-78408201D01*
X158484514Y-78381541D01*
X158447092Y-78361798D01*
X158405324Y-78346969D01*
X158351330Y-78335053D01*
X158277228Y-78324047D01*
X158175136Y-78311949D01*
X158124515Y-78306336D01*
X157944418Y-78289904D01*
X157792444Y-78284158D01*
X157658925Y-78289273D01*
X157534192Y-78305421D01*
X157470118Y-78318122D01*
X157363011Y-78327561D01*
X157303245Y-78317589D01*
X157238781Y-78307492D01*
X157168539Y-78314243D01*
X157119459Y-78325773D01*
X157039143Y-78341429D01*
X156944181Y-78351938D01*
X156878728Y-78354671D01*
X156802090Y-78357176D01*
X156757028Y-78365395D01*
X156736114Y-78380879D01*
X156734220Y-78384869D01*
X156701216Y-78426973D01*
X156653869Y-78441679D01*
X156605133Y-78429756D01*
X156567964Y-78391977D01*
X156560624Y-78374538D01*
X156538151Y-78345032D01*
X156490154Y-78335362D01*
X156483538Y-78335290D01*
X156433810Y-78327793D01*
X156362873Y-78308032D01*
X156285175Y-78280099D01*
X156276971Y-78276759D01*
X156135034Y-78218229D01*
X156053617Y-78265491D01*
X155984833Y-78298351D01*
X155912714Y-78322576D01*
X155893745Y-78326739D01*
X155828010Y-78345452D01*
X155769633Y-78373006D01*
X155763227Y-78377235D01*
X155711672Y-78403681D01*
X155665157Y-78414369D01*
X155602784Y-78430368D01*
X155561755Y-78471034D01*
X155550502Y-78515635D01*
X155547753Y-78535434D01*
X155535861Y-78553035D01*
X155509361Y-78571415D01*
X155462786Y-78593550D01*
X155390671Y-78622418D01*
X155287548Y-78660995D01*
X155275378Y-78665480D01*
X155175936Y-78701232D01*
X155087390Y-78731450D01*
X155017250Y-78753693D01*
X154973022Y-78765520D01*
X154963791Y-78766795D01*
X154930027Y-78777253D01*
X154875815Y-78804740D01*
X154812585Y-78843426D01*
X154809420Y-78845530D01*
X154745231Y-78886528D01*
X154702043Y-78907514D01*
X154669486Y-78912027D01*
X154638196Y-78903994D01*
X154604136Y-78895414D01*
X154571562Y-78901860D01*
X154528700Y-78927439D01*
X154490912Y-78955383D01*
X154435682Y-79001304D01*
X154404742Y-79040954D01*
X154388824Y-79088377D01*
X154383863Y-79117575D01*
X154365029Y-79193560D01*
X154328690Y-79264729D01*
X154270252Y-79336949D01*
X154185121Y-79416089D01*
X154092059Y-79490350D01*
X153968663Y-79587530D01*
X153857538Y-79682566D01*
X153750761Y-79783076D01*
X153640410Y-79896682D01*
X153518561Y-80031002D01*
X153457601Y-80100541D01*
X153324575Y-80255625D01*
X153214958Y-80388778D01*
X153124581Y-80505970D01*
X153049278Y-80613170D01*
X152984882Y-80716347D01*
X152927227Y-80821472D01*
X152872145Y-80934514D01*
X152865648Y-80948595D01*
X152822907Y-81049091D01*
X152794687Y-81137866D01*
X152775845Y-81233757D01*
X152765421Y-81315753D01*
X152756742Y-81469784D01*
X152733588Y-81469784D01*
X152737020Y-81366372D01*
X152757745Y-81227952D01*
X152793364Y-81087910D01*
X152842230Y-80956988D01*
X152846034Y-80948595D01*
X152897800Y-80840496D01*
X152950770Y-80741043D01*
X153008765Y-80644868D01*
X153075606Y-80546605D01*
X153155114Y-80440887D01*
X153251109Y-80322348D01*
X153367414Y-80185620D01*
X153484729Y-80051506D01*
X153605920Y-79916077D01*
X153709948Y-79804796D01*
X153803858Y-79710946D01*
X153894697Y-79627808D01*
X153989510Y-79548665D01*
X154095343Y-79466798D01*
X154107668Y-79457556D01*
X154212607Y-79372742D01*
X154286300Y-79296800D01*
X154333619Y-79223304D01*
X154359439Y-79145827D01*
X154363885Y-79119668D01*
X154374368Y-79064641D01*
X154393103Y-79024396D01*
X154428520Y-78986258D01*
X154480744Y-78943938D01*
X154538828Y-78901175D01*
X154577928Y-78879958D01*
X154608770Y-78876218D01*
X154637975Y-78884296D01*
X154670188Y-78892467D01*
X154702821Y-78887655D01*
X154746262Y-78866321D01*
X154809420Y-78825917D01*
X154873775Y-78786572D01*
X154930746Y-78758062D01*
X154968354Y-78746354D01*
X154969223Y-78746321D01*
X155002405Y-78739346D01*
X155064096Y-78720830D01*
X155146220Y-78693387D01*
X155240703Y-78659632D01*
X155266100Y-78650218D01*
X155369539Y-78610806D01*
X155441518Y-78580962D01*
X155487714Y-78557617D01*
X155513803Y-78537700D01*
X155525462Y-78518144D01*
X155527480Y-78508878D01*
X155552500Y-78454729D01*
X155602364Y-78412663D01*
X155662688Y-78394621D01*
X155665157Y-78394568D01*
X155714203Y-78383056D01*
X155763227Y-78357621D01*
X155818127Y-78329661D01*
X155884516Y-78308945D01*
X155893745Y-78307125D01*
X155961330Y-78287741D01*
X156034076Y-78256468D01*
X156053617Y-78245878D01*
X156135034Y-78198615D01*
X156276971Y-78257146D01*
X156354856Y-78285749D01*
X156427877Y-78306599D01*
X156481410Y-78315587D01*
X156485280Y-78315676D01*
X156537560Y-78323421D01*
X156567615Y-78352040D01*
X156573502Y-78363632D01*
X156608809Y-78410211D01*
X156651900Y-78427017D01*
X156692244Y-78413386D01*
X156718104Y-78372706D01*
X156729589Y-78352932D01*
X156754308Y-78341528D01*
X156801167Y-78336300D01*
X156870858Y-78335057D01*
X156961732Y-78330571D01*
X157055389Y-78319152D01*
X157119459Y-78306159D01*
X157201121Y-78289555D01*
X157266557Y-78290265D01*
X157303245Y-78297975D01*
X157403226Y-78308075D01*
X157470118Y-78298508D01*
X157594100Y-78276599D01*
X157721879Y-78265815D01*
X157863126Y-78265981D01*
X158027510Y-78276922D01*
X158124515Y-78286722D01*
X158239813Y-78299768D01*
X158324004Y-78310893D01*
X158385007Y-78322137D01*
X158430744Y-78335539D01*
X158469134Y-78353140D01*
X158508097Y-78376980D01*
X158528747Y-78390844D01*
X158611555Y-78455784D01*
X158661489Y-78519827D01*
X158683523Y-78592385D01*
X158682707Y-78682144D01*
X158671946Y-78786409D01*
X158736029Y-78786409D01*
X158787644Y-78794873D01*
X158817782Y-78825990D01*
X158822454Y-78835444D01*
X158854831Y-78873418D01*
X158896140Y-78883373D01*
X158932766Y-78863260D01*
X158939697Y-78853111D01*
X158954146Y-78835921D01*
X158976651Y-78835500D01*
X159018233Y-78853026D01*
X159039697Y-78863804D01*
X159091162Y-78894554D01*
X159126041Y-78923710D01*
X159132865Y-78933806D01*
X159155360Y-78962229D01*
X159202416Y-79004802D01*
X159265610Y-79055394D01*
X159336521Y-79107874D01*
X159406724Y-79156109D01*
X159467800Y-79193970D01*
X159511324Y-79215324D01*
X159523129Y-79217915D01*
X159572630Y-79235541D01*
X159621007Y-79281449D01*
X159660940Y-79345186D01*
X159685111Y-79416298D01*
X159689035Y-79454891D01*
X159704951Y-79545695D01*
X159748305Y-79623359D01*
X159812503Y-79677681D01*
X159841042Y-79690097D01*
X159883991Y-79711346D01*
X159904497Y-79735179D01*
X159904787Y-79737804D01*
X159923213Y-79781544D01*
X159974626Y-79815315D01*
X160040350Y-79833201D01*
X160099309Y-79849559D01*
X160136241Y-79882128D01*
X160152450Y-79909470D01*
X160188573Y-79971920D01*
X160228881Y-80031892D01*
X160258595Y-80085597D01*
X160286008Y-80157428D01*
X160297365Y-80198610D01*
X160317097Y-80262944D01*
X160350063Y-80348506D01*
X160390910Y-80441983D01*
X160417492Y-80497366D01*
X160457010Y-80581890D01*
X160488534Y-80659580D01*
X160508189Y-80720259D01*
X160512818Y-80747835D01*
X160521500Y-80790816D01*
X160544822Y-80857386D01*
X160578705Y-80936660D01*
X160601081Y-80983166D01*
X160640836Y-81063694D01*
X160666398Y-81123474D01*
X160680900Y-81175895D01*
X160687475Y-81234349D01*
X160689256Y-81312223D01*
X160689327Y-81360342D01*
X160685052Y-81497950D01*
X160670619Y-81603582D01*
X160643580Y-81683723D01*
X160601486Y-81744858D01*
X160541889Y-81793473D01*
X160521045Y-81806119D01*
X160457636Y-81848792D01*
X160402416Y-81896545D01*
X160380991Y-81920912D01*
X160346477Y-81957043D01*
X160282130Y-82012979D01*
X160190633Y-82086585D01*
X160074673Y-82175727D01*
X159936934Y-82278269D01*
X159869713Y-82327379D01*
X159862936Y-82346256D01*
X159845171Y-82399495D01*
X159817390Y-82484096D01*
X159780566Y-82597062D01*
X159735669Y-82735393D01*
X159683673Y-82896092D01*
X159625549Y-83076159D01*
X159562269Y-83272596D01*
X159494806Y-83482403D01*
X159443647Y-83641745D01*
X159373561Y-83859666D01*
X159306703Y-84066566D01*
X159244069Y-84259422D01*
X159186655Y-84435214D01*
X159135459Y-84590919D01*
X159091477Y-84723515D01*
X159055705Y-84829979D01*
X159029140Y-84907289D01*
X159012778Y-84952423D01*
X159007876Y-84963299D01*
X158989176Y-84983773D01*
X158954724Y-85026755D01*
X158911876Y-85083057D01*
X158910653Y-85084701D01*
X158871752Y-85133821D01*
X158832815Y-85173098D01*
X158785386Y-85208678D01*
X158721008Y-85246709D01*
X158631222Y-85293339D01*
X158606750Y-85305597D01*
X158374090Y-85406857D01*
X158158096Y-85473654D01*
X158024727Y-85506796D01*
X157909911Y-85533461D01*
X157806736Y-85554403D01*
X157708288Y-85570372D01*
X157607654Y-85582123D01*
X157497920Y-85590406D01*
X157372174Y-85595976D01*
X157223502Y-85599583D01*
X157044991Y-85601981D01*
X156972509Y-85602689D01*
X156813744Y-85603606D01*
X156660524Y-85603475D01*
X156519211Y-85602377D01*
X156396169Y-85600394D01*
X156297759Y-85597610D01*
X156230344Y-85594105D01*
X156217374Y-85592952D01*
X156127989Y-85580746D01*
X156038440Y-85563866D01*
X155972201Y-85547116D01*
X155911634Y-85532625D01*
X155824831Y-85517373D01*
X155724680Y-85503432D01*
X155648571Y-85495084D01*
X155529235Y-85479843D01*
X155392597Y-85456146D01*
X155248227Y-85426249D01*
X155105694Y-85392403D01*
X154974568Y-85356865D01*
X154864418Y-85321888D01*
X154792662Y-85293468D01*
X154720152Y-85253303D01*
X154649302Y-85203960D01*
X154625974Y-85184381D01*
X154577895Y-85141023D01*
X154538324Y-85106038D01*
X154526754Y-85096119D01*
X154502109Y-85073519D01*
X154478142Y-85046373D01*
X154453804Y-85012064D01*
X154428050Y-84967977D01*
X154399831Y-84911496D01*
X154368100Y-84840005D01*
X154331809Y-84750887D01*
X154289913Y-84641528D01*
X154241362Y-84509311D01*
X154185111Y-84351620D01*
X154120111Y-84165839D01*
X154045315Y-83949353D01*
X153959676Y-83699546D01*
X153913562Y-83564550D01*
X153839956Y-83349046D01*
X153770043Y-83144658D01*
X153704855Y-82954378D01*
X153645420Y-82781203D01*
X153592771Y-82628124D01*
X153547938Y-82498137D01*
X153511951Y-82394234D01*
X153485840Y-82319411D01*
X153481980Y-82308555D01*
X153514206Y-82308555D01*
X153525123Y-82361164D01*
X153550341Y-82443762D01*
X153578829Y-82527761D01*
X153601855Y-82594464D01*
X153635991Y-82693813D01*
X153679700Y-82821317D01*
X153731448Y-82972489D01*
X153789699Y-83142838D01*
X153852918Y-83327876D01*
X153919569Y-83523114D01*
X153988116Y-83724062D01*
X154018538Y-83813295D01*
X154105431Y-84067152D01*
X154181009Y-84285536D01*
X154245984Y-84470310D01*
X154301068Y-84623340D01*
X154346973Y-84746491D01*
X154384411Y-84841628D01*
X154414095Y-84910614D01*
X154436737Y-84955315D01*
X154453048Y-84977596D01*
X154463741Y-84979321D01*
X154463806Y-84979256D01*
X154460929Y-84959080D01*
X154448721Y-84906952D01*
X154428667Y-84828628D01*
X154402247Y-84729864D01*
X154370945Y-84616416D01*
X154363774Y-84590850D01*
X154337011Y-84500021D01*
X154301014Y-84384362D01*
X154257124Y-84247732D01*
X154206685Y-84093992D01*
X154151038Y-83927002D01*
X154091526Y-83750621D01*
X154029491Y-83568710D01*
X153966274Y-83385128D01*
X153903220Y-83203736D01*
X153841669Y-83028393D01*
X153782964Y-82862960D01*
X153728448Y-82711296D01*
X153679462Y-82577262D01*
X153637350Y-82464717D01*
X153603452Y-82377521D01*
X153579462Y-82320369D01*
X153619548Y-82320369D01*
X153624849Y-82339550D01*
X153642020Y-82392151D01*
X153669836Y-82474617D01*
X153707071Y-82583389D01*
X153752503Y-82714910D01*
X153804905Y-82865624D01*
X153863053Y-83031973D01*
X153925724Y-83210400D01*
X153935713Y-83238765D01*
X154005453Y-83438629D01*
X154075718Y-83643534D01*
X154144446Y-83847226D01*
X154209574Y-84043450D01*
X154269039Y-84225955D01*
X154320778Y-84388487D01*
X154362730Y-84524792D01*
X154385361Y-84601931D01*
X154427463Y-84748407D01*
X154461369Y-84862039D01*
X154488947Y-84947898D01*
X154512065Y-85011056D01*
X154532590Y-85056584D01*
X154552392Y-85089551D01*
X154573338Y-85115031D01*
X154575021Y-85116795D01*
X154614565Y-85155159D01*
X154643080Y-85177877D01*
X154649359Y-85180541D01*
X154646997Y-85162495D01*
X154634397Y-85111220D01*
X154612760Y-85031008D01*
X154583290Y-84926151D01*
X154547188Y-84800942D01*
X154505658Y-84659675D01*
X154469395Y-84538185D01*
X154415152Y-84361020D01*
X154350963Y-84156979D01*
X154280101Y-83936120D01*
X154205837Y-83708503D01*
X154131442Y-83484186D01*
X154060188Y-83273226D01*
X154019738Y-83155617D01*
X153963908Y-82993241D01*
X153912880Y-82842174D01*
X153867957Y-82706476D01*
X153830443Y-82590206D01*
X153801640Y-82497422D01*
X153782851Y-82432185D01*
X153776047Y-82401557D01*
X153792137Y-82401557D01*
X153796061Y-82421758D01*
X153811668Y-82475044D01*
X153837668Y-82557480D01*
X153872770Y-82665129D01*
X153915685Y-82794055D01*
X153965122Y-82940323D01*
X154019791Y-83099998D01*
X154045209Y-83173599D01*
X154113395Y-83373030D01*
X154186434Y-83591088D01*
X154261173Y-83818064D01*
X154334459Y-84044246D01*
X154403138Y-84259926D01*
X154464058Y-84455394D01*
X154501489Y-84578644D01*
X154694113Y-85222229D01*
X154764354Y-85258392D01*
X154809593Y-85279864D01*
X154837119Y-85289495D01*
X154840131Y-85289218D01*
X154836730Y-85269630D01*
X154824058Y-85217974D01*
X154803605Y-85139905D01*
X154776859Y-85041078D01*
X154745311Y-84927148D01*
X154735978Y-84893871D01*
X154644716Y-84575480D01*
X154546570Y-84245170D01*
X154439716Y-83897019D01*
X154322333Y-83525103D01*
X154192599Y-83123498D01*
X154172585Y-83062239D01*
X153970466Y-82444402D01*
X153950517Y-82438048D01*
X153987386Y-82438048D01*
X154200601Y-83088483D01*
X154315337Y-83442668D01*
X154427018Y-83795543D01*
X154533411Y-84139807D01*
X154632283Y-84468161D01*
X154721403Y-84773302D01*
X154787548Y-85007989D01*
X154872625Y-85315977D01*
X154941872Y-85334494D01*
X155012799Y-85351244D01*
X155050849Y-85354363D01*
X155060154Y-85346888D01*
X155055690Y-85320279D01*
X155043135Y-85260923D01*
X155023745Y-85174168D01*
X154998777Y-85065365D01*
X154969487Y-84939864D01*
X154937132Y-84803014D01*
X154902969Y-84660166D01*
X154868253Y-84516669D01*
X154834240Y-84377874D01*
X154804590Y-84258687D01*
X154755778Y-84072444D01*
X154701837Y-83883512D01*
X154640374Y-83684218D01*
X154568994Y-83466888D01*
X154485300Y-83223850D01*
X154453232Y-83132922D01*
X154398933Y-82980034D01*
X154348757Y-82839307D01*
X154304203Y-82714905D01*
X154266772Y-82610993D01*
X154237963Y-82531735D01*
X154220863Y-82485577D01*
X154266220Y-82485577D01*
X154267827Y-82510086D01*
X154277570Y-82553276D01*
X154296384Y-82618202D01*
X154325208Y-82707918D01*
X154364977Y-82825477D01*
X154416630Y-82973933D01*
X154475547Y-83140695D01*
X154574720Y-83427882D01*
X154664824Y-83706399D01*
X154748237Y-83984723D01*
X154827333Y-84271329D01*
X154904490Y-84574695D01*
X154982084Y-84903296D01*
X155031694Y-85124510D01*
X155086349Y-85372494D01*
X155166417Y-85391845D01*
X155228072Y-85406429D01*
X155260739Y-85411610D01*
X155273619Y-85406964D01*
X155275911Y-85392069D01*
X155275907Y-85386809D01*
X155272318Y-85337818D01*
X155262261Y-85256609D01*
X155246800Y-85149459D01*
X155227001Y-85022648D01*
X155203929Y-84882455D01*
X155178649Y-84735158D01*
X155152226Y-84587036D01*
X155125725Y-84444367D01*
X155100211Y-84313432D01*
X155076749Y-84200508D01*
X155067913Y-84160618D01*
X155036385Y-84027561D01*
X155002706Y-83898624D01*
X154964615Y-83766453D01*
X154919847Y-83623692D01*
X154866139Y-83462986D01*
X154801229Y-83276981D01*
X154763120Y-83170116D01*
X154710443Y-83023251D01*
X154661840Y-82887826D01*
X154618936Y-82768360D01*
X154583354Y-82669370D01*
X154556720Y-82595375D01*
X154540655Y-82550895D01*
X154536670Y-82540001D01*
X154521033Y-82529390D01*
X154552439Y-82529390D01*
X154554475Y-82535286D01*
X154563363Y-82559654D01*
X154583843Y-82616385D01*
X154614275Y-82700916D01*
X154653017Y-82808681D01*
X154698428Y-82935117D01*
X154748866Y-83075658D01*
X154782747Y-83170116D01*
X154872529Y-83426024D01*
X154948313Y-83655846D01*
X155012512Y-83869124D01*
X155067541Y-84075402D01*
X155115814Y-84284221D01*
X155159747Y-84505124D01*
X155201753Y-84747654D01*
X155234146Y-84954101D01*
X155256534Y-85100960D01*
X155274305Y-85213705D01*
X155288625Y-85297018D01*
X155300659Y-85355586D01*
X155311571Y-85394093D01*
X155322527Y-85417222D01*
X155334692Y-85429660D01*
X155349230Y-85436089D01*
X155354383Y-85437590D01*
X155410608Y-85449250D01*
X155446296Y-85453180D01*
X155475102Y-85449295D01*
X155483735Y-85426527D01*
X155480822Y-85391390D01*
X155477157Y-85353942D01*
X155471458Y-85283789D01*
X155464202Y-85187371D01*
X155455867Y-85071131D01*
X155446930Y-84941511D01*
X155441923Y-84866718D01*
X155418287Y-84580806D01*
X155385660Y-84292948D01*
X155345542Y-84013759D01*
X155299439Y-83753858D01*
X155255844Y-83552587D01*
X155236712Y-83482096D01*
X155206826Y-83383525D01*
X155168994Y-83265599D01*
X155126024Y-83137046D01*
X155080725Y-83006594D01*
X155074455Y-82988952D01*
X155025186Y-82851247D01*
X154985815Y-82746032D01*
X154952821Y-82668938D01*
X154925028Y-82619748D01*
X154963200Y-82619748D01*
X154965997Y-82632420D01*
X155008635Y-82746951D01*
X155055201Y-82876681D01*
X155103179Y-83014124D01*
X155150049Y-83151795D01*
X155193295Y-83282208D01*
X155230398Y-83397880D01*
X155258841Y-83491323D01*
X155275522Y-83552587D01*
X155332901Y-83824446D01*
X155382778Y-84125995D01*
X155423891Y-84448192D01*
X155454979Y-84781999D01*
X155463015Y-84896139D01*
X155472415Y-85033011D01*
X155482107Y-85158648D01*
X155491553Y-85267181D01*
X155500215Y-85352739D01*
X155507555Y-85409450D01*
X155511905Y-85429613D01*
X155528336Y-85455088D01*
X155558950Y-85469795D01*
X155614331Y-85477796D01*
X155642789Y-85479842D01*
X155710986Y-85484375D01*
X155766607Y-85488547D01*
X155789848Y-85490654D01*
X155809638Y-85487247D01*
X155817336Y-85465071D01*
X155815396Y-85415076D01*
X155814093Y-85401197D01*
X155810336Y-85355666D01*
X155804686Y-85277644D01*
X155797591Y-85173798D01*
X155789500Y-85050793D01*
X155780863Y-84915296D01*
X155774904Y-84819390D01*
X155763828Y-84658894D01*
X155749914Y-84487621D01*
X155734244Y-84317109D01*
X155717897Y-84158895D01*
X155701955Y-84024517D01*
X155696964Y-83987344D01*
X155682758Y-83890212D01*
X155664028Y-83769103D01*
X155641901Y-83630684D01*
X155617504Y-83481618D01*
X155591962Y-83328572D01*
X155566403Y-83178208D01*
X155541954Y-83037192D01*
X155519741Y-82912190D01*
X155500892Y-82809865D01*
X155486532Y-82736882D01*
X155482184Y-82716904D01*
X155474941Y-82699205D01*
X155458229Y-82686089D01*
X155446547Y-82682432D01*
X155512233Y-82682432D01*
X155512991Y-82724135D01*
X155520765Y-82793541D01*
X155535933Y-82893722D01*
X155558877Y-83027751D01*
X155572120Y-83101467D01*
X155631472Y-83440741D01*
X155680647Y-83750665D01*
X155720700Y-84039473D01*
X155752688Y-84315400D01*
X155777665Y-84586682D01*
X155795831Y-84847104D01*
X155806252Y-85021851D01*
X155814850Y-85161528D01*
X155822323Y-85270216D01*
X155829368Y-85351992D01*
X155836683Y-85410934D01*
X155844965Y-85451121D01*
X155854911Y-85476631D01*
X155867218Y-85491543D01*
X155882585Y-85499935D01*
X155901707Y-85505884D01*
X155908832Y-85507968D01*
X155952316Y-85520381D01*
X155974685Y-85525476D01*
X155975273Y-85525408D01*
X155974897Y-85506200D01*
X155972386Y-85452520D01*
X155967997Y-85369048D01*
X155961986Y-85260468D01*
X155954610Y-85131462D01*
X155946126Y-84986711D01*
X155941312Y-84905946D01*
X155929678Y-84725137D01*
X155915803Y-84531110D01*
X155900535Y-84334403D01*
X155884724Y-84145553D01*
X155869217Y-83975097D01*
X155855236Y-83836989D01*
X155842275Y-83714805D01*
X155828318Y-83578125D01*
X155813916Y-83432844D01*
X155799614Y-83284862D01*
X155785963Y-83140077D01*
X155773511Y-83004386D01*
X155762805Y-82883686D01*
X155754394Y-82783877D01*
X155748827Y-82710856D01*
X155747154Y-82679832D01*
X155766255Y-82679832D01*
X155768117Y-82712488D01*
X155773329Y-82778211D01*
X155781328Y-82871038D01*
X155791552Y-82985002D01*
X155803437Y-83114141D01*
X155816422Y-83252489D01*
X155829944Y-83394081D01*
X155843439Y-83532953D01*
X155856346Y-83663141D01*
X155868102Y-83778679D01*
X155878145Y-83873603D01*
X155882800Y-83915444D01*
X155894712Y-84030516D01*
X155907712Y-84174674D01*
X155921001Y-84337822D01*
X155933783Y-84509864D01*
X155945260Y-84680704D01*
X155951753Y-84788263D01*
X155962612Y-84977668D01*
X155971700Y-85131702D01*
X155979539Y-85254155D01*
X155986652Y-85348817D01*
X155993561Y-85419476D01*
X156000789Y-85469923D01*
X156008858Y-85503948D01*
X156018290Y-85525340D01*
X156029608Y-85537889D01*
X156043335Y-85545384D01*
X156056819Y-85550442D01*
X156110840Y-85563220D01*
X156178598Y-85570687D01*
X156194580Y-85571270D01*
X156279661Y-85572819D01*
X156265737Y-85028533D01*
X156262679Y-84889508D01*
X156259733Y-84718743D01*
X156256982Y-84523724D01*
X156254511Y-84311938D01*
X156252404Y-84090874D01*
X156250743Y-83868018D01*
X156249613Y-83650857D01*
X156249304Y-83558410D01*
X156248342Y-83203493D01*
X156260080Y-83203493D01*
X156260272Y-83377148D01*
X156261513Y-83576382D01*
X156263769Y-83797789D01*
X156267008Y-84037961D01*
X156271193Y-84293492D01*
X156276291Y-84560973D01*
X156282268Y-84836997D01*
X156288530Y-85096201D01*
X156291949Y-85247866D01*
X156294949Y-85364868D01*
X156299619Y-85451691D01*
X156308054Y-85512819D01*
X156322344Y-85552736D01*
X156344582Y-85575926D01*
X156376860Y-85586873D01*
X156421270Y-85590062D01*
X156479904Y-85589976D01*
X156518989Y-85590157D01*
X156673500Y-85592433D01*
X156668227Y-84508765D01*
X156667502Y-84290024D01*
X156667407Y-84070156D01*
X156667903Y-83854712D01*
X156667954Y-83844673D01*
X156679981Y-83844673D01*
X156680097Y-83991601D01*
X156680604Y-84162504D01*
X156681468Y-84361733D01*
X156682652Y-84593641D01*
X156683360Y-84724517D01*
X156688108Y-85592433D01*
X157036570Y-85592433D01*
X157056312Y-85592433D01*
X157205646Y-85592433D01*
X157282218Y-85591298D01*
X157327415Y-85586698D01*
X157349058Y-85576833D01*
X157354965Y-85559909D01*
X157354992Y-85558108D01*
X157355091Y-85554456D01*
X157374606Y-85554456D01*
X157380970Y-85571105D01*
X157405523Y-85578808D01*
X157456432Y-85579042D01*
X157497181Y-85576622D01*
X157561526Y-85571657D01*
X157607545Y-85567160D01*
X157624205Y-85564395D01*
X157625562Y-85558305D01*
X157644879Y-85558305D01*
X157740200Y-85544831D01*
X157803474Y-85534913D01*
X157854104Y-85525292D01*
X157868482Y-85521778D01*
X157881708Y-85516796D01*
X157888340Y-85510772D01*
X157922607Y-85510772D01*
X158044845Y-85482256D01*
X158108469Y-85466906D01*
X158154327Y-85454882D01*
X158171689Y-85449135D01*
X158175787Y-85429080D01*
X158179212Y-85406698D01*
X158200187Y-85406698D01*
X158205414Y-85428411D01*
X158229958Y-85431406D01*
X158281992Y-85419980D01*
X158305293Y-85414103D01*
X158390351Y-85392686D01*
X158395224Y-85366945D01*
X158414131Y-85366945D01*
X158420567Y-85375621D01*
X158444686Y-85369629D01*
X158493704Y-85346808D01*
X158511556Y-85337781D01*
X158561096Y-85306106D01*
X158593365Y-85273614D01*
X158593606Y-85273125D01*
X158617710Y-85273125D01*
X158632979Y-85274957D01*
X158670499Y-85258078D01*
X158735103Y-85220973D01*
X158745413Y-85214784D01*
X158811780Y-85169503D01*
X158846960Y-85130726D01*
X158856494Y-85102085D01*
X158856784Y-85100689D01*
X158870963Y-85100689D01*
X158886483Y-85090186D01*
X158921295Y-85046296D01*
X158947668Y-85009311D01*
X158963293Y-84982963D01*
X158982307Y-84943061D01*
X159005558Y-84887165D01*
X159033894Y-84812833D01*
X159068163Y-84717627D01*
X159109214Y-84599105D01*
X159157894Y-84454828D01*
X159215052Y-84282355D01*
X159281535Y-84079246D01*
X159358191Y-83843060D01*
X159426516Y-83631435D01*
X159495875Y-83416014D01*
X159561500Y-83211794D01*
X159622425Y-83021799D01*
X159677688Y-82849055D01*
X159726324Y-82696587D01*
X159767370Y-82567419D01*
X159799862Y-82464575D01*
X159822836Y-82391081D01*
X159835328Y-82349961D01*
X159837378Y-82342033D01*
X159817999Y-82342030D01*
X159774324Y-82347492D01*
X159763040Y-82349262D01*
X159692002Y-82360790D01*
X159563395Y-82736032D01*
X159531767Y-82831748D01*
X159491299Y-82959657D01*
X159443674Y-83114158D01*
X159390572Y-83289654D01*
X159333675Y-83480547D01*
X159274665Y-83681236D01*
X159215221Y-83886125D01*
X159159142Y-84082162D01*
X159105620Y-84270574D01*
X159055200Y-84447869D01*
X159008921Y-84610405D01*
X158967822Y-84754540D01*
X158932944Y-84876634D01*
X158905325Y-84973045D01*
X158886006Y-85040131D01*
X158876025Y-85074250D01*
X158874988Y-85077568D01*
X158870963Y-85100689D01*
X158856784Y-85100689D01*
X158863797Y-85066982D01*
X158881204Y-84998376D01*
X158907530Y-84900332D01*
X158941592Y-84776918D01*
X158982208Y-84632199D01*
X159028194Y-84470240D01*
X159078366Y-84295109D01*
X159131541Y-84110870D01*
X159186536Y-83921591D01*
X159242168Y-83731337D01*
X159297253Y-83544173D01*
X159350607Y-83364167D01*
X159401049Y-83195384D01*
X159447393Y-83041890D01*
X159488458Y-82907752D01*
X159523059Y-82797034D01*
X159550014Y-82713803D01*
X159560456Y-82683188D01*
X159596490Y-82580294D01*
X159627495Y-82491284D01*
X159651339Y-82422321D01*
X159665890Y-82379565D01*
X159669421Y-82368401D01*
X159652312Y-82367479D01*
X159610341Y-82370944D01*
X159602460Y-82371833D01*
X159535499Y-82379651D01*
X159328660Y-82990636D01*
X159254230Y-83211395D01*
X159187794Y-83410672D01*
X159126852Y-83596350D01*
X159068907Y-83776313D01*
X159011458Y-83958444D01*
X158952007Y-84150626D01*
X158888054Y-84360742D01*
X158817101Y-84596675D01*
X158777432Y-84729421D01*
X158737329Y-84863714D01*
X158700673Y-84986221D01*
X158669027Y-85091740D01*
X158643954Y-85175066D01*
X158627016Y-85230997D01*
X158619858Y-85254093D01*
X158617710Y-85273125D01*
X158593606Y-85273125D01*
X158597999Y-85264229D01*
X158748129Y-84758966D01*
X158891584Y-84286379D01*
X159027977Y-83847698D01*
X159156924Y-83444152D01*
X159278040Y-83076971D01*
X159344665Y-82880811D01*
X159388893Y-82751074D01*
X159427966Y-82634414D01*
X159460317Y-82535674D01*
X159484383Y-82459698D01*
X159498596Y-82411331D01*
X159501553Y-82395367D01*
X159479889Y-82403522D01*
X159434944Y-82424466D01*
X159398092Y-82442747D01*
X159365243Y-82460036D01*
X159338805Y-82477820D01*
X159315356Y-82501517D01*
X159291476Y-82536547D01*
X159263746Y-82588328D01*
X159228744Y-82662278D01*
X159183050Y-82763816D01*
X159153572Y-82830121D01*
X159099789Y-82954151D01*
X159053468Y-83068625D01*
X159011517Y-83182522D01*
X158970848Y-83304819D01*
X158928370Y-83444494D01*
X158880993Y-83610526D01*
X158864409Y-83670270D01*
X158819609Y-83831486D01*
X158770884Y-84005134D01*
X158721434Y-84179934D01*
X158674454Y-84344604D01*
X158633142Y-84487863D01*
X158617033Y-84543089D01*
X158583971Y-84659138D01*
X158549850Y-84784591D01*
X158516301Y-84912827D01*
X158484955Y-85037226D01*
X158457443Y-85151166D01*
X158435395Y-85248027D01*
X158420442Y-85321186D01*
X158414215Y-85364024D01*
X158414131Y-85366945D01*
X158395224Y-85366945D01*
X158424353Y-85213061D01*
X158438685Y-85147239D01*
X158462284Y-85050501D01*
X158493383Y-84929572D01*
X158530216Y-84791181D01*
X158571016Y-84642054D01*
X158614015Y-84488918D01*
X158620941Y-84464633D01*
X158668404Y-84298061D01*
X158718185Y-84122426D01*
X158767602Y-83947255D01*
X158813973Y-83782078D01*
X158854616Y-83636422D01*
X158884297Y-83529104D01*
X158940020Y-83337226D01*
X158996923Y-83166472D01*
X159061374Y-82999084D01*
X159138448Y-82820184D01*
X159291828Y-82477989D01*
X159171705Y-82488830D01*
X159109271Y-82495942D01*
X159058940Y-82507689D01*
X159017036Y-82528561D01*
X158979882Y-82563049D01*
X158943802Y-82615644D01*
X158905119Y-82690834D01*
X158860157Y-82793112D01*
X158805239Y-82926967D01*
X158797700Y-82945624D01*
X158739710Y-83092222D01*
X158695193Y-83212784D01*
X158661137Y-83316874D01*
X158634533Y-83414052D01*
X158612367Y-83513882D01*
X158602339Y-83565987D01*
X158584821Y-83652422D01*
X158558965Y-83768933D01*
X158526624Y-83907717D01*
X158489653Y-84060968D01*
X158449906Y-84220882D01*
X158409235Y-84379655D01*
X158407456Y-84386482D01*
X158368398Y-84539205D01*
X158331717Y-84688185D01*
X158298937Y-84826804D01*
X158271581Y-84948441D01*
X158251172Y-85046478D01*
X158239235Y-85114294D01*
X158238238Y-85121699D01*
X158227015Y-85209113D01*
X158216111Y-85290995D01*
X158207530Y-85352361D01*
X158206100Y-85361969D01*
X158200187Y-85406698D01*
X158179212Y-85406698D01*
X158183660Y-85377633D01*
X158194218Y-85302326D01*
X158206370Y-85210693D01*
X158207781Y-85199755D01*
X158225711Y-85087211D01*
X158254442Y-84942083D01*
X158292910Y-84769179D01*
X158340053Y-84573306D01*
X158387679Y-84386482D01*
X158428396Y-84227915D01*
X158468271Y-84067837D01*
X158505449Y-83914058D01*
X158538074Y-83774387D01*
X158564289Y-83656634D01*
X158582237Y-83568609D01*
X158582803Y-83565566D01*
X158604200Y-83459613D01*
X158628608Y-83361284D01*
X158659109Y-83260774D01*
X158698784Y-83148280D01*
X158750716Y-83013997D01*
X158775855Y-82951381D01*
X158922194Y-82589614D01*
X158751522Y-82602973D01*
X158674299Y-82609555D01*
X158613664Y-82615737D01*
X158578942Y-82620524D01*
X158574337Y-82621872D01*
X158567330Y-82641275D01*
X158550367Y-82693899D01*
X158524794Y-82775400D01*
X158491959Y-82881434D01*
X158453208Y-83007658D01*
X158409887Y-83149728D01*
X158372979Y-83271428D01*
X158316563Y-83459793D01*
X158268415Y-83625897D01*
X158227084Y-83776466D01*
X158191119Y-83918226D01*
X158159066Y-84057904D01*
X158129475Y-84202223D01*
X158100892Y-84357911D01*
X158071866Y-84531693D01*
X158040945Y-84730295D01*
X158006678Y-84960442D01*
X158003164Y-84984402D01*
X157984751Y-85109549D01*
X157967607Y-85225030D01*
X157952775Y-85323897D01*
X157941299Y-85399204D01*
X157934222Y-85444006D01*
X157933437Y-85448629D01*
X157922607Y-85510772D01*
X157888340Y-85510772D01*
X157892413Y-85507072D01*
X157901817Y-85487450D01*
X157911140Y-85452775D01*
X157921602Y-85397891D01*
X157934424Y-85317643D01*
X157950824Y-85206876D01*
X157963168Y-85121699D01*
X157998341Y-84880603D01*
X158029606Y-84672649D01*
X158058162Y-84492084D01*
X158085210Y-84333156D01*
X158111947Y-84190112D01*
X158139572Y-84057201D01*
X158169284Y-83928669D01*
X158202282Y-83798765D01*
X158239766Y-83661736D01*
X158282933Y-83511830D01*
X158332983Y-83343294D01*
X158335721Y-83334163D01*
X158381634Y-83181182D01*
X158424348Y-83038986D01*
X158462457Y-82912246D01*
X158494554Y-82805633D01*
X158519234Y-82723819D01*
X158535090Y-82671475D01*
X158540302Y-82654505D01*
X158545149Y-82630757D01*
X158533286Y-82622782D01*
X158496013Y-82628106D01*
X158468780Y-82634146D01*
X158403724Y-82643314D01*
X158319752Y-82647736D01*
X158249514Y-82646931D01*
X158114318Y-82640541D01*
X158001992Y-83024245D01*
X157963454Y-83157064D01*
X157934616Y-83261275D01*
X157913813Y-83345815D01*
X157899380Y-83419621D01*
X157889656Y-83491631D01*
X157882974Y-83570782D01*
X157877672Y-83666012D01*
X157876015Y-83700925D01*
X157864985Y-83870773D01*
X157848538Y-84011580D01*
X157825407Y-84133315D01*
X157816241Y-84170425D01*
X157793999Y-84272571D01*
X157774325Y-84393281D01*
X157760406Y-84511897D01*
X157757240Y-84552896D01*
X157750322Y-84644164D01*
X157739564Y-84762917D01*
X157726033Y-84899265D01*
X157710797Y-85043322D01*
X157694924Y-85185198D01*
X157679482Y-85315007D01*
X157665538Y-85422861D01*
X157656894Y-85482203D01*
X157644879Y-85558305D01*
X157625562Y-85558305D01*
X157628842Y-85543578D01*
X157636703Y-85489961D01*
X157647090Y-85409776D01*
X157659303Y-85309256D01*
X157672643Y-85194632D01*
X157686412Y-85072135D01*
X157699910Y-84947998D01*
X157712439Y-84828453D01*
X157723299Y-84719730D01*
X157731791Y-84628062D01*
X157737218Y-84559681D01*
X157737657Y-84552896D01*
X157748473Y-84440650D01*
X157766284Y-84318299D01*
X157787903Y-84206504D01*
X157796627Y-84170425D01*
X157822204Y-84052742D01*
X157840683Y-83919224D01*
X157853333Y-83759904D01*
X157856401Y-83700925D01*
X157861610Y-83598767D01*
X157867671Y-83515523D01*
X157876246Y-83442259D01*
X157889000Y-83370040D01*
X157907597Y-83289933D01*
X157933701Y-83193003D01*
X157968977Y-83070316D01*
X157982449Y-83024245D01*
X158021553Y-82888604D01*
X158049418Y-82786388D01*
X158066892Y-82713701D01*
X158074828Y-82666651D01*
X158074076Y-82641342D01*
X158067697Y-82634110D01*
X158033952Y-82634352D01*
X157977488Y-82642025D01*
X157939333Y-82649387D01*
X157857932Y-82659744D01*
X157766571Y-82661309D01*
X157726151Y-82658426D01*
X157614185Y-82645758D01*
X157602386Y-82721605D01*
X157579494Y-82884262D01*
X157555852Y-83081656D01*
X157531904Y-83309312D01*
X157508097Y-83562759D01*
X157484876Y-83837522D01*
X157463955Y-84111583D01*
X157451073Y-84292291D01*
X157438258Y-84477993D01*
X157425814Y-84663784D01*
X157414044Y-84844756D01*
X157403253Y-85016004D01*
X157393744Y-85172621D01*
X157385821Y-85309702D01*
X157379788Y-85422340D01*
X157375948Y-85505630D01*
X157374606Y-85554456D01*
X157355091Y-85554456D01*
X157356358Y-85507529D01*
X157360236Y-85422682D01*
X157366326Y-85308429D01*
X157374326Y-85169629D01*
X157383938Y-85011143D01*
X157394861Y-84837830D01*
X157406794Y-84654551D01*
X157419437Y-84466166D01*
X157432491Y-84277535D01*
X157444341Y-84111583D01*
X157466602Y-83820867D01*
X157489869Y-83547252D01*
X157513695Y-83295211D01*
X157537635Y-83069219D01*
X157561244Y-82873750D01*
X157582767Y-82721639D01*
X157594559Y-82645826D01*
X157509094Y-82659123D01*
X157440409Y-82666169D01*
X157355588Y-82670015D01*
X157301665Y-82670198D01*
X157245823Y-82668768D01*
X157209038Y-82671395D01*
X157185793Y-82684779D01*
X157170570Y-82715620D01*
X157157850Y-82770620D01*
X157142116Y-82856480D01*
X157140335Y-82866100D01*
X157132879Y-82924757D01*
X157125255Y-83019957D01*
X157117562Y-83149016D01*
X157109896Y-83309249D01*
X157102356Y-83497972D01*
X157095039Y-83712502D01*
X157088042Y-83950155D01*
X157081464Y-84208245D01*
X157075402Y-84484090D01*
X157069954Y-84775005D01*
X157069149Y-84822587D01*
X157056312Y-85592433D01*
X157036570Y-85592433D01*
X157049315Y-84832394D01*
X157055248Y-84511394D01*
X157061899Y-84211232D01*
X157069185Y-83934020D01*
X157077023Y-83681868D01*
X157085330Y-83456889D01*
X157094022Y-83261194D01*
X157103018Y-83096896D01*
X157112233Y-82966105D01*
X157121585Y-82870933D01*
X157128251Y-82826201D01*
X157140863Y-82752587D01*
X157143891Y-82710091D01*
X157137417Y-82691809D01*
X157129840Y-82689575D01*
X157100946Y-82682473D01*
X157046739Y-82663683D01*
X156977958Y-82636979D01*
X156964384Y-82631427D01*
X156862299Y-82595172D01*
X156789518Y-82582547D01*
X156768569Y-82584240D01*
X156713765Y-82595201D01*
X156697466Y-83010149D01*
X156693157Y-83121936D01*
X156689526Y-83222886D01*
X156686537Y-83317349D01*
X156684156Y-83409677D01*
X156682345Y-83504222D01*
X156681070Y-83605335D01*
X156680294Y-83717368D01*
X156679981Y-83844673D01*
X156667954Y-83844673D01*
X156668950Y-83649249D01*
X156670511Y-83459319D01*
X156672546Y-83290477D01*
X156675015Y-83148278D01*
X156677881Y-83038276D01*
X156678704Y-83015175D01*
X156694454Y-82605254D01*
X156635164Y-82649089D01*
X156590710Y-82676759D01*
X156550763Y-82682618D01*
X156499597Y-82671745D01*
X156428536Y-82657310D01*
X156357639Y-82650528D01*
X156351912Y-82650457D01*
X156280503Y-82650348D01*
X156266149Y-82870087D01*
X156262985Y-82946556D01*
X156260973Y-83058827D01*
X156260080Y-83203493D01*
X156248342Y-83203493D01*
X156246795Y-82632573D01*
X156203906Y-82621784D01*
X156162732Y-82620502D01*
X156098763Y-82628013D01*
X156037187Y-82640189D01*
X155958535Y-82656009D01*
X155883200Y-82666729D01*
X155839807Y-82669672D01*
X155792494Y-82672186D01*
X155767448Y-82678056D01*
X155766255Y-82679832D01*
X155747154Y-82679832D01*
X155746652Y-82670520D01*
X155746641Y-82668980D01*
X155729290Y-82658964D01*
X155685933Y-82652887D01*
X155629613Y-82650956D01*
X155573375Y-82653378D01*
X155530262Y-82660358D01*
X155518108Y-82665358D01*
X155512233Y-82682432D01*
X155446547Y-82682432D01*
X155425429Y-82675821D01*
X155369920Y-82666668D01*
X155285082Y-82656896D01*
X155232499Y-82651527D01*
X155138649Y-82641390D01*
X155058820Y-82631381D01*
X155001251Y-82622629D01*
X154974183Y-82616265D01*
X154973853Y-82616078D01*
X154963200Y-82619748D01*
X154925028Y-82619748D01*
X154922680Y-82615593D01*
X154891871Y-82581629D01*
X154856871Y-82562675D01*
X154814158Y-82554360D01*
X154760210Y-82552314D01*
X154722502Y-82552278D01*
X154656542Y-82547887D01*
X154601368Y-82536790D01*
X154585157Y-82530382D01*
X154556034Y-82518152D01*
X154552439Y-82529390D01*
X154521033Y-82529390D01*
X154514301Y-82524822D01*
X154465734Y-82507707D01*
X154403683Y-82491696D01*
X154340862Y-82479828D01*
X154289985Y-82475140D01*
X154271812Y-82476697D01*
X154266220Y-82485577D01*
X154220863Y-82485577D01*
X154219277Y-82481297D01*
X154212252Y-82463853D01*
X154191484Y-82459790D01*
X154143401Y-82453719D01*
X154097168Y-82448836D01*
X153987386Y-82438048D01*
X153950517Y-82438048D01*
X153886593Y-82417687D01*
X153833991Y-82403760D01*
X153798683Y-82399650D01*
X153792137Y-82401557D01*
X153776047Y-82401557D01*
X153775380Y-82398553D01*
X153775614Y-82395092D01*
X153777482Y-82379228D01*
X153771998Y-82379300D01*
X153745625Y-82373797D01*
X153700990Y-82354459D01*
X153690262Y-82348919D01*
X153646964Y-82328006D01*
X153621596Y-82319796D01*
X153619548Y-82320369D01*
X153579462Y-82320369D01*
X153579112Y-82319535D01*
X153565672Y-82294618D01*
X153565115Y-82294174D01*
X153534416Y-82278709D01*
X153517375Y-82282286D01*
X153514206Y-82308555D01*
X153481980Y-82308555D01*
X153470638Y-82276661D01*
X153467047Y-82267429D01*
G37*
%TO.C,R7*%
X130085000Y-57627064D02*
X130085000Y-57172936D01*
X131555000Y-57627064D02*
X131555000Y-57172936D01*
%TO.C,C6*%
X112841252Y-55995000D02*
X112318748Y-55995000D01*
X112841252Y-54525000D02*
X112318748Y-54525000D01*
%TD*%
M02*
