%TF.GenerationSoftware,KiCad,Pcbnew,(6.0.2)*%
%TF.CreationDate,2022-05-21T08:25:36-07:00*%
%TF.ProjectId,muffin,6d756666-696e-42e6-9b69-6361645f7063,rev?*%
%TF.SameCoordinates,Original*%
%TF.FileFunction,Legend,Bot*%
%TF.FilePolarity,Positive*%
%FSLAX46Y46*%
G04 Gerber Fmt 4.6, Leading zero omitted, Abs format (unit mm)*
G04 Created by KiCad (PCBNEW (6.0.2)) date 2022-05-21 08:25:36*
%MOMM*%
%LPD*%
G01*
G04 APERTURE LIST*
%ADD10C,0.150000*%
%ADD11C,0.120000*%
%ADD12C,0.010000*%
G04 APERTURE END LIST*
D10*
%TO.C,SW3*%
X129095333Y-108227761D02*
X128952476Y-108275380D01*
X128714380Y-108275380D01*
X128619142Y-108227761D01*
X128571523Y-108180142D01*
X128523904Y-108084904D01*
X128523904Y-107989666D01*
X128571523Y-107894428D01*
X128619142Y-107846809D01*
X128714380Y-107799190D01*
X128904857Y-107751571D01*
X129000095Y-107703952D01*
X129047714Y-107656333D01*
X129095333Y-107561095D01*
X129095333Y-107465857D01*
X129047714Y-107370619D01*
X129000095Y-107323000D01*
X128904857Y-107275380D01*
X128666761Y-107275380D01*
X128523904Y-107323000D01*
X128190571Y-107275380D02*
X127952476Y-108275380D01*
X127762000Y-107561095D01*
X127571523Y-108275380D01*
X127333428Y-107275380D01*
X127047714Y-107275380D02*
X126428666Y-107275380D01*
X126762000Y-107656333D01*
X126619142Y-107656333D01*
X126523904Y-107703952D01*
X126476285Y-107751571D01*
X126428666Y-107846809D01*
X126428666Y-108084904D01*
X126476285Y-108180142D01*
X126523904Y-108227761D01*
X126619142Y-108275380D01*
X126904857Y-108275380D01*
X127000095Y-108227761D01*
X127047714Y-108180142D01*
%TO.C,SW4*%
X129095333Y-127227761D02*
X128952476Y-127275380D01*
X128714380Y-127275380D01*
X128619142Y-127227761D01*
X128571523Y-127180142D01*
X128523904Y-127084904D01*
X128523904Y-126989666D01*
X128571523Y-126894428D01*
X128619142Y-126846809D01*
X128714380Y-126799190D01*
X128904857Y-126751571D01*
X129000095Y-126703952D01*
X129047714Y-126656333D01*
X129095333Y-126561095D01*
X129095333Y-126465857D01*
X129047714Y-126370619D01*
X129000095Y-126323000D01*
X128904857Y-126275380D01*
X128666761Y-126275380D01*
X128523904Y-126323000D01*
X128190571Y-126275380D02*
X127952476Y-127275380D01*
X127762000Y-126561095D01*
X127571523Y-127275380D01*
X127333428Y-126275380D01*
X126523904Y-126608714D02*
X126523904Y-127275380D01*
X126762000Y-126227761D02*
X127000095Y-126942047D01*
X126381047Y-126942047D01*
%TO.C,SW2*%
X110871428Y-115830952D02*
X110871428Y-115069047D01*
X111252380Y-115450000D02*
X110490476Y-115450000D01*
X110871428Y-113310952D02*
X110871428Y-112549047D01*
%TO.C,SW6*%
X149295333Y-127227761D02*
X149152476Y-127275380D01*
X148914380Y-127275380D01*
X148819142Y-127227761D01*
X148771523Y-127180142D01*
X148723904Y-127084904D01*
X148723904Y-126989666D01*
X148771523Y-126894428D01*
X148819142Y-126846809D01*
X148914380Y-126799190D01*
X149104857Y-126751571D01*
X149200095Y-126703952D01*
X149247714Y-126656333D01*
X149295333Y-126561095D01*
X149295333Y-126465857D01*
X149247714Y-126370619D01*
X149200095Y-126323000D01*
X149104857Y-126275380D01*
X148866761Y-126275380D01*
X148723904Y-126323000D01*
X148390571Y-126275380D02*
X148152476Y-127275380D01*
X147962000Y-126561095D01*
X147771523Y-127275380D01*
X147533428Y-126275380D01*
X146723904Y-126275380D02*
X146914380Y-126275380D01*
X147009619Y-126323000D01*
X147057238Y-126370619D01*
X147152476Y-126513476D01*
X147200095Y-126703952D01*
X147200095Y-127084904D01*
X147152476Y-127180142D01*
X147104857Y-127227761D01*
X147009619Y-127275380D01*
X146819142Y-127275380D01*
X146723904Y-127227761D01*
X146676285Y-127180142D01*
X146628666Y-127084904D01*
X146628666Y-126846809D01*
X146676285Y-126751571D01*
X146723904Y-126703952D01*
X146819142Y-126656333D01*
X147009619Y-126656333D01*
X147104857Y-126703952D01*
X147152476Y-126751571D01*
X147200095Y-126846809D01*
%TO.C,SW5*%
X149295333Y-108227761D02*
X149152476Y-108275380D01*
X148914380Y-108275380D01*
X148819142Y-108227761D01*
X148771523Y-108180142D01*
X148723904Y-108084904D01*
X148723904Y-107989666D01*
X148771523Y-107894428D01*
X148819142Y-107846809D01*
X148914380Y-107799190D01*
X149104857Y-107751571D01*
X149200095Y-107703952D01*
X149247714Y-107656333D01*
X149295333Y-107561095D01*
X149295333Y-107465857D01*
X149247714Y-107370619D01*
X149200095Y-107323000D01*
X149104857Y-107275380D01*
X148866761Y-107275380D01*
X148723904Y-107323000D01*
X148390571Y-107275380D02*
X148152476Y-108275380D01*
X147962000Y-107561095D01*
X147771523Y-108275380D01*
X147533428Y-107275380D01*
X146676285Y-107275380D02*
X147152476Y-107275380D01*
X147200095Y-107751571D01*
X147152476Y-107703952D01*
X147057238Y-107656333D01*
X146819142Y-107656333D01*
X146723904Y-107703952D01*
X146676285Y-107751571D01*
X146628666Y-107846809D01*
X146628666Y-108084904D01*
X146676285Y-108180142D01*
X146723904Y-108227761D01*
X146819142Y-108275380D01*
X147057238Y-108275380D01*
X147152476Y-108227761D01*
X147200095Y-108180142D01*
%TO.C,SW8*%
X121433333Y-59034761D02*
X121290476Y-59082380D01*
X121052380Y-59082380D01*
X120957142Y-59034761D01*
X120909523Y-58987142D01*
X120861904Y-58891904D01*
X120861904Y-58796666D01*
X120909523Y-58701428D01*
X120957142Y-58653809D01*
X121052380Y-58606190D01*
X121242857Y-58558571D01*
X121338095Y-58510952D01*
X121385714Y-58463333D01*
X121433333Y-58368095D01*
X121433333Y-58272857D01*
X121385714Y-58177619D01*
X121338095Y-58130000D01*
X121242857Y-58082380D01*
X121004761Y-58082380D01*
X120861904Y-58130000D01*
X120528571Y-58082380D02*
X120290476Y-59082380D01*
X120100000Y-58368095D01*
X119909523Y-59082380D01*
X119671428Y-58082380D01*
X119147619Y-58510952D02*
X119242857Y-58463333D01*
X119290476Y-58415714D01*
X119338095Y-58320476D01*
X119338095Y-58272857D01*
X119290476Y-58177619D01*
X119242857Y-58130000D01*
X119147619Y-58082380D01*
X118957142Y-58082380D01*
X118861904Y-58130000D01*
X118814285Y-58177619D01*
X118766666Y-58272857D01*
X118766666Y-58320476D01*
X118814285Y-58415714D01*
X118861904Y-58463333D01*
X118957142Y-58510952D01*
X119147619Y-58510952D01*
X119242857Y-58558571D01*
X119290476Y-58606190D01*
X119338095Y-58701428D01*
X119338095Y-58891904D01*
X119290476Y-58987142D01*
X119242857Y-59034761D01*
X119147619Y-59082380D01*
X118957142Y-59082380D01*
X118861904Y-59034761D01*
X118814285Y-58987142D01*
X118766666Y-58891904D01*
X118766666Y-58701428D01*
X118814285Y-58606190D01*
X118861904Y-58558571D01*
X118957142Y-58510952D01*
%TO.C,J2*%
X105725833Y-59797380D02*
X105725833Y-60511666D01*
X105773452Y-60654523D01*
X105868690Y-60749761D01*
X106011547Y-60797380D01*
X106106785Y-60797380D01*
X105297261Y-59892619D02*
X105249642Y-59845000D01*
X105154404Y-59797380D01*
X104916309Y-59797380D01*
X104821071Y-59845000D01*
X104773452Y-59892619D01*
X104725833Y-59987857D01*
X104725833Y-60083095D01*
X104773452Y-60225952D01*
X105344880Y-60797380D01*
X104725833Y-60797380D01*
D11*
%TO.C,SW8*%
X114500000Y-59930000D02*
X125500000Y-59930000D01*
X125500000Y-59930000D02*
X125500000Y-55830000D01*
X125500000Y-55830000D02*
X114500000Y-55830000D01*
X114500000Y-55830000D02*
X114500000Y-59930000D01*
D12*
%TO.C,REF\u002A\u002A*%
X150065594Y-75355156D02*
X149981531Y-75393393D01*
X149981531Y-75393393D02*
X149915550Y-75439726D01*
X149915550Y-75439726D02*
X149867206Y-75491532D01*
X149867206Y-75491532D02*
X149833828Y-75558363D01*
X149833828Y-75558363D02*
X149812747Y-75649769D01*
X149812747Y-75649769D02*
X149801293Y-75775301D01*
X149801293Y-75775301D02*
X149796797Y-75944508D01*
X149796797Y-75944508D02*
X149796322Y-76055933D01*
X149796322Y-76055933D02*
X149796322Y-76490627D01*
X149796322Y-76490627D02*
X149870684Y-76524509D01*
X149870684Y-76524509D02*
X149929254Y-76549272D01*
X149929254Y-76549272D02*
X149958270Y-76558391D01*
X149958270Y-76558391D02*
X149963821Y-76531257D01*
X149963821Y-76531257D02*
X149968225Y-76458094D01*
X149968225Y-76458094D02*
X149970922Y-76351263D01*
X149970922Y-76351263D02*
X149971494Y-76266437D01*
X149971494Y-76266437D02*
X149973954Y-76143887D01*
X149973954Y-76143887D02*
X149980588Y-76046668D01*
X149980588Y-76046668D02*
X149990274Y-75987134D01*
X149990274Y-75987134D02*
X149997968Y-75974483D01*
X149997968Y-75974483D02*
X150049689Y-75987402D01*
X150049689Y-75987402D02*
X150130883Y-76020539D01*
X150130883Y-76020539D02*
X150224898Y-76065461D01*
X150224898Y-76065461D02*
X150315083Y-76113735D01*
X150315083Y-76113735D02*
X150384785Y-76156928D01*
X150384785Y-76156928D02*
X150417352Y-76186608D01*
X150417352Y-76186608D02*
X150417481Y-76186929D01*
X150417481Y-76186929D02*
X150414680Y-76241857D01*
X150414680Y-76241857D02*
X150389561Y-76294292D01*
X150389561Y-76294292D02*
X150345459Y-76336881D01*
X150345459Y-76336881D02*
X150281091Y-76351126D01*
X150281091Y-76351126D02*
X150226079Y-76349466D01*
X150226079Y-76349466D02*
X150148165Y-76348245D01*
X150148165Y-76348245D02*
X150107268Y-76366498D01*
X150107268Y-76366498D02*
X150082705Y-76414726D01*
X150082705Y-76414726D02*
X150079608Y-76423820D01*
X150079608Y-76423820D02*
X150068960Y-76492598D01*
X150068960Y-76492598D02*
X150097435Y-76534360D01*
X150097435Y-76534360D02*
X150171656Y-76554263D01*
X150171656Y-76554263D02*
X150251832Y-76557944D01*
X150251832Y-76557944D02*
X150396110Y-76530658D01*
X150396110Y-76530658D02*
X150470797Y-76491690D01*
X150470797Y-76491690D02*
X150563037Y-76400148D01*
X150563037Y-76400148D02*
X150611957Y-76287782D01*
X150611957Y-76287782D02*
X150616346Y-76169051D01*
X150616346Y-76169051D02*
X150574999Y-76058411D01*
X150574999Y-76058411D02*
X150512803Y-75989080D01*
X150512803Y-75989080D02*
X150450706Y-75950265D01*
X150450706Y-75950265D02*
X150353105Y-75901125D01*
X150353105Y-75901125D02*
X150239368Y-75851292D01*
X150239368Y-75851292D02*
X150220410Y-75843677D01*
X150220410Y-75843677D02*
X150095479Y-75788545D01*
X150095479Y-75788545D02*
X150023461Y-75739954D01*
X150023461Y-75739954D02*
X150000300Y-75691647D01*
X150000300Y-75691647D02*
X150021936Y-75637370D01*
X150021936Y-75637370D02*
X150059080Y-75594943D01*
X150059080Y-75594943D02*
X150146873Y-75542702D01*
X150146873Y-75542702D02*
X150243470Y-75538784D01*
X150243470Y-75538784D02*
X150332056Y-75579041D01*
X150332056Y-75579041D02*
X150395814Y-75659326D01*
X150395814Y-75659326D02*
X150404183Y-75680040D01*
X150404183Y-75680040D02*
X150452904Y-75756225D01*
X150452904Y-75756225D02*
X150524035Y-75812785D01*
X150524035Y-75812785D02*
X150613793Y-75859201D01*
X150613793Y-75859201D02*
X150613793Y-75727584D01*
X150613793Y-75727584D02*
X150608510Y-75647168D01*
X150608510Y-75647168D02*
X150585858Y-75583786D01*
X150585858Y-75583786D02*
X150535633Y-75516163D01*
X150535633Y-75516163D02*
X150487418Y-75464076D01*
X150487418Y-75464076D02*
X150412446Y-75390322D01*
X150412446Y-75390322D02*
X150354194Y-75350702D01*
X150354194Y-75350702D02*
X150291628Y-75334810D01*
X150291628Y-75334810D02*
X150220807Y-75332184D01*
X150220807Y-75332184D02*
X150065594Y-75355156D01*
X150065594Y-75355156D02*
X150065594Y-75355156D01*
G36*
X150291628Y-75334810D02*
G01*
X150354194Y-75350702D01*
X150412446Y-75390322D01*
X150487418Y-75464076D01*
X150535633Y-75516163D01*
X150585858Y-75583786D01*
X150608510Y-75647168D01*
X150613793Y-75727584D01*
X150613793Y-75859201D01*
X150524035Y-75812785D01*
X150452904Y-75756225D01*
X150404183Y-75680040D01*
X150395814Y-75659326D01*
X150332056Y-75579041D01*
X150243470Y-75538784D01*
X150146873Y-75542702D01*
X150059080Y-75594943D01*
X150021936Y-75637370D01*
X150000300Y-75691647D01*
X150023461Y-75739954D01*
X150095479Y-75788545D01*
X150220410Y-75843677D01*
X150239368Y-75851292D01*
X150353105Y-75901125D01*
X150450706Y-75950265D01*
X150512803Y-75989080D01*
X150574999Y-76058411D01*
X150616346Y-76169051D01*
X150611957Y-76287782D01*
X150563037Y-76400148D01*
X150470797Y-76491690D01*
X150396110Y-76530658D01*
X150251832Y-76557944D01*
X150171656Y-76554263D01*
X150097435Y-76534360D01*
X150068960Y-76492598D01*
X150079608Y-76423820D01*
X150082705Y-76414726D01*
X150107268Y-76366498D01*
X150148165Y-76348245D01*
X150226079Y-76349466D01*
X150281091Y-76351126D01*
X150345459Y-76336881D01*
X150389561Y-76294292D01*
X150414680Y-76241857D01*
X150417481Y-76186929D01*
X150417352Y-76186608D01*
X150384785Y-76156928D01*
X150315083Y-76113735D01*
X150224898Y-76065461D01*
X150130883Y-76020539D01*
X150049689Y-75987402D01*
X149997968Y-75974483D01*
X149990274Y-75987134D01*
X149980588Y-76046668D01*
X149973954Y-76143887D01*
X149971494Y-76266437D01*
X149970922Y-76351263D01*
X149968225Y-76458094D01*
X149963821Y-76531257D01*
X149958270Y-76558391D01*
X149929254Y-76549272D01*
X149870684Y-76524509D01*
X149796322Y-76490627D01*
X149796322Y-76055933D01*
X149796797Y-75944508D01*
X149801293Y-75775301D01*
X149812747Y-75649769D01*
X149833828Y-75558363D01*
X149867206Y-75491532D01*
X149915550Y-75439726D01*
X149981531Y-75393393D01*
X150065594Y-75355156D01*
X150220807Y-75332184D01*
X150291628Y-75334810D01*
G37*
X150291628Y-75334810D02*
X150354194Y-75350702D01*
X150412446Y-75390322D01*
X150487418Y-75464076D01*
X150535633Y-75516163D01*
X150585858Y-75583786D01*
X150608510Y-75647168D01*
X150613793Y-75727584D01*
X150613793Y-75859201D01*
X150524035Y-75812785D01*
X150452904Y-75756225D01*
X150404183Y-75680040D01*
X150395814Y-75659326D01*
X150332056Y-75579041D01*
X150243470Y-75538784D01*
X150146873Y-75542702D01*
X150059080Y-75594943D01*
X150021936Y-75637370D01*
X150000300Y-75691647D01*
X150023461Y-75739954D01*
X150095479Y-75788545D01*
X150220410Y-75843677D01*
X150239368Y-75851292D01*
X150353105Y-75901125D01*
X150450706Y-75950265D01*
X150512803Y-75989080D01*
X150574999Y-76058411D01*
X150616346Y-76169051D01*
X150611957Y-76287782D01*
X150563037Y-76400148D01*
X150470797Y-76491690D01*
X150396110Y-76530658D01*
X150251832Y-76557944D01*
X150171656Y-76554263D01*
X150097435Y-76534360D01*
X150068960Y-76492598D01*
X150079608Y-76423820D01*
X150082705Y-76414726D01*
X150107268Y-76366498D01*
X150148165Y-76348245D01*
X150226079Y-76349466D01*
X150281091Y-76351126D01*
X150345459Y-76336881D01*
X150389561Y-76294292D01*
X150414680Y-76241857D01*
X150417481Y-76186929D01*
X150417352Y-76186608D01*
X150384785Y-76156928D01*
X150315083Y-76113735D01*
X150224898Y-76065461D01*
X150130883Y-76020539D01*
X150049689Y-75987402D01*
X149997968Y-75974483D01*
X149990274Y-75987134D01*
X149980588Y-76046668D01*
X149973954Y-76143887D01*
X149971494Y-76266437D01*
X149970922Y-76351263D01*
X149968225Y-76458094D01*
X149963821Y-76531257D01*
X149958270Y-76558391D01*
X149929254Y-76549272D01*
X149870684Y-76524509D01*
X149796322Y-76490627D01*
X149796322Y-76055933D01*
X149796797Y-75944508D01*
X149801293Y-75775301D01*
X149812747Y-75649769D01*
X149833828Y-75558363D01*
X149867206Y-75491532D01*
X149915550Y-75439726D01*
X149981531Y-75393393D01*
X150065594Y-75355156D01*
X150220807Y-75332184D01*
X150291628Y-75334810D01*
X148036561Y-75376540D02*
X147921050Y-75452034D01*
X147921050Y-75452034D02*
X147865336Y-75519617D01*
X147865336Y-75519617D02*
X147821196Y-75642255D01*
X147821196Y-75642255D02*
X147817691Y-75739298D01*
X147817691Y-75739298D02*
X147825632Y-75869056D01*
X147825632Y-75869056D02*
X148124885Y-76000039D01*
X148124885Y-76000039D02*
X148270389Y-76066958D01*
X148270389Y-76066958D02*
X148365463Y-76120790D01*
X148365463Y-76120790D02*
X148414899Y-76167416D01*
X148414899Y-76167416D02*
X148423489Y-76212720D01*
X148423489Y-76212720D02*
X148396028Y-76262582D01*
X148396028Y-76262582D02*
X148365747Y-76295632D01*
X148365747Y-76295632D02*
X148277637Y-76348633D01*
X148277637Y-76348633D02*
X148181804Y-76352347D01*
X148181804Y-76352347D02*
X148093788Y-76311041D01*
X148093788Y-76311041D02*
X148029131Y-76228983D01*
X148029131Y-76228983D02*
X148017567Y-76200008D01*
X148017567Y-76200008D02*
X147962175Y-76109509D01*
X147962175Y-76109509D02*
X147898447Y-76070940D01*
X147898447Y-76070940D02*
X147811034Y-76037946D01*
X147811034Y-76037946D02*
X147811034Y-76163034D01*
X147811034Y-76163034D02*
X147818762Y-76248156D01*
X147818762Y-76248156D02*
X147849034Y-76319938D01*
X147849034Y-76319938D02*
X147912482Y-76402356D01*
X147912482Y-76402356D02*
X147921912Y-76413066D01*
X147921912Y-76413066D02*
X147992487Y-76486391D01*
X147992487Y-76486391D02*
X148053153Y-76525742D01*
X148053153Y-76525742D02*
X148129050Y-76543845D01*
X148129050Y-76543845D02*
X148191970Y-76549774D01*
X148191970Y-76549774D02*
X148304513Y-76551251D01*
X148304513Y-76551251D02*
X148384630Y-76532535D01*
X148384630Y-76532535D02*
X148434610Y-76504747D01*
X148434610Y-76504747D02*
X148513162Y-76443641D01*
X148513162Y-76443641D02*
X148567537Y-76377554D01*
X148567537Y-76377554D02*
X148601948Y-76294441D01*
X148601948Y-76294441D02*
X148620612Y-76182254D01*
X148620612Y-76182254D02*
X148627744Y-76028946D01*
X148627744Y-76028946D02*
X148628313Y-75951136D01*
X148628313Y-75951136D02*
X148626378Y-75857853D01*
X148626378Y-75857853D02*
X148450101Y-75857853D01*
X148450101Y-75857853D02*
X148448056Y-75907896D01*
X148448056Y-75907896D02*
X148442961Y-75916092D01*
X148442961Y-75916092D02*
X148409334Y-75904958D01*
X148409334Y-75904958D02*
X148336970Y-75875493D01*
X148336970Y-75875493D02*
X148240253Y-75833601D01*
X148240253Y-75833601D02*
X148220027Y-75824597D01*
X148220027Y-75824597D02*
X148097797Y-75762442D01*
X148097797Y-75762442D02*
X148030453Y-75707815D01*
X148030453Y-75707815D02*
X148015652Y-75656649D01*
X148015652Y-75656649D02*
X148051053Y-75604876D01*
X148051053Y-75604876D02*
X148080289Y-75582000D01*
X148080289Y-75582000D02*
X148185784Y-75536250D01*
X148185784Y-75536250D02*
X148284524Y-75543808D01*
X148284524Y-75543808D02*
X148367188Y-75599651D01*
X148367188Y-75599651D02*
X148424452Y-75698753D01*
X148424452Y-75698753D02*
X148442812Y-75777414D01*
X148442812Y-75777414D02*
X148450101Y-75857853D01*
X148450101Y-75857853D02*
X148626378Y-75857853D01*
X148626378Y-75857853D02*
X148624541Y-75769351D01*
X148624541Y-75769351D02*
X148610641Y-75634853D01*
X148610641Y-75634853D02*
X148583106Y-75536916D01*
X148583106Y-75536916D02*
X148538428Y-75464811D01*
X148538428Y-75464811D02*
X148473099Y-75407813D01*
X148473099Y-75407813D02*
X148444617Y-75389393D01*
X148444617Y-75389393D02*
X148315237Y-75341422D01*
X148315237Y-75341422D02*
X148173588Y-75338403D01*
X148173588Y-75338403D02*
X148036561Y-75376540D01*
X148036561Y-75376540D02*
X148036561Y-75376540D01*
G36*
X148627744Y-76028946D02*
G01*
X148620612Y-76182254D01*
X148601948Y-76294441D01*
X148567537Y-76377554D01*
X148513162Y-76443641D01*
X148434610Y-76504747D01*
X148384630Y-76532535D01*
X148304513Y-76551251D01*
X148191970Y-76549774D01*
X148129050Y-76543845D01*
X148053153Y-76525742D01*
X147992487Y-76486391D01*
X147921912Y-76413066D01*
X147912482Y-76402356D01*
X147849034Y-76319938D01*
X147818762Y-76248156D01*
X147811034Y-76163034D01*
X147811034Y-76037946D01*
X147898447Y-76070940D01*
X147962175Y-76109509D01*
X148017567Y-76200008D01*
X148029131Y-76228983D01*
X148093788Y-76311041D01*
X148181804Y-76352347D01*
X148277637Y-76348633D01*
X148365747Y-76295632D01*
X148396028Y-76262582D01*
X148423489Y-76212720D01*
X148414899Y-76167416D01*
X148365463Y-76120790D01*
X148270389Y-76066958D01*
X148124885Y-76000039D01*
X147825632Y-75869056D01*
X147817691Y-75739298D01*
X147820676Y-75656649D01*
X148015652Y-75656649D01*
X148030453Y-75707815D01*
X148097797Y-75762442D01*
X148220027Y-75824597D01*
X148240253Y-75833601D01*
X148336970Y-75875493D01*
X148409334Y-75904958D01*
X148442961Y-75916092D01*
X148448056Y-75907896D01*
X148450101Y-75857853D01*
X148442812Y-75777414D01*
X148424452Y-75698753D01*
X148367188Y-75599651D01*
X148284524Y-75543808D01*
X148185784Y-75536250D01*
X148080289Y-75582000D01*
X148051053Y-75604876D01*
X148015652Y-75656649D01*
X147820676Y-75656649D01*
X147821196Y-75642255D01*
X147865336Y-75519617D01*
X147921050Y-75452034D01*
X148036561Y-75376540D01*
X148173588Y-75338403D01*
X148315237Y-75341422D01*
X148444617Y-75389393D01*
X148473099Y-75407813D01*
X148538428Y-75464811D01*
X148583106Y-75536916D01*
X148610641Y-75634853D01*
X148624541Y-75769351D01*
X148626378Y-75857853D01*
X148628313Y-75951136D01*
X148627744Y-76028946D01*
G37*
X148627744Y-76028946D02*
X148620612Y-76182254D01*
X148601948Y-76294441D01*
X148567537Y-76377554D01*
X148513162Y-76443641D01*
X148434610Y-76504747D01*
X148384630Y-76532535D01*
X148304513Y-76551251D01*
X148191970Y-76549774D01*
X148129050Y-76543845D01*
X148053153Y-76525742D01*
X147992487Y-76486391D01*
X147921912Y-76413066D01*
X147912482Y-76402356D01*
X147849034Y-76319938D01*
X147818762Y-76248156D01*
X147811034Y-76163034D01*
X147811034Y-76037946D01*
X147898447Y-76070940D01*
X147962175Y-76109509D01*
X148017567Y-76200008D01*
X148029131Y-76228983D01*
X148093788Y-76311041D01*
X148181804Y-76352347D01*
X148277637Y-76348633D01*
X148365747Y-76295632D01*
X148396028Y-76262582D01*
X148423489Y-76212720D01*
X148414899Y-76167416D01*
X148365463Y-76120790D01*
X148270389Y-76066958D01*
X148124885Y-76000039D01*
X147825632Y-75869056D01*
X147817691Y-75739298D01*
X147820676Y-75656649D01*
X148015652Y-75656649D01*
X148030453Y-75707815D01*
X148097797Y-75762442D01*
X148220027Y-75824597D01*
X148240253Y-75833601D01*
X148336970Y-75875493D01*
X148409334Y-75904958D01*
X148442961Y-75916092D01*
X148448056Y-75907896D01*
X148450101Y-75857853D01*
X148442812Y-75777414D01*
X148424452Y-75698753D01*
X148367188Y-75599651D01*
X148284524Y-75543808D01*
X148185784Y-75536250D01*
X148080289Y-75582000D01*
X148051053Y-75604876D01*
X148015652Y-75656649D01*
X147820676Y-75656649D01*
X147821196Y-75642255D01*
X147865336Y-75519617D01*
X147921050Y-75452034D01*
X148036561Y-75376540D01*
X148173588Y-75338403D01*
X148315237Y-75341422D01*
X148444617Y-75389393D01*
X148473099Y-75407813D01*
X148538428Y-75464811D01*
X148583106Y-75536916D01*
X148610641Y-75634853D01*
X148624541Y-75769351D01*
X148626378Y-75857853D01*
X148628313Y-75951136D01*
X148627744Y-76028946D01*
X156962571Y-75297719D02*
X156868877Y-75351914D01*
X156868877Y-75351914D02*
X156803736Y-75405707D01*
X156803736Y-75405707D02*
X156756093Y-75462066D01*
X156756093Y-75462066D02*
X156723272Y-75530987D01*
X156723272Y-75530987D02*
X156702594Y-75622468D01*
X156702594Y-75622468D02*
X156691380Y-75746506D01*
X156691380Y-75746506D02*
X156686951Y-75913098D01*
X156686951Y-75913098D02*
X156686437Y-76032851D01*
X156686437Y-76032851D02*
X156686437Y-76473659D01*
X156686437Y-76473659D02*
X156810517Y-76529283D01*
X156810517Y-76529283D02*
X156934598Y-76584907D01*
X156934598Y-76584907D02*
X156949195Y-76102095D01*
X156949195Y-76102095D02*
X156955227Y-75921779D01*
X156955227Y-75921779D02*
X156961555Y-75790901D01*
X156961555Y-75790901D02*
X156969394Y-75700511D01*
X156969394Y-75700511D02*
X156979963Y-75641664D01*
X156979963Y-75641664D02*
X156994477Y-75605413D01*
X156994477Y-75605413D02*
X157014152Y-75582810D01*
X157014152Y-75582810D02*
X157020465Y-75577917D01*
X157020465Y-75577917D02*
X157116112Y-75539706D01*
X157116112Y-75539706D02*
X157212793Y-75554827D01*
X157212793Y-75554827D02*
X157270345Y-75594943D01*
X157270345Y-75594943D02*
X157293755Y-75623370D01*
X157293755Y-75623370D02*
X157309961Y-75660672D01*
X157309961Y-75660672D02*
X157320259Y-75717223D01*
X157320259Y-75717223D02*
X157325951Y-75803394D01*
X157325951Y-75803394D02*
X157328336Y-75929558D01*
X157328336Y-75929558D02*
X157328736Y-76061042D01*
X157328736Y-76061042D02*
X157328814Y-76225999D01*
X157328814Y-76225999D02*
X157331639Y-76342761D01*
X157331639Y-76342761D02*
X157341093Y-76421510D01*
X157341093Y-76421510D02*
X157361060Y-76472431D01*
X157361060Y-76472431D02*
X157395424Y-76505706D01*
X157395424Y-76505706D02*
X157448068Y-76531520D01*
X157448068Y-76531520D02*
X157518383Y-76558344D01*
X157518383Y-76558344D02*
X157595180Y-76587542D01*
X157595180Y-76587542D02*
X157586038Y-76069346D01*
X157586038Y-76069346D02*
X157582357Y-75882539D01*
X157582357Y-75882539D02*
X157578050Y-75744490D01*
X157578050Y-75744490D02*
X157571877Y-75645568D01*
X157571877Y-75645568D02*
X157562598Y-75576145D01*
X157562598Y-75576145D02*
X157548973Y-75526590D01*
X157548973Y-75526590D02*
X157529761Y-75487273D01*
X157529761Y-75487273D02*
X157506598Y-75452584D01*
X157506598Y-75452584D02*
X157394848Y-75341770D01*
X157394848Y-75341770D02*
X157258487Y-75277689D01*
X157258487Y-75277689D02*
X157110175Y-75262339D01*
X157110175Y-75262339D02*
X156962571Y-75297719D01*
X156962571Y-75297719D02*
X156962571Y-75297719D01*
G36*
X157258487Y-75277689D02*
G01*
X157394848Y-75341770D01*
X157506598Y-75452584D01*
X157529761Y-75487273D01*
X157548973Y-75526590D01*
X157562598Y-75576145D01*
X157571877Y-75645568D01*
X157578050Y-75744490D01*
X157582357Y-75882539D01*
X157586038Y-76069346D01*
X157595180Y-76587542D01*
X157518383Y-76558344D01*
X157448068Y-76531520D01*
X157395424Y-76505706D01*
X157361060Y-76472431D01*
X157341093Y-76421510D01*
X157331639Y-76342761D01*
X157328814Y-76225999D01*
X157328736Y-76061042D01*
X157328336Y-75929558D01*
X157325951Y-75803394D01*
X157320259Y-75717223D01*
X157309961Y-75660672D01*
X157293755Y-75623370D01*
X157270345Y-75594943D01*
X157212793Y-75554827D01*
X157116112Y-75539706D01*
X157020465Y-75577917D01*
X157014152Y-75582810D01*
X156994477Y-75605413D01*
X156979963Y-75641664D01*
X156969394Y-75700511D01*
X156961555Y-75790901D01*
X156955227Y-75921779D01*
X156949195Y-76102095D01*
X156934598Y-76584907D01*
X156810517Y-76529283D01*
X156686437Y-76473659D01*
X156686437Y-76032851D01*
X156686951Y-75913098D01*
X156691380Y-75746506D01*
X156702594Y-75622468D01*
X156723272Y-75530987D01*
X156756093Y-75462066D01*
X156803736Y-75405707D01*
X156868877Y-75351914D01*
X156962571Y-75297719D01*
X157110175Y-75262339D01*
X157258487Y-75277689D01*
G37*
X157258487Y-75277689D02*
X157394848Y-75341770D01*
X157506598Y-75452584D01*
X157529761Y-75487273D01*
X157548973Y-75526590D01*
X157562598Y-75576145D01*
X157571877Y-75645568D01*
X157578050Y-75744490D01*
X157582357Y-75882539D01*
X157586038Y-76069346D01*
X157595180Y-76587542D01*
X157518383Y-76558344D01*
X157448068Y-76531520D01*
X157395424Y-76505706D01*
X157361060Y-76472431D01*
X157341093Y-76421510D01*
X157331639Y-76342761D01*
X157328814Y-76225999D01*
X157328736Y-76061042D01*
X157328336Y-75929558D01*
X157325951Y-75803394D01*
X157320259Y-75717223D01*
X157309961Y-75660672D01*
X157293755Y-75623370D01*
X157270345Y-75594943D01*
X157212793Y-75554827D01*
X157116112Y-75539706D01*
X157020465Y-75577917D01*
X157014152Y-75582810D01*
X156994477Y-75605413D01*
X156979963Y-75641664D01*
X156969394Y-75700511D01*
X156961555Y-75790901D01*
X156955227Y-75921779D01*
X156949195Y-76102095D01*
X156934598Y-76584907D01*
X156810517Y-76529283D01*
X156686437Y-76473659D01*
X156686437Y-76032851D01*
X156686951Y-75913098D01*
X156691380Y-75746506D01*
X156702594Y-75622468D01*
X156723272Y-75530987D01*
X156756093Y-75462066D01*
X156803736Y-75405707D01*
X156868877Y-75351914D01*
X156962571Y-75297719D01*
X157110175Y-75262339D01*
X157258487Y-75277689D01*
X159208100Y-75281903D02*
X159096550Y-75337522D01*
X159096550Y-75337522D02*
X158998092Y-75439931D01*
X158998092Y-75439931D02*
X158970977Y-75477864D01*
X158970977Y-75477864D02*
X158941438Y-75527500D01*
X158941438Y-75527500D02*
X158922272Y-75581412D01*
X158922272Y-75581412D02*
X158911307Y-75653364D01*
X158911307Y-75653364D02*
X158906371Y-75757122D01*
X158906371Y-75757122D02*
X158905287Y-75894101D01*
X158905287Y-75894101D02*
X158910182Y-76081815D01*
X158910182Y-76081815D02*
X158927196Y-76222758D01*
X158927196Y-76222758D02*
X158959823Y-76327908D01*
X158959823Y-76327908D02*
X159011558Y-76408243D01*
X159011558Y-76408243D02*
X159085896Y-76474741D01*
X159085896Y-76474741D02*
X159091358Y-76478678D01*
X159091358Y-76478678D02*
X159164620Y-76518953D01*
X159164620Y-76518953D02*
X159252840Y-76538880D01*
X159252840Y-76538880D02*
X159365038Y-76543793D01*
X159365038Y-76543793D02*
X159547433Y-76543793D01*
X159547433Y-76543793D02*
X159547509Y-76720857D01*
X159547509Y-76720857D02*
X159549207Y-76819470D01*
X159549207Y-76819470D02*
X159559550Y-76877314D01*
X159559550Y-76877314D02*
X159586578Y-76912006D01*
X159586578Y-76912006D02*
X159638332Y-76941164D01*
X159638332Y-76941164D02*
X159650761Y-76947121D01*
X159650761Y-76947121D02*
X159708923Y-76975039D01*
X159708923Y-76975039D02*
X159753956Y-76992672D01*
X159753956Y-76992672D02*
X159787441Y-76994194D01*
X159787441Y-76994194D02*
X159810962Y-76973781D01*
X159810962Y-76973781D02*
X159826100Y-76925607D01*
X159826100Y-76925607D02*
X159834437Y-76843846D01*
X159834437Y-76843846D02*
X159837556Y-76722672D01*
X159837556Y-76722672D02*
X159837040Y-76556260D01*
X159837040Y-76556260D02*
X159834471Y-76338785D01*
X159834471Y-76338785D02*
X159833668Y-76273736D01*
X159833668Y-76273736D02*
X159830778Y-76049502D01*
X159830778Y-76049502D02*
X159828188Y-75902821D01*
X159828188Y-75902821D02*
X159547586Y-75902821D01*
X159547586Y-75902821D02*
X159546009Y-76027326D01*
X159546009Y-76027326D02*
X159539000Y-76108787D01*
X159539000Y-76108787D02*
X159523142Y-76162515D01*
X159523142Y-76162515D02*
X159495019Y-76203823D01*
X159495019Y-76203823D02*
X159475925Y-76223971D01*
X159475925Y-76223971D02*
X159397865Y-76282921D01*
X159397865Y-76282921D02*
X159328753Y-76287720D01*
X159328753Y-76287720D02*
X159257440Y-76239038D01*
X159257440Y-76239038D02*
X159255632Y-76237241D01*
X159255632Y-76237241D02*
X159226617Y-76199618D01*
X159226617Y-76199618D02*
X159208967Y-76148484D01*
X159208967Y-76148484D02*
X159200064Y-76069738D01*
X159200064Y-76069738D02*
X159197291Y-75949276D01*
X159197291Y-75949276D02*
X159197241Y-75922588D01*
X159197241Y-75922588D02*
X159203942Y-75756583D01*
X159203942Y-75756583D02*
X159225752Y-75641505D01*
X159225752Y-75641505D02*
X159265235Y-75571254D01*
X159265235Y-75571254D02*
X159324956Y-75539729D01*
X159324956Y-75539729D02*
X159359472Y-75536552D01*
X159359472Y-75536552D02*
X159441389Y-75551460D01*
X159441389Y-75551460D02*
X159497579Y-75600548D01*
X159497579Y-75600548D02*
X159531402Y-75690362D01*
X159531402Y-75690362D02*
X159546220Y-75827445D01*
X159546220Y-75827445D02*
X159547586Y-75902821D01*
X159547586Y-75902821D02*
X159828188Y-75902821D01*
X159828188Y-75902821D02*
X159827713Y-75875952D01*
X159827713Y-75875952D02*
X159823753Y-75745382D01*
X159823753Y-75745382D02*
X159818174Y-75650087D01*
X159818174Y-75650087D02*
X159810254Y-75582364D01*
X159810254Y-75582364D02*
X159799269Y-75534507D01*
X159799269Y-75534507D02*
X159784499Y-75498813D01*
X159784499Y-75498813D02*
X159765218Y-75467578D01*
X159765218Y-75467578D02*
X159756951Y-75455824D01*
X159756951Y-75455824D02*
X159647288Y-75344797D01*
X159647288Y-75344797D02*
X159508635Y-75281847D01*
X159508635Y-75281847D02*
X159348246Y-75264297D01*
X159348246Y-75264297D02*
X159208100Y-75281903D01*
X159208100Y-75281903D02*
X159208100Y-75281903D01*
G36*
X159833668Y-76273736D02*
G01*
X159834471Y-76338785D01*
X159837040Y-76556260D01*
X159837556Y-76722672D01*
X159834437Y-76843846D01*
X159826100Y-76925607D01*
X159810962Y-76973781D01*
X159787441Y-76994194D01*
X159753956Y-76992672D01*
X159708923Y-76975039D01*
X159650761Y-76947121D01*
X159638332Y-76941164D01*
X159586578Y-76912006D01*
X159559550Y-76877314D01*
X159549207Y-76819470D01*
X159547509Y-76720857D01*
X159547433Y-76543793D01*
X159365038Y-76543793D01*
X159252840Y-76538880D01*
X159164620Y-76518953D01*
X159091358Y-76478678D01*
X159085896Y-76474741D01*
X159011558Y-76408243D01*
X158959823Y-76327908D01*
X158927196Y-76222758D01*
X158910182Y-76081815D01*
X158906030Y-75922588D01*
X159197241Y-75922588D01*
X159197291Y-75949276D01*
X159200064Y-76069738D01*
X159208967Y-76148484D01*
X159226617Y-76199618D01*
X159255632Y-76237241D01*
X159257440Y-76239038D01*
X159328753Y-76287720D01*
X159397865Y-76282921D01*
X159475925Y-76223971D01*
X159495019Y-76203823D01*
X159523142Y-76162515D01*
X159539000Y-76108787D01*
X159546009Y-76027326D01*
X159547586Y-75902821D01*
X159546220Y-75827445D01*
X159531402Y-75690362D01*
X159497579Y-75600548D01*
X159441389Y-75551460D01*
X159359472Y-75536552D01*
X159324956Y-75539729D01*
X159265235Y-75571254D01*
X159225752Y-75641505D01*
X159203942Y-75756583D01*
X159197241Y-75922588D01*
X158906030Y-75922588D01*
X158905287Y-75894101D01*
X158906371Y-75757122D01*
X158911307Y-75653364D01*
X158922272Y-75581412D01*
X158941438Y-75527500D01*
X158970977Y-75477864D01*
X158998092Y-75439931D01*
X159096550Y-75337522D01*
X159208100Y-75281903D01*
X159348246Y-75264297D01*
X159508635Y-75281847D01*
X159647288Y-75344797D01*
X159756951Y-75455824D01*
X159765218Y-75467578D01*
X159784499Y-75498813D01*
X159799269Y-75534507D01*
X159810254Y-75582364D01*
X159818174Y-75650087D01*
X159823753Y-75745382D01*
X159827713Y-75875952D01*
X159828188Y-75902821D01*
X159830778Y-76049502D01*
X159833668Y-76273736D01*
G37*
X159833668Y-76273736D02*
X159834471Y-76338785D01*
X159837040Y-76556260D01*
X159837556Y-76722672D01*
X159834437Y-76843846D01*
X159826100Y-76925607D01*
X159810962Y-76973781D01*
X159787441Y-76994194D01*
X159753956Y-76992672D01*
X159708923Y-76975039D01*
X159650761Y-76947121D01*
X159638332Y-76941164D01*
X159586578Y-76912006D01*
X159559550Y-76877314D01*
X159549207Y-76819470D01*
X159547509Y-76720857D01*
X159547433Y-76543793D01*
X159365038Y-76543793D01*
X159252840Y-76538880D01*
X159164620Y-76518953D01*
X159091358Y-76478678D01*
X159085896Y-76474741D01*
X159011558Y-76408243D01*
X158959823Y-76327908D01*
X158927196Y-76222758D01*
X158910182Y-76081815D01*
X158906030Y-75922588D01*
X159197241Y-75922588D01*
X159197291Y-75949276D01*
X159200064Y-76069738D01*
X159208967Y-76148484D01*
X159226617Y-76199618D01*
X159255632Y-76237241D01*
X159257440Y-76239038D01*
X159328753Y-76287720D01*
X159397865Y-76282921D01*
X159475925Y-76223971D01*
X159495019Y-76203823D01*
X159523142Y-76162515D01*
X159539000Y-76108787D01*
X159546009Y-76027326D01*
X159547586Y-75902821D01*
X159546220Y-75827445D01*
X159531402Y-75690362D01*
X159497579Y-75600548D01*
X159441389Y-75551460D01*
X159359472Y-75536552D01*
X159324956Y-75539729D01*
X159265235Y-75571254D01*
X159225752Y-75641505D01*
X159203942Y-75756583D01*
X159197241Y-75922588D01*
X158906030Y-75922588D01*
X158905287Y-75894101D01*
X158906371Y-75757122D01*
X158911307Y-75653364D01*
X158922272Y-75581412D01*
X158941438Y-75527500D01*
X158970977Y-75477864D01*
X158998092Y-75439931D01*
X159096550Y-75337522D01*
X159208100Y-75281903D01*
X159348246Y-75264297D01*
X159508635Y-75281847D01*
X159647288Y-75344797D01*
X159756951Y-75455824D01*
X159765218Y-75467578D01*
X159784499Y-75498813D01*
X159799269Y-75534507D01*
X159810254Y-75582364D01*
X159818174Y-75650087D01*
X159823753Y-75745382D01*
X159827713Y-75875952D01*
X159828188Y-75902821D01*
X159830778Y-76049502D01*
X159833668Y-76273736D01*
X151986086Y-75574455D02*
X151986457Y-75792661D01*
X151986457Y-75792661D02*
X151987892Y-75960519D01*
X151987892Y-75960519D02*
X151990998Y-76086070D01*
X151990998Y-76086070D02*
X151996378Y-76177355D01*
X151996378Y-76177355D02*
X152004638Y-76242415D01*
X152004638Y-76242415D02*
X152016384Y-76289291D01*
X152016384Y-76289291D02*
X152032219Y-76326024D01*
X152032219Y-76326024D02*
X152044210Y-76346991D01*
X152044210Y-76346991D02*
X152143510Y-76460694D01*
X152143510Y-76460694D02*
X152269412Y-76531965D01*
X152269412Y-76531965D02*
X152408709Y-76557538D01*
X152408709Y-76557538D02*
X152548195Y-76534150D01*
X152548195Y-76534150D02*
X152631257Y-76492119D01*
X152631257Y-76492119D02*
X152718455Y-76419411D01*
X152718455Y-76419411D02*
X152777883Y-76330612D01*
X152777883Y-76330612D02*
X152813739Y-76214320D01*
X152813739Y-76214320D02*
X152830219Y-76059135D01*
X152830219Y-76059135D02*
X152832553Y-75945287D01*
X152832553Y-75945287D02*
X152832239Y-75937106D01*
X152832239Y-75937106D02*
X152628276Y-75937106D01*
X152628276Y-75937106D02*
X152627030Y-76067657D01*
X152627030Y-76067657D02*
X152621322Y-76154080D01*
X152621322Y-76154080D02*
X152608196Y-76210618D01*
X152608196Y-76210618D02*
X152584694Y-76251514D01*
X152584694Y-76251514D02*
X152556614Y-76282362D01*
X152556614Y-76282362D02*
X152462312Y-76341905D01*
X152462312Y-76341905D02*
X152361060Y-76346992D01*
X152361060Y-76346992D02*
X152265364Y-76297279D01*
X152265364Y-76297279D02*
X152257916Y-76290543D01*
X152257916Y-76290543D02*
X152226126Y-76255502D01*
X152226126Y-76255502D02*
X152206192Y-76213811D01*
X152206192Y-76213811D02*
X152195400Y-76151762D01*
X152195400Y-76151762D02*
X152191035Y-76055644D01*
X152191035Y-76055644D02*
X152190345Y-75949379D01*
X152190345Y-75949379D02*
X152191841Y-75815880D01*
X152191841Y-75815880D02*
X152198036Y-75726822D01*
X152198036Y-75726822D02*
X152211486Y-75668293D01*
X152211486Y-75668293D02*
X152234749Y-75626382D01*
X152234749Y-75626382D02*
X152253825Y-75604123D01*
X152253825Y-75604123D02*
X152342437Y-75547985D01*
X152342437Y-75547985D02*
X152444492Y-75541235D01*
X152444492Y-75541235D02*
X152541905Y-75584114D01*
X152541905Y-75584114D02*
X152560704Y-75600032D01*
X152560704Y-75600032D02*
X152592707Y-75635382D01*
X152592707Y-75635382D02*
X152612682Y-75677502D01*
X152612682Y-75677502D02*
X152623407Y-75740251D01*
X152623407Y-75740251D02*
X152627661Y-75837487D01*
X152627661Y-75837487D02*
X152628276Y-75937106D01*
X152628276Y-75937106D02*
X152832239Y-75937106D01*
X152832239Y-75937106D02*
X152825496Y-75761947D01*
X152825496Y-75761947D02*
X152801528Y-75624195D01*
X152801528Y-75624195D02*
X152756452Y-75520632D01*
X152756452Y-75520632D02*
X152686072Y-75439856D01*
X152686072Y-75439856D02*
X152631257Y-75398455D01*
X152631257Y-75398455D02*
X152531624Y-75353728D01*
X152531624Y-75353728D02*
X152416145Y-75332967D01*
X152416145Y-75332967D02*
X152308801Y-75338525D01*
X152308801Y-75338525D02*
X152248736Y-75360943D01*
X152248736Y-75360943D02*
X152225165Y-75367323D01*
X152225165Y-75367323D02*
X152209523Y-75343535D01*
X152209523Y-75343535D02*
X152198605Y-75279788D01*
X152198605Y-75279788D02*
X152190345Y-75182687D01*
X152190345Y-75182687D02*
X152181301Y-75074541D01*
X152181301Y-75074541D02*
X152168739Y-75009475D01*
X152168739Y-75009475D02*
X152145881Y-74972268D01*
X152145881Y-74972268D02*
X152105949Y-74947699D01*
X152105949Y-74947699D02*
X152080862Y-74936819D01*
X152080862Y-74936819D02*
X151985977Y-74897072D01*
X151985977Y-74897072D02*
X151986086Y-75574455D01*
X151986086Y-75574455D02*
X151986086Y-75574455D01*
G36*
X152830219Y-76059135D02*
G01*
X152813739Y-76214320D01*
X152777883Y-76330612D01*
X152718455Y-76419411D01*
X152631257Y-76492119D01*
X152548195Y-76534150D01*
X152408709Y-76557538D01*
X152269412Y-76531965D01*
X152143510Y-76460694D01*
X152044210Y-76346991D01*
X152032219Y-76326024D01*
X152016384Y-76289291D01*
X152004638Y-76242415D01*
X151996378Y-76177355D01*
X151990998Y-76086070D01*
X151987892Y-75960519D01*
X151987797Y-75949379D01*
X152190345Y-75949379D01*
X152191035Y-76055644D01*
X152195400Y-76151762D01*
X152206192Y-76213811D01*
X152226126Y-76255502D01*
X152257916Y-76290543D01*
X152265364Y-76297279D01*
X152361060Y-76346992D01*
X152462312Y-76341905D01*
X152556614Y-76282362D01*
X152584694Y-76251514D01*
X152608196Y-76210618D01*
X152621322Y-76154080D01*
X152627030Y-76067657D01*
X152628276Y-75937106D01*
X152627661Y-75837487D01*
X152623407Y-75740251D01*
X152612682Y-75677502D01*
X152592707Y-75635382D01*
X152560704Y-75600032D01*
X152541905Y-75584114D01*
X152444492Y-75541235D01*
X152342437Y-75547985D01*
X152253825Y-75604123D01*
X152234749Y-75626382D01*
X152211486Y-75668293D01*
X152198036Y-75726822D01*
X152191841Y-75815880D01*
X152190345Y-75949379D01*
X151987797Y-75949379D01*
X151986457Y-75792661D01*
X151986086Y-75574455D01*
X151985977Y-74897072D01*
X152080862Y-74936819D01*
X152105949Y-74947699D01*
X152145881Y-74972268D01*
X152168739Y-75009475D01*
X152181301Y-75074541D01*
X152190345Y-75182687D01*
X152198605Y-75279788D01*
X152209523Y-75343535D01*
X152225165Y-75367323D01*
X152248736Y-75360943D01*
X152308801Y-75338525D01*
X152416145Y-75332967D01*
X152531624Y-75353728D01*
X152631257Y-75398455D01*
X152686072Y-75439856D01*
X152756452Y-75520632D01*
X152801528Y-75624195D01*
X152825496Y-75761947D01*
X152832239Y-75937106D01*
X152832553Y-75945287D01*
X152830219Y-76059135D01*
G37*
X152830219Y-76059135D02*
X152813739Y-76214320D01*
X152777883Y-76330612D01*
X152718455Y-76419411D01*
X152631257Y-76492119D01*
X152548195Y-76534150D01*
X152408709Y-76557538D01*
X152269412Y-76531965D01*
X152143510Y-76460694D01*
X152044210Y-76346991D01*
X152032219Y-76326024D01*
X152016384Y-76289291D01*
X152004638Y-76242415D01*
X151996378Y-76177355D01*
X151990998Y-76086070D01*
X151987892Y-75960519D01*
X151987797Y-75949379D01*
X152190345Y-75949379D01*
X152191035Y-76055644D01*
X152195400Y-76151762D01*
X152206192Y-76213811D01*
X152226126Y-76255502D01*
X152257916Y-76290543D01*
X152265364Y-76297279D01*
X152361060Y-76346992D01*
X152462312Y-76341905D01*
X152556614Y-76282362D01*
X152584694Y-76251514D01*
X152608196Y-76210618D01*
X152621322Y-76154080D01*
X152627030Y-76067657D01*
X152628276Y-75937106D01*
X152627661Y-75837487D01*
X152623407Y-75740251D01*
X152612682Y-75677502D01*
X152592707Y-75635382D01*
X152560704Y-75600032D01*
X152541905Y-75584114D01*
X152444492Y-75541235D01*
X152342437Y-75547985D01*
X152253825Y-75604123D01*
X152234749Y-75626382D01*
X152211486Y-75668293D01*
X152198036Y-75726822D01*
X152191841Y-75815880D01*
X152190345Y-75949379D01*
X151987797Y-75949379D01*
X151986457Y-75792661D01*
X151986086Y-75574455D01*
X151985977Y-74897072D01*
X152080862Y-74936819D01*
X152105949Y-74947699D01*
X152145881Y-74972268D01*
X152168739Y-75009475D01*
X152181301Y-75074541D01*
X152190345Y-75182687D01*
X152198605Y-75279788D01*
X152209523Y-75343535D01*
X152225165Y-75367323D01*
X152248736Y-75360943D01*
X152308801Y-75338525D01*
X152416145Y-75332967D01*
X152531624Y-75353728D01*
X152631257Y-75398455D01*
X152686072Y-75439856D01*
X152756452Y-75520632D01*
X152801528Y-75624195D01*
X152825496Y-75761947D01*
X152832239Y-75937106D01*
X152832553Y-75945287D01*
X152830219Y-76059135D01*
X160331779Y-75286015D02*
X160194939Y-75357968D01*
X160194939Y-75357968D02*
X160093949Y-75473766D01*
X160093949Y-75473766D02*
X160058075Y-75548213D01*
X160058075Y-75548213D02*
X160030161Y-75659992D01*
X160030161Y-75659992D02*
X160015871Y-75801227D01*
X160015871Y-75801227D02*
X160014516Y-75955371D01*
X160014516Y-75955371D02*
X160025405Y-76105879D01*
X160025405Y-76105879D02*
X160047847Y-76236205D01*
X160047847Y-76236205D02*
X160081150Y-76329803D01*
X160081150Y-76329803D02*
X160091385Y-76345922D01*
X160091385Y-76345922D02*
X160212618Y-76466249D01*
X160212618Y-76466249D02*
X160356613Y-76538317D01*
X160356613Y-76538317D02*
X160512861Y-76559408D01*
X160512861Y-76559408D02*
X160670852Y-76526802D01*
X160670852Y-76526802D02*
X160714820Y-76507253D01*
X160714820Y-76507253D02*
X160800444Y-76447012D01*
X160800444Y-76447012D02*
X160875592Y-76367135D01*
X160875592Y-76367135D02*
X160882694Y-76357004D01*
X160882694Y-76357004D02*
X160911561Y-76308181D01*
X160911561Y-76308181D02*
X160930643Y-76255990D01*
X160930643Y-76255990D02*
X160941916Y-76187285D01*
X160941916Y-76187285D02*
X160947355Y-76088918D01*
X160947355Y-76088918D02*
X160948938Y-75947744D01*
X160948938Y-75947744D02*
X160948965Y-75916092D01*
X160948965Y-75916092D02*
X160948893Y-75906019D01*
X160948893Y-75906019D02*
X160657011Y-75906019D01*
X160657011Y-75906019D02*
X160655313Y-76039256D01*
X160655313Y-76039256D02*
X160648628Y-76127674D01*
X160648628Y-76127674D02*
X160634575Y-76184785D01*
X160634575Y-76184785D02*
X160610771Y-76224102D01*
X160610771Y-76224102D02*
X160598621Y-76237241D01*
X160598621Y-76237241D02*
X160528764Y-76287172D01*
X160528764Y-76287172D02*
X160460941Y-76284895D01*
X160460941Y-76284895D02*
X160392365Y-76241584D01*
X160392365Y-76241584D02*
X160351465Y-76195346D01*
X160351465Y-76195346D02*
X160327242Y-76127857D01*
X160327242Y-76127857D02*
X160313639Y-76021433D01*
X160313639Y-76021433D02*
X160312706Y-76009020D01*
X160312706Y-76009020D02*
X160310384Y-75816147D01*
X160310384Y-75816147D02*
X160334650Y-75672900D01*
X160334650Y-75672900D02*
X160385176Y-75580160D01*
X160385176Y-75580160D02*
X160461632Y-75538807D01*
X160461632Y-75538807D02*
X160488924Y-75536552D01*
X160488924Y-75536552D02*
X160560589Y-75547893D01*
X160560589Y-75547893D02*
X160609610Y-75587184D01*
X160609610Y-75587184D02*
X160639582Y-75662326D01*
X160639582Y-75662326D02*
X160654101Y-75781222D01*
X160654101Y-75781222D02*
X160657011Y-75906019D01*
X160657011Y-75906019D02*
X160948893Y-75906019D01*
X160948893Y-75906019D02*
X160947878Y-75765659D01*
X160947878Y-75765659D02*
X160943312Y-75660549D01*
X160943312Y-75660549D02*
X160933312Y-75587714D01*
X160933312Y-75587714D02*
X160915921Y-75534108D01*
X160915921Y-75534108D02*
X160889184Y-75486681D01*
X160889184Y-75486681D02*
X160883276Y-75477864D01*
X160883276Y-75477864D02*
X160783968Y-75359007D01*
X160783968Y-75359007D02*
X160675758Y-75290008D01*
X160675758Y-75290008D02*
X160544019Y-75262619D01*
X160544019Y-75262619D02*
X160499283Y-75261281D01*
X160499283Y-75261281D02*
X160331779Y-75286015D01*
X160331779Y-75286015D02*
X160331779Y-75286015D01*
G36*
X160948938Y-75947744D02*
G01*
X160947355Y-76088918D01*
X160941916Y-76187285D01*
X160930643Y-76255990D01*
X160911561Y-76308181D01*
X160882694Y-76357004D01*
X160875592Y-76367135D01*
X160800444Y-76447012D01*
X160714820Y-76507253D01*
X160670852Y-76526802D01*
X160512861Y-76559408D01*
X160356613Y-76538317D01*
X160212618Y-76466249D01*
X160091385Y-76345922D01*
X160081150Y-76329803D01*
X160047847Y-76236205D01*
X160025405Y-76105879D01*
X160014516Y-75955371D01*
X160015740Y-75816147D01*
X160310384Y-75816147D01*
X160312706Y-76009020D01*
X160313639Y-76021433D01*
X160327242Y-76127857D01*
X160351465Y-76195346D01*
X160392365Y-76241584D01*
X160460941Y-76284895D01*
X160528764Y-76287172D01*
X160598621Y-76237241D01*
X160610771Y-76224102D01*
X160634575Y-76184785D01*
X160648628Y-76127674D01*
X160655313Y-76039256D01*
X160657011Y-75906019D01*
X160654101Y-75781222D01*
X160639582Y-75662326D01*
X160609610Y-75587184D01*
X160560589Y-75547893D01*
X160488924Y-75536552D01*
X160461632Y-75538807D01*
X160385176Y-75580160D01*
X160334650Y-75672900D01*
X160310384Y-75816147D01*
X160015740Y-75816147D01*
X160015871Y-75801227D01*
X160030161Y-75659992D01*
X160058075Y-75548213D01*
X160093949Y-75473766D01*
X160194939Y-75357968D01*
X160331779Y-75286015D01*
X160499283Y-75261281D01*
X160544019Y-75262619D01*
X160675758Y-75290008D01*
X160783968Y-75359007D01*
X160883276Y-75477864D01*
X160889184Y-75486681D01*
X160915921Y-75534108D01*
X160933312Y-75587714D01*
X160943312Y-75660549D01*
X160947878Y-75765659D01*
X160948893Y-75906019D01*
X160948965Y-75916092D01*
X160948938Y-75947744D01*
G37*
X160948938Y-75947744D02*
X160947355Y-76088918D01*
X160941916Y-76187285D01*
X160930643Y-76255990D01*
X160911561Y-76308181D01*
X160882694Y-76357004D01*
X160875592Y-76367135D01*
X160800444Y-76447012D01*
X160714820Y-76507253D01*
X160670852Y-76526802D01*
X160512861Y-76559408D01*
X160356613Y-76538317D01*
X160212618Y-76466249D01*
X160091385Y-76345922D01*
X160081150Y-76329803D01*
X160047847Y-76236205D01*
X160025405Y-76105879D01*
X160014516Y-75955371D01*
X160015740Y-75816147D01*
X160310384Y-75816147D01*
X160312706Y-76009020D01*
X160313639Y-76021433D01*
X160327242Y-76127857D01*
X160351465Y-76195346D01*
X160392365Y-76241584D01*
X160460941Y-76284895D01*
X160528764Y-76287172D01*
X160598621Y-76237241D01*
X160610771Y-76224102D01*
X160634575Y-76184785D01*
X160648628Y-76127674D01*
X160655313Y-76039256D01*
X160657011Y-75906019D01*
X160654101Y-75781222D01*
X160639582Y-75662326D01*
X160609610Y-75587184D01*
X160560589Y-75547893D01*
X160488924Y-75536552D01*
X160461632Y-75538807D01*
X160385176Y-75580160D01*
X160334650Y-75672900D01*
X160310384Y-75816147D01*
X160015740Y-75816147D01*
X160015871Y-75801227D01*
X160030161Y-75659992D01*
X160058075Y-75548213D01*
X160093949Y-75473766D01*
X160194939Y-75357968D01*
X160331779Y-75286015D01*
X160499283Y-75261281D01*
X160544019Y-75262619D01*
X160675758Y-75290008D01*
X160783968Y-75359007D01*
X160883276Y-75477864D01*
X160889184Y-75486681D01*
X160915921Y-75534108D01*
X160933312Y-75587714D01*
X160943312Y-75660549D01*
X160947878Y-75765659D01*
X160948893Y-75906019D01*
X160948965Y-75916092D01*
X160948938Y-75947744D01*
X154170986Y-65872998D02*
X154012994Y-65873863D01*
X154012994Y-65873863D02*
X153898653Y-65876205D01*
X153898653Y-65876205D02*
X153820593Y-65880762D01*
X153820593Y-65880762D02*
X153771446Y-65888270D01*
X153771446Y-65888270D02*
X153743841Y-65899466D01*
X153743841Y-65899466D02*
X153730408Y-65915088D01*
X153730408Y-65915088D02*
X153723779Y-65935873D01*
X153723779Y-65935873D02*
X153723135Y-65938563D01*
X153723135Y-65938563D02*
X153713065Y-65987113D01*
X153713065Y-65987113D02*
X153694425Y-66082905D01*
X153694425Y-66082905D02*
X153669155Y-66215743D01*
X153669155Y-66215743D02*
X153639193Y-66375431D01*
X153639193Y-66375431D02*
X153606478Y-66551774D01*
X153606478Y-66551774D02*
X153605336Y-66557967D01*
X153605336Y-66557967D02*
X153572567Y-66730782D01*
X153572567Y-66730782D02*
X153541907Y-66883469D01*
X153541907Y-66883469D02*
X153515336Y-67006871D01*
X153515336Y-67006871D02*
X153494833Y-67091831D01*
X153494833Y-67091831D02*
X153482374Y-67129190D01*
X153482374Y-67129190D02*
X153481780Y-67129852D01*
X153481780Y-67129852D02*
X153445081Y-67148095D01*
X153445081Y-67148095D02*
X153369414Y-67178497D01*
X153369414Y-67178497D02*
X153271122Y-67214493D01*
X153271122Y-67214493D02*
X153270575Y-67214685D01*
X153270575Y-67214685D02*
X153146767Y-67261222D01*
X153146767Y-67261222D02*
X153000804Y-67320504D01*
X153000804Y-67320504D02*
X152863219Y-67380109D01*
X152863219Y-67380109D02*
X152856707Y-67383056D01*
X152856707Y-67383056D02*
X152632610Y-67484765D01*
X152632610Y-67484765D02*
X152136381Y-67145897D01*
X152136381Y-67145897D02*
X151984154Y-67042592D01*
X151984154Y-67042592D02*
X151846259Y-66950237D01*
X151846259Y-66950237D02*
X151730685Y-66874084D01*
X151730685Y-66874084D02*
X151645421Y-66819385D01*
X151645421Y-66819385D02*
X151598456Y-66791393D01*
X151598456Y-66791393D02*
X151593996Y-66789317D01*
X151593996Y-66789317D02*
X151559866Y-66798560D01*
X151559866Y-66798560D02*
X151496119Y-66843156D01*
X151496119Y-66843156D02*
X151400269Y-66925209D01*
X151400269Y-66925209D02*
X151269831Y-67046821D01*
X151269831Y-67046821D02*
X151136672Y-67176205D01*
X151136672Y-67176205D02*
X151008306Y-67303702D01*
X151008306Y-67303702D02*
X150893419Y-67420046D01*
X150893419Y-67420046D02*
X150798927Y-67518052D01*
X150798927Y-67518052D02*
X150731747Y-67590536D01*
X150731747Y-67590536D02*
X150698794Y-67630313D01*
X150698794Y-67630313D02*
X150697568Y-67632361D01*
X150697568Y-67632361D02*
X150693926Y-67659656D01*
X150693926Y-67659656D02*
X150707650Y-67704234D01*
X150707650Y-67704234D02*
X150742131Y-67772112D01*
X150742131Y-67772112D02*
X150800761Y-67869311D01*
X150800761Y-67869311D02*
X150886930Y-68001851D01*
X150886930Y-68001851D02*
X151001800Y-68172476D01*
X151001800Y-68172476D02*
X151103746Y-68322655D01*
X151103746Y-68322655D02*
X151194877Y-68457350D01*
X151194877Y-68457350D02*
X151269927Y-68568740D01*
X151269927Y-68568740D02*
X151323631Y-68649005D01*
X151323631Y-68649005D02*
X151350720Y-68690325D01*
X151350720Y-68690325D02*
X151352426Y-68693130D01*
X151352426Y-68693130D02*
X151349118Y-68732721D01*
X151349118Y-68732721D02*
X151324047Y-68809669D01*
X151324047Y-68809669D02*
X151282202Y-68909432D01*
X151282202Y-68909432D02*
X151267288Y-68941291D01*
X151267288Y-68941291D02*
X151202214Y-69083226D01*
X151202214Y-69083226D02*
X151132788Y-69244273D01*
X151132788Y-69244273D02*
X151076391Y-69383621D01*
X151076391Y-69383621D02*
X151035753Y-69487044D01*
X151035753Y-69487044D02*
X151003474Y-69565642D01*
X151003474Y-69565642D02*
X150984822Y-69606720D01*
X150984822Y-69606720D02*
X150982503Y-69609885D01*
X150982503Y-69609885D02*
X150948197Y-69615128D01*
X150948197Y-69615128D02*
X150867331Y-69629494D01*
X150867331Y-69629494D02*
X150750657Y-69650937D01*
X150750657Y-69650937D02*
X150608925Y-69677413D01*
X150608925Y-69677413D02*
X150452890Y-69706877D01*
X150452890Y-69706877D02*
X150293302Y-69737283D01*
X150293302Y-69737283D02*
X150140915Y-69766588D01*
X150140915Y-69766588D02*
X150006479Y-69792745D01*
X150006479Y-69792745D02*
X149900748Y-69813710D01*
X149900748Y-69813710D02*
X149834474Y-69827439D01*
X149834474Y-69827439D02*
X149818218Y-69831320D01*
X149818218Y-69831320D02*
X149801427Y-69840900D01*
X149801427Y-69840900D02*
X149788751Y-69862536D01*
X149788751Y-69862536D02*
X149779622Y-69903531D01*
X149779622Y-69903531D02*
X149773469Y-69971189D01*
X149773469Y-69971189D02*
X149769720Y-70072812D01*
X149769720Y-70072812D02*
X149767808Y-70215703D01*
X149767808Y-70215703D02*
X149767160Y-70407165D01*
X149767160Y-70407165D02*
X149767126Y-70485645D01*
X149767126Y-70485645D02*
X149767126Y-71123906D01*
X149767126Y-71123906D02*
X149920402Y-71154160D01*
X149920402Y-71154160D02*
X150005678Y-71170564D01*
X150005678Y-71170564D02*
X150132930Y-71194509D01*
X150132930Y-71194509D02*
X150286685Y-71223107D01*
X150286685Y-71223107D02*
X150451466Y-71253467D01*
X150451466Y-71253467D02*
X150497011Y-71261806D01*
X150497011Y-71261806D02*
X150649068Y-71291370D01*
X150649068Y-71291370D02*
X150781532Y-71320442D01*
X150781532Y-71320442D02*
X150883286Y-71346329D01*
X150883286Y-71346329D02*
X150943212Y-71366337D01*
X150943212Y-71366337D02*
X150953195Y-71372301D01*
X150953195Y-71372301D02*
X150977707Y-71414534D01*
X150977707Y-71414534D02*
X151012852Y-71496370D01*
X151012852Y-71496370D02*
X151051827Y-71601683D01*
X151051827Y-71601683D02*
X151059558Y-71624368D01*
X151059558Y-71624368D02*
X151110640Y-71765018D01*
X151110640Y-71765018D02*
X151174046Y-71923714D01*
X151174046Y-71923714D02*
X151236096Y-72066225D01*
X151236096Y-72066225D02*
X151236402Y-72066886D01*
X151236402Y-72066886D02*
X151339733Y-72290440D01*
X151339733Y-72290440D02*
X150660039Y-73290232D01*
X150660039Y-73290232D02*
X151096379Y-73727300D01*
X151096379Y-73727300D02*
X151228351Y-73857381D01*
X151228351Y-73857381D02*
X151348721Y-73972048D01*
X151348721Y-73972048D02*
X151450727Y-74065181D01*
X151450727Y-74065181D02*
X151527609Y-74130658D01*
X151527609Y-74130658D02*
X151572607Y-74162357D01*
X151572607Y-74162357D02*
X151579062Y-74164368D01*
X151579062Y-74164368D02*
X151616960Y-74148529D01*
X151616960Y-74148529D02*
X151694292Y-74104496D01*
X151694292Y-74104496D02*
X151802611Y-74037490D01*
X151802611Y-74037490D02*
X151933468Y-73952734D01*
X151933468Y-73952734D02*
X152074948Y-73857816D01*
X152074948Y-73857816D02*
X152218539Y-73760998D01*
X152218539Y-73760998D02*
X152346565Y-73676751D01*
X152346565Y-73676751D02*
X152450895Y-73610258D01*
X152450895Y-73610258D02*
X152523400Y-73566702D01*
X152523400Y-73566702D02*
X152555842Y-73551264D01*
X152555842Y-73551264D02*
X152595424Y-73564328D01*
X152595424Y-73564328D02*
X152670481Y-73598750D01*
X152670481Y-73598750D02*
X152765532Y-73647380D01*
X152765532Y-73647380D02*
X152775608Y-73652785D01*
X152775608Y-73652785D02*
X152903609Y-73716980D01*
X152903609Y-73716980D02*
X152991382Y-73748463D01*
X152991382Y-73748463D02*
X153045972Y-73748798D01*
X153045972Y-73748798D02*
X153074425Y-73719548D01*
X153074425Y-73719548D02*
X153074590Y-73719138D01*
X153074590Y-73719138D02*
X153088812Y-73684498D01*
X153088812Y-73684498D02*
X153122731Y-73602269D01*
X153122731Y-73602269D02*
X153173716Y-73478814D01*
X153173716Y-73478814D02*
X153239138Y-73320498D01*
X153239138Y-73320498D02*
X153316366Y-73133686D01*
X153316366Y-73133686D02*
X153402771Y-72924742D01*
X153402771Y-72924742D02*
X153486449Y-72722446D01*
X153486449Y-72722446D02*
X153578412Y-72499200D01*
X153578412Y-72499200D02*
X153662850Y-72292392D01*
X153662850Y-72292392D02*
X153737231Y-72108362D01*
X153737231Y-72108362D02*
X153799026Y-71953451D01*
X153799026Y-71953451D02*
X153845703Y-71833996D01*
X153845703Y-71833996D02*
X153874732Y-71756339D01*
X153874732Y-71756339D02*
X153883678Y-71727356D01*
X153883678Y-71727356D02*
X153861244Y-71694110D01*
X153861244Y-71694110D02*
X153802561Y-71641123D01*
X153802561Y-71641123D02*
X153724311Y-71582704D01*
X153724311Y-71582704D02*
X153501466Y-71397952D01*
X153501466Y-71397952D02*
X153327282Y-71186182D01*
X153327282Y-71186182D02*
X153203846Y-70951856D01*
X153203846Y-70951856D02*
X153133246Y-70699434D01*
X153133246Y-70699434D02*
X153117569Y-70433377D01*
X153117569Y-70433377D02*
X153128964Y-70310575D01*
X153128964Y-70310575D02*
X153191050Y-70055793D01*
X153191050Y-70055793D02*
X153297977Y-69830801D01*
X153297977Y-69830801D02*
X153443111Y-69637817D01*
X153443111Y-69637817D02*
X153619822Y-69479061D01*
X153619822Y-69479061D02*
X153821478Y-69356750D01*
X153821478Y-69356750D02*
X154041446Y-69273105D01*
X154041446Y-69273105D02*
X154273094Y-69230344D01*
X154273094Y-69230344D02*
X154509791Y-69230687D01*
X154509791Y-69230687D02*
X154744905Y-69276352D01*
X154744905Y-69276352D02*
X154971804Y-69369559D01*
X154971804Y-69369559D02*
X155183856Y-69512527D01*
X155183856Y-69512527D02*
X155272364Y-69593383D01*
X155272364Y-69593383D02*
X155442111Y-69801007D01*
X155442111Y-69801007D02*
X155560301Y-70027895D01*
X155560301Y-70027895D02*
X155627722Y-70267433D01*
X155627722Y-70267433D02*
X155645160Y-70513007D01*
X155645160Y-70513007D02*
X155613402Y-70758003D01*
X155613402Y-70758003D02*
X155533235Y-70995808D01*
X155533235Y-70995808D02*
X155405445Y-71219807D01*
X155405445Y-71219807D02*
X155230820Y-71423387D01*
X155230820Y-71423387D02*
X155035688Y-71582704D01*
X155035688Y-71582704D02*
X154954409Y-71643602D01*
X154954409Y-71643602D02*
X154896991Y-71696015D01*
X154896991Y-71696015D02*
X154876322Y-71727406D01*
X154876322Y-71727406D02*
X154887144Y-71761639D01*
X154887144Y-71761639D02*
X154917923Y-71843419D01*
X154917923Y-71843419D02*
X154966126Y-71966407D01*
X154966126Y-71966407D02*
X155029222Y-72124263D01*
X155029222Y-72124263D02*
X155104678Y-72310649D01*
X155104678Y-72310649D02*
X155189962Y-72519226D01*
X155189962Y-72519226D02*
X155273781Y-72722496D01*
X155273781Y-72722496D02*
X155366255Y-72945933D01*
X155366255Y-72945933D02*
X155451911Y-73152984D01*
X155451911Y-73152984D02*
X155528118Y-73337286D01*
X155528118Y-73337286D02*
X155592247Y-73492475D01*
X155592247Y-73492475D02*
X155641668Y-73612188D01*
X155641668Y-73612188D02*
X155673752Y-73690061D01*
X155673752Y-73690061D02*
X155685641Y-73719138D01*
X155685641Y-73719138D02*
X155713726Y-73748677D01*
X155713726Y-73748677D02*
X155768051Y-73748591D01*
X155768051Y-73748591D02*
X155855605Y-73717326D01*
X155855605Y-73717326D02*
X155983381Y-73653329D01*
X155983381Y-73653329D02*
X155984392Y-73652785D01*
X155984392Y-73652785D02*
X156080598Y-73603121D01*
X156080598Y-73603121D02*
X156158369Y-73566945D01*
X156158369Y-73566945D02*
X156202223Y-73551408D01*
X156202223Y-73551408D02*
X156204158Y-73551264D01*
X156204158Y-73551264D02*
X156237171Y-73567024D01*
X156237171Y-73567024D02*
X156310054Y-73610850D01*
X156310054Y-73610850D02*
X156414678Y-73677557D01*
X156414678Y-73677557D02*
X156542910Y-73761964D01*
X156542910Y-73761964D02*
X156685052Y-73857816D01*
X156685052Y-73857816D02*
X156829767Y-73954867D01*
X156829767Y-73954867D02*
X156960196Y-74039270D01*
X156960196Y-74039270D02*
X157067890Y-74105801D01*
X157067890Y-74105801D02*
X157144402Y-74149238D01*
X157144402Y-74149238D02*
X157180938Y-74164368D01*
X157180938Y-74164368D02*
X157214582Y-74144482D01*
X157214582Y-74144482D02*
X157282224Y-74088903D01*
X157282224Y-74088903D02*
X157377107Y-74003754D01*
X157377107Y-74003754D02*
X157492470Y-73895153D01*
X157492470Y-73895153D02*
X157621555Y-73769221D01*
X157621555Y-73769221D02*
X157663771Y-73727149D01*
X157663771Y-73727149D02*
X158100261Y-73289931D01*
X158100261Y-73289931D02*
X157768023Y-72802340D01*
X157768023Y-72802340D02*
X157667054Y-72652605D01*
X157667054Y-72652605D02*
X157578438Y-72518220D01*
X157578438Y-72518220D02*
X157507146Y-72406969D01*
X157507146Y-72406969D02*
X157458150Y-72326639D01*
X157458150Y-72326639D02*
X157436422Y-72285014D01*
X157436422Y-72285014D02*
X157435785Y-72282053D01*
X157435785Y-72282053D02*
X157447240Y-72242818D01*
X157447240Y-72242818D02*
X157478051Y-72163895D01*
X157478051Y-72163895D02*
X157522884Y-72058509D01*
X157522884Y-72058509D02*
X157554353Y-71987954D01*
X157554353Y-71987954D02*
X157613192Y-71852876D01*
X157613192Y-71852876D02*
X157668604Y-71716409D01*
X157668604Y-71716409D02*
X157711564Y-71601103D01*
X157711564Y-71601103D02*
X157723234Y-71565977D01*
X157723234Y-71565977D02*
X157756389Y-71472174D01*
X157756389Y-71472174D02*
X157788799Y-71399694D01*
X157788799Y-71399694D02*
X157806601Y-71372301D01*
X157806601Y-71372301D02*
X157845886Y-71355536D01*
X157845886Y-71355536D02*
X157931626Y-71331770D01*
X157931626Y-71331770D02*
X158052697Y-71303697D01*
X158052697Y-71303697D02*
X158197973Y-71274009D01*
X158197973Y-71274009D02*
X158262988Y-71261806D01*
X158262988Y-71261806D02*
X158428087Y-71231468D01*
X158428087Y-71231468D02*
X158586448Y-71202093D01*
X158586448Y-71202093D02*
X158722596Y-71176569D01*
X158722596Y-71176569D02*
X158821057Y-71157785D01*
X158821057Y-71157785D02*
X158839598Y-71154160D01*
X158839598Y-71154160D02*
X158992873Y-71123906D01*
X158992873Y-71123906D02*
X158992873Y-70485645D01*
X158992873Y-70485645D02*
X158992529Y-70275770D01*
X158992529Y-70275770D02*
X158991116Y-70116980D01*
X158991116Y-70116980D02*
X158988064Y-70001973D01*
X158988064Y-70001973D02*
X158982803Y-69923446D01*
X158982803Y-69923446D02*
X158974763Y-69874096D01*
X158974763Y-69874096D02*
X158963373Y-69846619D01*
X158963373Y-69846619D02*
X158948063Y-69833713D01*
X158948063Y-69833713D02*
X158941782Y-69831320D01*
X158941782Y-69831320D02*
X158903896Y-69822833D01*
X158903896Y-69822833D02*
X158820195Y-69805900D01*
X158820195Y-69805900D02*
X158701433Y-69782566D01*
X158701433Y-69782566D02*
X158558361Y-69754875D01*
X158558361Y-69754875D02*
X158401732Y-69724873D01*
X158401732Y-69724873D02*
X158242297Y-69694604D01*
X158242297Y-69694604D02*
X158090809Y-69666115D01*
X158090809Y-69666115D02*
X157958019Y-69641449D01*
X157958019Y-69641449D02*
X157854681Y-69622651D01*
X157854681Y-69622651D02*
X157791545Y-69611767D01*
X157791545Y-69611767D02*
X157777497Y-69609885D01*
X157777497Y-69609885D02*
X157764770Y-69584704D01*
X157764770Y-69584704D02*
X157736600Y-69517622D01*
X157736600Y-69517622D02*
X157698252Y-69421333D01*
X157698252Y-69421333D02*
X157683609Y-69383621D01*
X157683609Y-69383621D02*
X157624548Y-69237921D01*
X157624548Y-69237921D02*
X157555000Y-69076951D01*
X157555000Y-69076951D02*
X157492712Y-68941291D01*
X157492712Y-68941291D02*
X157446879Y-68837561D01*
X157446879Y-68837561D02*
X157416387Y-68752326D01*
X157416387Y-68752326D02*
X157406208Y-68700126D01*
X157406208Y-68700126D02*
X157407831Y-68693130D01*
X157407831Y-68693130D02*
X157429343Y-68660102D01*
X157429343Y-68660102D02*
X157478465Y-68586643D01*
X157478465Y-68586643D02*
X157549923Y-68480577D01*
X157549923Y-68480577D02*
X157638445Y-68349726D01*
X157638445Y-68349726D02*
X157738759Y-68201912D01*
X157738759Y-68201912D02*
X157758594Y-68172734D01*
X157758594Y-68172734D02*
X157874988Y-67999863D01*
X157874988Y-67999863D02*
X157960548Y-67868226D01*
X157960548Y-67868226D02*
X158018684Y-67771761D01*
X158018684Y-67771761D02*
X158052808Y-67704408D01*
X158052808Y-67704408D02*
X158066331Y-67660106D01*
X158066331Y-67660106D02*
X158062664Y-67632794D01*
X158062664Y-67632794D02*
X158062570Y-67632620D01*
X158062570Y-67632620D02*
X158033707Y-67596746D01*
X158033707Y-67596746D02*
X157969867Y-67527391D01*
X157969867Y-67527391D02*
X157877969Y-67431745D01*
X157877969Y-67431745D02*
X157764933Y-67316999D01*
X157764933Y-67316999D02*
X157637679Y-67190341D01*
X157637679Y-67190341D02*
X157623328Y-67176205D01*
X157623328Y-67176205D02*
X157462957Y-67020903D01*
X157462957Y-67020903D02*
X157339195Y-66906870D01*
X157339195Y-66906870D02*
X157249555Y-66832002D01*
X157249555Y-66832002D02*
X157191552Y-66794196D01*
X157191552Y-66794196D02*
X157166004Y-66789317D01*
X157166004Y-66789317D02*
X157128718Y-66810603D01*
X157128718Y-66810603D02*
X157051343Y-66859773D01*
X157051343Y-66859773D02*
X156941867Y-66931575D01*
X156941867Y-66931575D02*
X156808280Y-67020755D01*
X156808280Y-67020755D02*
X156658570Y-67122063D01*
X156658570Y-67122063D02*
X156623618Y-67145897D01*
X156623618Y-67145897D02*
X156127390Y-67484765D01*
X156127390Y-67484765D02*
X155903293Y-67383056D01*
X155903293Y-67383056D02*
X155767011Y-67323783D01*
X155767011Y-67323783D02*
X155620724Y-67264170D01*
X155620724Y-67264170D02*
X155494965Y-67216640D01*
X155494965Y-67216640D02*
X155489425Y-67214685D01*
X155489425Y-67214685D02*
X155391057Y-67178677D01*
X155391057Y-67178677D02*
X155315229Y-67148229D01*
X155315229Y-67148229D02*
X155278282Y-67129905D01*
X155278282Y-67129905D02*
X155278220Y-67129852D01*
X155278220Y-67129852D02*
X155266496Y-67096729D01*
X155266496Y-67096729D02*
X155246568Y-67015267D01*
X155246568Y-67015267D02*
X155220413Y-66894625D01*
X155220413Y-66894625D02*
X155190010Y-66743959D01*
X155190010Y-66743959D02*
X155157337Y-66572428D01*
X155157337Y-66572428D02*
X155154664Y-66557967D01*
X155154664Y-66557967D02*
X155121890Y-66381235D01*
X155121890Y-66381235D02*
X155091802Y-66220810D01*
X155091802Y-66220810D02*
X155066339Y-66086888D01*
X155066339Y-66086888D02*
X155047441Y-65989663D01*
X155047441Y-65989663D02*
X155037047Y-65939332D01*
X155037047Y-65939332D02*
X155036865Y-65938563D01*
X155036865Y-65938563D02*
X155030539Y-65917153D01*
X155030539Y-65917153D02*
X155018239Y-65900988D01*
X155018239Y-65900988D02*
X154992594Y-65889331D01*
X154992594Y-65889331D02*
X154946235Y-65881445D01*
X154946235Y-65881445D02*
X154871792Y-65876593D01*
X154871792Y-65876593D02*
X154761895Y-65874039D01*
X154761895Y-65874039D02*
X154609175Y-65873045D01*
X154609175Y-65873045D02*
X154406262Y-65872874D01*
X154406262Y-65872874D02*
X154380000Y-65872874D01*
X154380000Y-65872874D02*
X154170986Y-65872998D01*
X154170986Y-65872998D02*
X154170986Y-65872998D01*
G36*
X154609175Y-65873045D02*
G01*
X154761895Y-65874039D01*
X154871792Y-65876593D01*
X154946235Y-65881445D01*
X154992594Y-65889331D01*
X155018239Y-65900988D01*
X155030539Y-65917153D01*
X155036865Y-65938563D01*
X155037047Y-65939332D01*
X155047441Y-65989663D01*
X155066339Y-66086888D01*
X155091802Y-66220810D01*
X155121890Y-66381235D01*
X155154664Y-66557967D01*
X155157337Y-66572428D01*
X155190010Y-66743959D01*
X155220413Y-66894625D01*
X155246568Y-67015267D01*
X155266496Y-67096729D01*
X155278220Y-67129852D01*
X155278282Y-67129905D01*
X155315229Y-67148229D01*
X155391057Y-67178677D01*
X155489425Y-67214685D01*
X155494965Y-67216640D01*
X155620724Y-67264170D01*
X155767011Y-67323783D01*
X155903293Y-67383056D01*
X156127390Y-67484765D01*
X156623618Y-67145897D01*
X156658570Y-67122063D01*
X156808280Y-67020755D01*
X156941867Y-66931575D01*
X157051343Y-66859773D01*
X157128718Y-66810603D01*
X157166004Y-66789317D01*
X157191552Y-66794196D01*
X157249555Y-66832002D01*
X157339195Y-66906870D01*
X157462957Y-67020903D01*
X157623328Y-67176205D01*
X157637679Y-67190341D01*
X157764933Y-67316999D01*
X157877969Y-67431745D01*
X157969867Y-67527391D01*
X158033707Y-67596746D01*
X158062570Y-67632620D01*
X158062664Y-67632794D01*
X158066331Y-67660106D01*
X158052808Y-67704408D01*
X158018684Y-67771761D01*
X157960548Y-67868226D01*
X157874988Y-67999863D01*
X157758594Y-68172734D01*
X157738759Y-68201912D01*
X157638445Y-68349726D01*
X157549923Y-68480577D01*
X157478465Y-68586643D01*
X157429343Y-68660102D01*
X157407831Y-68693130D01*
X157406208Y-68700126D01*
X157416387Y-68752326D01*
X157446879Y-68837561D01*
X157492712Y-68941291D01*
X157555000Y-69076951D01*
X157624548Y-69237921D01*
X157683609Y-69383621D01*
X157698252Y-69421333D01*
X157736600Y-69517622D01*
X157764770Y-69584704D01*
X157777497Y-69609885D01*
X157791545Y-69611767D01*
X157854681Y-69622651D01*
X157958019Y-69641449D01*
X158090809Y-69666115D01*
X158242297Y-69694604D01*
X158401732Y-69724873D01*
X158558361Y-69754875D01*
X158701433Y-69782566D01*
X158820195Y-69805900D01*
X158903896Y-69822833D01*
X158941782Y-69831320D01*
X158948063Y-69833713D01*
X158963373Y-69846619D01*
X158974763Y-69874096D01*
X158982803Y-69923446D01*
X158988064Y-70001973D01*
X158991116Y-70116980D01*
X158992529Y-70275770D01*
X158992873Y-70485645D01*
X158992873Y-71123906D01*
X158839598Y-71154160D01*
X158821057Y-71157785D01*
X158722596Y-71176569D01*
X158586448Y-71202093D01*
X158428087Y-71231468D01*
X158262988Y-71261806D01*
X158197973Y-71274009D01*
X158052697Y-71303697D01*
X157931626Y-71331770D01*
X157845886Y-71355536D01*
X157806601Y-71372301D01*
X157788799Y-71399694D01*
X157756389Y-71472174D01*
X157723234Y-71565977D01*
X157711564Y-71601103D01*
X157668604Y-71716409D01*
X157613192Y-71852876D01*
X157554353Y-71987954D01*
X157522884Y-72058509D01*
X157478051Y-72163895D01*
X157447240Y-72242818D01*
X157435785Y-72282053D01*
X157436422Y-72285014D01*
X157458150Y-72326639D01*
X157507146Y-72406969D01*
X157578438Y-72518220D01*
X157667054Y-72652605D01*
X157768023Y-72802340D01*
X158100261Y-73289931D01*
X157663771Y-73727149D01*
X157621555Y-73769221D01*
X157492470Y-73895153D01*
X157377107Y-74003754D01*
X157282224Y-74088903D01*
X157214582Y-74144482D01*
X157180938Y-74164368D01*
X157144402Y-74149238D01*
X157067890Y-74105801D01*
X156960196Y-74039270D01*
X156829767Y-73954867D01*
X156685052Y-73857816D01*
X156542910Y-73761964D01*
X156414678Y-73677557D01*
X156310054Y-73610850D01*
X156237171Y-73567024D01*
X156204158Y-73551264D01*
X156202223Y-73551408D01*
X156158369Y-73566945D01*
X156080598Y-73603121D01*
X155984392Y-73652785D01*
X155983381Y-73653329D01*
X155855605Y-73717326D01*
X155768051Y-73748591D01*
X155713726Y-73748677D01*
X155685641Y-73719138D01*
X155673752Y-73690061D01*
X155641668Y-73612188D01*
X155592247Y-73492475D01*
X155528118Y-73337286D01*
X155451911Y-73152984D01*
X155366255Y-72945933D01*
X155273781Y-72722496D01*
X155189962Y-72519226D01*
X155104678Y-72310649D01*
X155029222Y-72124263D01*
X154966126Y-71966407D01*
X154917923Y-71843419D01*
X154887144Y-71761639D01*
X154876322Y-71727406D01*
X154896991Y-71696015D01*
X154954409Y-71643602D01*
X155035688Y-71582704D01*
X155230820Y-71423387D01*
X155405445Y-71219807D01*
X155533235Y-70995808D01*
X155613402Y-70758003D01*
X155645160Y-70513007D01*
X155627722Y-70267433D01*
X155560301Y-70027895D01*
X155442111Y-69801007D01*
X155272364Y-69593383D01*
X155183856Y-69512527D01*
X154971804Y-69369559D01*
X154744905Y-69276352D01*
X154509791Y-69230687D01*
X154273094Y-69230344D01*
X154041446Y-69273105D01*
X153821478Y-69356750D01*
X153619822Y-69479061D01*
X153443111Y-69637817D01*
X153297977Y-69830801D01*
X153191050Y-70055793D01*
X153128964Y-70310575D01*
X153117569Y-70433377D01*
X153133246Y-70699434D01*
X153203846Y-70951856D01*
X153327282Y-71186182D01*
X153501466Y-71397952D01*
X153724311Y-71582704D01*
X153802561Y-71641123D01*
X153861244Y-71694110D01*
X153883678Y-71727356D01*
X153874732Y-71756339D01*
X153845703Y-71833996D01*
X153799026Y-71953451D01*
X153737231Y-72108362D01*
X153662850Y-72292392D01*
X153578412Y-72499200D01*
X153486449Y-72722446D01*
X153402771Y-72924742D01*
X153316366Y-73133686D01*
X153239138Y-73320498D01*
X153173716Y-73478814D01*
X153122731Y-73602269D01*
X153088812Y-73684498D01*
X153074590Y-73719138D01*
X153074425Y-73719548D01*
X153045972Y-73748798D01*
X152991382Y-73748463D01*
X152903609Y-73716980D01*
X152775608Y-73652785D01*
X152765532Y-73647380D01*
X152670481Y-73598750D01*
X152595424Y-73564328D01*
X152555842Y-73551264D01*
X152523400Y-73566702D01*
X152450895Y-73610258D01*
X152346565Y-73676751D01*
X152218539Y-73760998D01*
X152074948Y-73857816D01*
X151933468Y-73952734D01*
X151802611Y-74037490D01*
X151694292Y-74104496D01*
X151616960Y-74148529D01*
X151579062Y-74164368D01*
X151572607Y-74162357D01*
X151527609Y-74130658D01*
X151450727Y-74065181D01*
X151348721Y-73972048D01*
X151228351Y-73857381D01*
X151096379Y-73727300D01*
X150660039Y-73290232D01*
X151339733Y-72290440D01*
X151236402Y-72066886D01*
X151236096Y-72066225D01*
X151174046Y-71923714D01*
X151110640Y-71765018D01*
X151059558Y-71624368D01*
X151051827Y-71601683D01*
X151012852Y-71496370D01*
X150977707Y-71414534D01*
X150953195Y-71372301D01*
X150943212Y-71366337D01*
X150883286Y-71346329D01*
X150781532Y-71320442D01*
X150649068Y-71291370D01*
X150497011Y-71261806D01*
X150451466Y-71253467D01*
X150286685Y-71223107D01*
X150132930Y-71194509D01*
X150005678Y-71170564D01*
X149920402Y-71154160D01*
X149767126Y-71123906D01*
X149767126Y-70485645D01*
X149767160Y-70407165D01*
X149767808Y-70215703D01*
X149769720Y-70072812D01*
X149773469Y-69971189D01*
X149779622Y-69903531D01*
X149788751Y-69862536D01*
X149801427Y-69840900D01*
X149818218Y-69831320D01*
X149834474Y-69827439D01*
X149900748Y-69813710D01*
X150006479Y-69792745D01*
X150140915Y-69766588D01*
X150293302Y-69737283D01*
X150452890Y-69706877D01*
X150608925Y-69677413D01*
X150750657Y-69650937D01*
X150867331Y-69629494D01*
X150948197Y-69615128D01*
X150982503Y-69609885D01*
X150984822Y-69606720D01*
X151003474Y-69565642D01*
X151035753Y-69487044D01*
X151076391Y-69383621D01*
X151132788Y-69244273D01*
X151202214Y-69083226D01*
X151267288Y-68941291D01*
X151282202Y-68909432D01*
X151324047Y-68809669D01*
X151349118Y-68732721D01*
X151352426Y-68693130D01*
X151350720Y-68690325D01*
X151323631Y-68649005D01*
X151269927Y-68568740D01*
X151194877Y-68457350D01*
X151103746Y-68322655D01*
X151001800Y-68172476D01*
X150886930Y-68001851D01*
X150800761Y-67869311D01*
X150742131Y-67772112D01*
X150707650Y-67704234D01*
X150693926Y-67659656D01*
X150697568Y-67632361D01*
X150698794Y-67630313D01*
X150731747Y-67590536D01*
X150798927Y-67518052D01*
X150893419Y-67420046D01*
X151008306Y-67303702D01*
X151136672Y-67176205D01*
X151269831Y-67046821D01*
X151400269Y-66925209D01*
X151496119Y-66843156D01*
X151559866Y-66798560D01*
X151593996Y-66789317D01*
X151598456Y-66791393D01*
X151645421Y-66819385D01*
X151730685Y-66874084D01*
X151846259Y-66950237D01*
X151984154Y-67042592D01*
X152136381Y-67145897D01*
X152632610Y-67484765D01*
X152856707Y-67383056D01*
X152863219Y-67380109D01*
X153000804Y-67320504D01*
X153146767Y-67261222D01*
X153270575Y-67214685D01*
X153271122Y-67214493D01*
X153369414Y-67178497D01*
X153445081Y-67148095D01*
X153481780Y-67129852D01*
X153482374Y-67129190D01*
X153494833Y-67091831D01*
X153515336Y-67006871D01*
X153541907Y-66883469D01*
X153572567Y-66730782D01*
X153605336Y-66557967D01*
X153606478Y-66551774D01*
X153639193Y-66375431D01*
X153669155Y-66215743D01*
X153694425Y-66082905D01*
X153713065Y-65987113D01*
X153723135Y-65938563D01*
X153723779Y-65935873D01*
X153730408Y-65915088D01*
X153743841Y-65899466D01*
X153771446Y-65888270D01*
X153820593Y-65880762D01*
X153898653Y-65876205D01*
X154012994Y-65873863D01*
X154170986Y-65872998D01*
X154380000Y-65872874D01*
X154406262Y-65872874D01*
X154609175Y-65873045D01*
G37*
X154609175Y-65873045D02*
X154761895Y-65874039D01*
X154871792Y-65876593D01*
X154946235Y-65881445D01*
X154992594Y-65889331D01*
X155018239Y-65900988D01*
X155030539Y-65917153D01*
X155036865Y-65938563D01*
X155037047Y-65939332D01*
X155047441Y-65989663D01*
X155066339Y-66086888D01*
X155091802Y-66220810D01*
X155121890Y-66381235D01*
X155154664Y-66557967D01*
X155157337Y-66572428D01*
X155190010Y-66743959D01*
X155220413Y-66894625D01*
X155246568Y-67015267D01*
X155266496Y-67096729D01*
X155278220Y-67129852D01*
X155278282Y-67129905D01*
X155315229Y-67148229D01*
X155391057Y-67178677D01*
X155489425Y-67214685D01*
X155494965Y-67216640D01*
X155620724Y-67264170D01*
X155767011Y-67323783D01*
X155903293Y-67383056D01*
X156127390Y-67484765D01*
X156623618Y-67145897D01*
X156658570Y-67122063D01*
X156808280Y-67020755D01*
X156941867Y-66931575D01*
X157051343Y-66859773D01*
X157128718Y-66810603D01*
X157166004Y-66789317D01*
X157191552Y-66794196D01*
X157249555Y-66832002D01*
X157339195Y-66906870D01*
X157462957Y-67020903D01*
X157623328Y-67176205D01*
X157637679Y-67190341D01*
X157764933Y-67316999D01*
X157877969Y-67431745D01*
X157969867Y-67527391D01*
X158033707Y-67596746D01*
X158062570Y-67632620D01*
X158062664Y-67632794D01*
X158066331Y-67660106D01*
X158052808Y-67704408D01*
X158018684Y-67771761D01*
X157960548Y-67868226D01*
X157874988Y-67999863D01*
X157758594Y-68172734D01*
X157738759Y-68201912D01*
X157638445Y-68349726D01*
X157549923Y-68480577D01*
X157478465Y-68586643D01*
X157429343Y-68660102D01*
X157407831Y-68693130D01*
X157406208Y-68700126D01*
X157416387Y-68752326D01*
X157446879Y-68837561D01*
X157492712Y-68941291D01*
X157555000Y-69076951D01*
X157624548Y-69237921D01*
X157683609Y-69383621D01*
X157698252Y-69421333D01*
X157736600Y-69517622D01*
X157764770Y-69584704D01*
X157777497Y-69609885D01*
X157791545Y-69611767D01*
X157854681Y-69622651D01*
X157958019Y-69641449D01*
X158090809Y-69666115D01*
X158242297Y-69694604D01*
X158401732Y-69724873D01*
X158558361Y-69754875D01*
X158701433Y-69782566D01*
X158820195Y-69805900D01*
X158903896Y-69822833D01*
X158941782Y-69831320D01*
X158948063Y-69833713D01*
X158963373Y-69846619D01*
X158974763Y-69874096D01*
X158982803Y-69923446D01*
X158988064Y-70001973D01*
X158991116Y-70116980D01*
X158992529Y-70275770D01*
X158992873Y-70485645D01*
X158992873Y-71123906D01*
X158839598Y-71154160D01*
X158821057Y-71157785D01*
X158722596Y-71176569D01*
X158586448Y-71202093D01*
X158428087Y-71231468D01*
X158262988Y-71261806D01*
X158197973Y-71274009D01*
X158052697Y-71303697D01*
X157931626Y-71331770D01*
X157845886Y-71355536D01*
X157806601Y-71372301D01*
X157788799Y-71399694D01*
X157756389Y-71472174D01*
X157723234Y-71565977D01*
X157711564Y-71601103D01*
X157668604Y-71716409D01*
X157613192Y-71852876D01*
X157554353Y-71987954D01*
X157522884Y-72058509D01*
X157478051Y-72163895D01*
X157447240Y-72242818D01*
X157435785Y-72282053D01*
X157436422Y-72285014D01*
X157458150Y-72326639D01*
X157507146Y-72406969D01*
X157578438Y-72518220D01*
X157667054Y-72652605D01*
X157768023Y-72802340D01*
X158100261Y-73289931D01*
X157663771Y-73727149D01*
X157621555Y-73769221D01*
X157492470Y-73895153D01*
X157377107Y-74003754D01*
X157282224Y-74088903D01*
X157214582Y-74144482D01*
X157180938Y-74164368D01*
X157144402Y-74149238D01*
X157067890Y-74105801D01*
X156960196Y-74039270D01*
X156829767Y-73954867D01*
X156685052Y-73857816D01*
X156542910Y-73761964D01*
X156414678Y-73677557D01*
X156310054Y-73610850D01*
X156237171Y-73567024D01*
X156204158Y-73551264D01*
X156202223Y-73551408D01*
X156158369Y-73566945D01*
X156080598Y-73603121D01*
X155984392Y-73652785D01*
X155983381Y-73653329D01*
X155855605Y-73717326D01*
X155768051Y-73748591D01*
X155713726Y-73748677D01*
X155685641Y-73719138D01*
X155673752Y-73690061D01*
X155641668Y-73612188D01*
X155592247Y-73492475D01*
X155528118Y-73337286D01*
X155451911Y-73152984D01*
X155366255Y-72945933D01*
X155273781Y-72722496D01*
X155189962Y-72519226D01*
X155104678Y-72310649D01*
X155029222Y-72124263D01*
X154966126Y-71966407D01*
X154917923Y-71843419D01*
X154887144Y-71761639D01*
X154876322Y-71727406D01*
X154896991Y-71696015D01*
X154954409Y-71643602D01*
X155035688Y-71582704D01*
X155230820Y-71423387D01*
X155405445Y-71219807D01*
X155533235Y-70995808D01*
X155613402Y-70758003D01*
X155645160Y-70513007D01*
X155627722Y-70267433D01*
X155560301Y-70027895D01*
X155442111Y-69801007D01*
X155272364Y-69593383D01*
X155183856Y-69512527D01*
X154971804Y-69369559D01*
X154744905Y-69276352D01*
X154509791Y-69230687D01*
X154273094Y-69230344D01*
X154041446Y-69273105D01*
X153821478Y-69356750D01*
X153619822Y-69479061D01*
X153443111Y-69637817D01*
X153297977Y-69830801D01*
X153191050Y-70055793D01*
X153128964Y-70310575D01*
X153117569Y-70433377D01*
X153133246Y-70699434D01*
X153203846Y-70951856D01*
X153327282Y-71186182D01*
X153501466Y-71397952D01*
X153724311Y-71582704D01*
X153802561Y-71641123D01*
X153861244Y-71694110D01*
X153883678Y-71727356D01*
X153874732Y-71756339D01*
X153845703Y-71833996D01*
X153799026Y-71953451D01*
X153737231Y-72108362D01*
X153662850Y-72292392D01*
X153578412Y-72499200D01*
X153486449Y-72722446D01*
X153402771Y-72924742D01*
X153316366Y-73133686D01*
X153239138Y-73320498D01*
X153173716Y-73478814D01*
X153122731Y-73602269D01*
X153088812Y-73684498D01*
X153074590Y-73719138D01*
X153074425Y-73719548D01*
X153045972Y-73748798D01*
X152991382Y-73748463D01*
X152903609Y-73716980D01*
X152775608Y-73652785D01*
X152765532Y-73647380D01*
X152670481Y-73598750D01*
X152595424Y-73564328D01*
X152555842Y-73551264D01*
X152523400Y-73566702D01*
X152450895Y-73610258D01*
X152346565Y-73676751D01*
X152218539Y-73760998D01*
X152074948Y-73857816D01*
X151933468Y-73952734D01*
X151802611Y-74037490D01*
X151694292Y-74104496D01*
X151616960Y-74148529D01*
X151579062Y-74164368D01*
X151572607Y-74162357D01*
X151527609Y-74130658D01*
X151450727Y-74065181D01*
X151348721Y-73972048D01*
X151228351Y-73857381D01*
X151096379Y-73727300D01*
X150660039Y-73290232D01*
X151339733Y-72290440D01*
X151236402Y-72066886D01*
X151236096Y-72066225D01*
X151174046Y-71923714D01*
X151110640Y-71765018D01*
X151059558Y-71624368D01*
X151051827Y-71601683D01*
X151012852Y-71496370D01*
X150977707Y-71414534D01*
X150953195Y-71372301D01*
X150943212Y-71366337D01*
X150883286Y-71346329D01*
X150781532Y-71320442D01*
X150649068Y-71291370D01*
X150497011Y-71261806D01*
X150451466Y-71253467D01*
X150286685Y-71223107D01*
X150132930Y-71194509D01*
X150005678Y-71170564D01*
X149920402Y-71154160D01*
X149767126Y-71123906D01*
X149767126Y-70485645D01*
X149767160Y-70407165D01*
X149767808Y-70215703D01*
X149769720Y-70072812D01*
X149773469Y-69971189D01*
X149779622Y-69903531D01*
X149788751Y-69862536D01*
X149801427Y-69840900D01*
X149818218Y-69831320D01*
X149834474Y-69827439D01*
X149900748Y-69813710D01*
X150006479Y-69792745D01*
X150140915Y-69766588D01*
X150293302Y-69737283D01*
X150452890Y-69706877D01*
X150608925Y-69677413D01*
X150750657Y-69650937D01*
X150867331Y-69629494D01*
X150948197Y-69615128D01*
X150982503Y-69609885D01*
X150984822Y-69606720D01*
X151003474Y-69565642D01*
X151035753Y-69487044D01*
X151076391Y-69383621D01*
X151132788Y-69244273D01*
X151202214Y-69083226D01*
X151267288Y-68941291D01*
X151282202Y-68909432D01*
X151324047Y-68809669D01*
X151349118Y-68732721D01*
X151352426Y-68693130D01*
X151350720Y-68690325D01*
X151323631Y-68649005D01*
X151269927Y-68568740D01*
X151194877Y-68457350D01*
X151103746Y-68322655D01*
X151001800Y-68172476D01*
X150886930Y-68001851D01*
X150800761Y-67869311D01*
X150742131Y-67772112D01*
X150707650Y-67704234D01*
X150693926Y-67659656D01*
X150697568Y-67632361D01*
X150698794Y-67630313D01*
X150731747Y-67590536D01*
X150798927Y-67518052D01*
X150893419Y-67420046D01*
X151008306Y-67303702D01*
X151136672Y-67176205D01*
X151269831Y-67046821D01*
X151400269Y-66925209D01*
X151496119Y-66843156D01*
X151559866Y-66798560D01*
X151593996Y-66789317D01*
X151598456Y-66791393D01*
X151645421Y-66819385D01*
X151730685Y-66874084D01*
X151846259Y-66950237D01*
X151984154Y-67042592D01*
X152136381Y-67145897D01*
X152632610Y-67484765D01*
X152856707Y-67383056D01*
X152863219Y-67380109D01*
X153000804Y-67320504D01*
X153146767Y-67261222D01*
X153270575Y-67214685D01*
X153271122Y-67214493D01*
X153369414Y-67178497D01*
X153445081Y-67148095D01*
X153481780Y-67129852D01*
X153482374Y-67129190D01*
X153494833Y-67091831D01*
X153515336Y-67006871D01*
X153541907Y-66883469D01*
X153572567Y-66730782D01*
X153605336Y-66557967D01*
X153606478Y-66551774D01*
X153639193Y-66375431D01*
X153669155Y-66215743D01*
X153694425Y-66082905D01*
X153713065Y-65987113D01*
X153723135Y-65938563D01*
X153723779Y-65935873D01*
X153730408Y-65915088D01*
X153743841Y-65899466D01*
X153771446Y-65888270D01*
X153820593Y-65880762D01*
X153898653Y-65876205D01*
X154012994Y-65873863D01*
X154170986Y-65872998D01*
X154380000Y-65872874D01*
X154406262Y-65872874D01*
X154609175Y-65873045D01*
X150799876Y-75359840D02*
X150795421Y-75436653D01*
X150795421Y-75436653D02*
X150791929Y-75553391D01*
X150791929Y-75553391D02*
X150789685Y-75700821D01*
X150789685Y-75700821D02*
X150788965Y-75855455D01*
X150788965Y-75855455D02*
X150788965Y-76378727D01*
X150788965Y-76378727D02*
X150881355Y-76471117D01*
X150881355Y-76471117D02*
X150945022Y-76528047D01*
X150945022Y-76528047D02*
X151000911Y-76551107D01*
X151000911Y-76551107D02*
X151077298Y-76549647D01*
X151077298Y-76549647D02*
X151107620Y-76545934D01*
X151107620Y-76545934D02*
X151202390Y-76535126D01*
X151202390Y-76535126D02*
X151280778Y-76528933D01*
X151280778Y-76528933D02*
X151299885Y-76528361D01*
X151299885Y-76528361D02*
X151364301Y-76532102D01*
X151364301Y-76532102D02*
X151456429Y-76541494D01*
X151456429Y-76541494D02*
X151492150Y-76545934D01*
X151492150Y-76545934D02*
X151579886Y-76552801D01*
X151579886Y-76552801D02*
X151638847Y-76537885D01*
X151638847Y-76537885D02*
X151697310Y-76491835D01*
X151697310Y-76491835D02*
X151718415Y-76471117D01*
X151718415Y-76471117D02*
X151810805Y-76378727D01*
X151810805Y-76378727D02*
X151810805Y-75399947D01*
X151810805Y-75399947D02*
X151736442Y-75366066D01*
X151736442Y-75366066D02*
X151672410Y-75340970D01*
X151672410Y-75340970D02*
X151634948Y-75332184D01*
X151634948Y-75332184D02*
X151625343Y-75359950D01*
X151625343Y-75359950D02*
X151616365Y-75437530D01*
X151616365Y-75437530D02*
X151608614Y-75556348D01*
X151608614Y-75556348D02*
X151602686Y-75707828D01*
X151602686Y-75707828D02*
X151599827Y-75835805D01*
X151599827Y-75835805D02*
X151591839Y-76339425D01*
X151591839Y-76339425D02*
X151522152Y-76349278D01*
X151522152Y-76349278D02*
X151458771Y-76342389D01*
X151458771Y-76342389D02*
X151427714Y-76320083D01*
X151427714Y-76320083D02*
X151419033Y-76278379D01*
X151419033Y-76278379D02*
X151411622Y-76189544D01*
X151411622Y-76189544D02*
X151406069Y-76064834D01*
X151406069Y-76064834D02*
X151402964Y-75915507D01*
X151402964Y-75915507D02*
X151402516Y-75838661D01*
X151402516Y-75838661D02*
X151402069Y-75396287D01*
X151402069Y-75396287D02*
X151310126Y-75364235D01*
X151310126Y-75364235D02*
X151245051Y-75342443D01*
X151245051Y-75342443D02*
X151209653Y-75332281D01*
X151209653Y-75332281D02*
X151208632Y-75332184D01*
X151208632Y-75332184D02*
X151205080Y-75359809D01*
X151205080Y-75359809D02*
X151201177Y-75436411D01*
X151201177Y-75436411D02*
X151197249Y-75552579D01*
X151197249Y-75552579D02*
X151193624Y-75698904D01*
X151193624Y-75698904D02*
X151191092Y-75835805D01*
X151191092Y-75835805D02*
X151183103Y-76339425D01*
X151183103Y-76339425D02*
X151007931Y-76339425D01*
X151007931Y-76339425D02*
X150999893Y-75879965D01*
X150999893Y-75879965D02*
X150991854Y-75420505D01*
X150991854Y-75420505D02*
X150906457Y-75376344D01*
X150906457Y-75376344D02*
X150843407Y-75346019D01*
X150843407Y-75346019D02*
X150806090Y-75332258D01*
X150806090Y-75332258D02*
X150805013Y-75332184D01*
X150805013Y-75332184D02*
X150799876Y-75359840D01*
X150799876Y-75359840D02*
X150799876Y-75359840D01*
G36*
X151672410Y-75340970D02*
G01*
X151736442Y-75366066D01*
X151810805Y-75399947D01*
X151810805Y-76378727D01*
X151718415Y-76471117D01*
X151697310Y-76491835D01*
X151638847Y-76537885D01*
X151579886Y-76552801D01*
X151492150Y-76545934D01*
X151456429Y-76541494D01*
X151364301Y-76532102D01*
X151299885Y-76528361D01*
X151280778Y-76528933D01*
X151202390Y-76535126D01*
X151107620Y-76545934D01*
X151077298Y-76549647D01*
X151000911Y-76551107D01*
X150945022Y-76528047D01*
X150881355Y-76471117D01*
X150788965Y-76378727D01*
X150788965Y-75855455D01*
X150789685Y-75700821D01*
X150791929Y-75553391D01*
X150795421Y-75436653D01*
X150799876Y-75359840D01*
X150805013Y-75332184D01*
X150806090Y-75332258D01*
X150843407Y-75346019D01*
X150906457Y-75376344D01*
X150991854Y-75420505D01*
X150999893Y-75879965D01*
X151007931Y-76339425D01*
X151183103Y-76339425D01*
X151191092Y-75835805D01*
X151193624Y-75698904D01*
X151197249Y-75552579D01*
X151201177Y-75436411D01*
X151205080Y-75359809D01*
X151208632Y-75332184D01*
X151209653Y-75332281D01*
X151245051Y-75342443D01*
X151310126Y-75364235D01*
X151402069Y-75396287D01*
X151402516Y-75838661D01*
X151402964Y-75915507D01*
X151406069Y-76064834D01*
X151411622Y-76189544D01*
X151419033Y-76278379D01*
X151427714Y-76320083D01*
X151458771Y-76342389D01*
X151522152Y-76349278D01*
X151591839Y-76339425D01*
X151599827Y-75835805D01*
X151602686Y-75707828D01*
X151608614Y-75556348D01*
X151616365Y-75437530D01*
X151625343Y-75359950D01*
X151634948Y-75332184D01*
X151672410Y-75340970D01*
G37*
X151672410Y-75340970D02*
X151736442Y-75366066D01*
X151810805Y-75399947D01*
X151810805Y-76378727D01*
X151718415Y-76471117D01*
X151697310Y-76491835D01*
X151638847Y-76537885D01*
X151579886Y-76552801D01*
X151492150Y-76545934D01*
X151456429Y-76541494D01*
X151364301Y-76532102D01*
X151299885Y-76528361D01*
X151280778Y-76528933D01*
X151202390Y-76535126D01*
X151107620Y-76545934D01*
X151077298Y-76549647D01*
X151000911Y-76551107D01*
X150945022Y-76528047D01*
X150881355Y-76471117D01*
X150788965Y-76378727D01*
X150788965Y-75855455D01*
X150789685Y-75700821D01*
X150791929Y-75553391D01*
X150795421Y-75436653D01*
X150799876Y-75359840D01*
X150805013Y-75332184D01*
X150806090Y-75332258D01*
X150843407Y-75346019D01*
X150906457Y-75376344D01*
X150991854Y-75420505D01*
X150999893Y-75879965D01*
X151007931Y-76339425D01*
X151183103Y-76339425D01*
X151191092Y-75835805D01*
X151193624Y-75698904D01*
X151197249Y-75552579D01*
X151201177Y-75436411D01*
X151205080Y-75359809D01*
X151208632Y-75332184D01*
X151209653Y-75332281D01*
X151245051Y-75342443D01*
X151310126Y-75364235D01*
X151402069Y-75396287D01*
X151402516Y-75838661D01*
X151402964Y-75915507D01*
X151406069Y-76064834D01*
X151411622Y-76189544D01*
X151419033Y-76278379D01*
X151427714Y-76320083D01*
X151458771Y-76342389D01*
X151522152Y-76349278D01*
X151591839Y-76339425D01*
X151599827Y-75835805D01*
X151602686Y-75707828D01*
X151608614Y-75556348D01*
X151616365Y-75437530D01*
X151625343Y-75359950D01*
X151634948Y-75332184D01*
X151672410Y-75340970D01*
X154300056Y-75344360D02*
X154185657Y-75386842D01*
X154185657Y-75386842D02*
X154184348Y-75387658D01*
X154184348Y-75387658D02*
X154113597Y-75439730D01*
X154113597Y-75439730D02*
X154061364Y-75500584D01*
X154061364Y-75500584D02*
X154024629Y-75579887D01*
X154024629Y-75579887D02*
X154000366Y-75687309D01*
X154000366Y-75687309D02*
X153985555Y-75832517D01*
X153985555Y-75832517D02*
X153977171Y-76025179D01*
X153977171Y-76025179D02*
X153976436Y-76052628D01*
X153976436Y-76052628D02*
X153965880Y-76466521D01*
X153965880Y-76466521D02*
X154054709Y-76512456D01*
X154054709Y-76512456D02*
X154118982Y-76543498D01*
X154118982Y-76543498D02*
X154157790Y-76558206D01*
X154157790Y-76558206D02*
X154159585Y-76558391D01*
X154159585Y-76558391D02*
X154166300Y-76531250D01*
X154166300Y-76531250D02*
X154171635Y-76458041D01*
X154171635Y-76458041D02*
X154174917Y-76351081D01*
X154174917Y-76351081D02*
X154175632Y-76264469D01*
X154175632Y-76264469D02*
X154175649Y-76124162D01*
X154175649Y-76124162D02*
X154182063Y-76036051D01*
X154182063Y-76036051D02*
X154204420Y-75994025D01*
X154204420Y-75994025D02*
X154252268Y-75991975D01*
X154252268Y-75991975D02*
X154335151Y-76023790D01*
X154335151Y-76023790D02*
X154460287Y-76082272D01*
X154460287Y-76082272D02*
X154552303Y-76130845D01*
X154552303Y-76130845D02*
X154599629Y-76172986D01*
X154599629Y-76172986D02*
X154613542Y-76218916D01*
X154613542Y-76218916D02*
X154613563Y-76221189D01*
X154613563Y-76221189D02*
X154590605Y-76300311D01*
X154590605Y-76300311D02*
X154522630Y-76343055D01*
X154522630Y-76343055D02*
X154418602Y-76349246D01*
X154418602Y-76349246D02*
X154343670Y-76348172D01*
X154343670Y-76348172D02*
X154304161Y-76369753D01*
X154304161Y-76369753D02*
X154279522Y-76421591D01*
X154279522Y-76421591D02*
X154265341Y-76487632D01*
X154265341Y-76487632D02*
X154285777Y-76525104D01*
X154285777Y-76525104D02*
X154293472Y-76530467D01*
X154293472Y-76530467D02*
X154365917Y-76552006D01*
X154365917Y-76552006D02*
X154467367Y-76555055D01*
X154467367Y-76555055D02*
X154571843Y-76540778D01*
X154571843Y-76540778D02*
X154645875Y-76514688D01*
X154645875Y-76514688D02*
X154748228Y-76427785D01*
X154748228Y-76427785D02*
X154806409Y-76306816D01*
X154806409Y-76306816D02*
X154817931Y-76212308D01*
X154817931Y-76212308D02*
X154809138Y-76127062D01*
X154809138Y-76127062D02*
X154777320Y-76057476D01*
X154777320Y-76057476D02*
X154714316Y-75995672D01*
X154714316Y-75995672D02*
X154611969Y-75933772D01*
X154611969Y-75933772D02*
X154462118Y-75863897D01*
X154462118Y-75863897D02*
X154452988Y-75859948D01*
X154452988Y-75859948D02*
X154318003Y-75797588D01*
X154318003Y-75797588D02*
X154234706Y-75746446D01*
X154234706Y-75746446D02*
X154199003Y-75700488D01*
X154199003Y-75700488D02*
X154206797Y-75653683D01*
X154206797Y-75653683D02*
X154253993Y-75599998D01*
X154253993Y-75599998D02*
X154268106Y-75587644D01*
X154268106Y-75587644D02*
X154362641Y-75539741D01*
X154362641Y-75539741D02*
X154460594Y-75541758D01*
X154460594Y-75541758D02*
X154545903Y-75588724D01*
X154545903Y-75588724D02*
X154602504Y-75675669D01*
X154602504Y-75675669D02*
X154607763Y-75692734D01*
X154607763Y-75692734D02*
X154658977Y-75775504D01*
X154658977Y-75775504D02*
X154723963Y-75815372D01*
X154723963Y-75815372D02*
X154817931Y-75854882D01*
X154817931Y-75854882D02*
X154817931Y-75752658D01*
X154817931Y-75752658D02*
X154789347Y-75604072D01*
X154789347Y-75604072D02*
X154704505Y-75467784D01*
X154704505Y-75467784D02*
X154660355Y-75422191D01*
X154660355Y-75422191D02*
X154559995Y-75363674D01*
X154559995Y-75363674D02*
X154432365Y-75337184D01*
X154432365Y-75337184D02*
X154300056Y-75344360D01*
X154300056Y-75344360D02*
X154300056Y-75344360D01*
G36*
X154559995Y-75363674D02*
G01*
X154660355Y-75422191D01*
X154704505Y-75467784D01*
X154789347Y-75604072D01*
X154817931Y-75752658D01*
X154817931Y-75854882D01*
X154723963Y-75815372D01*
X154658977Y-75775504D01*
X154607763Y-75692734D01*
X154602504Y-75675669D01*
X154545903Y-75588724D01*
X154460594Y-75541758D01*
X154362641Y-75539741D01*
X154268106Y-75587644D01*
X154253993Y-75599998D01*
X154206797Y-75653683D01*
X154199003Y-75700488D01*
X154234706Y-75746446D01*
X154318003Y-75797588D01*
X154452988Y-75859948D01*
X154462118Y-75863897D01*
X154611969Y-75933772D01*
X154714316Y-75995672D01*
X154777320Y-76057476D01*
X154809138Y-76127062D01*
X154817931Y-76212308D01*
X154806409Y-76306816D01*
X154748228Y-76427785D01*
X154645875Y-76514688D01*
X154571843Y-76540778D01*
X154467367Y-76555055D01*
X154365917Y-76552006D01*
X154293472Y-76530467D01*
X154285777Y-76525104D01*
X154265341Y-76487632D01*
X154279522Y-76421591D01*
X154304161Y-76369753D01*
X154343670Y-76348172D01*
X154418602Y-76349246D01*
X154522630Y-76343055D01*
X154590605Y-76300311D01*
X154613563Y-76221189D01*
X154613542Y-76218916D01*
X154599629Y-76172986D01*
X154552303Y-76130845D01*
X154460287Y-76082272D01*
X154335151Y-76023790D01*
X154252268Y-75991975D01*
X154204420Y-75994025D01*
X154182063Y-76036051D01*
X154175649Y-76124162D01*
X154175632Y-76264469D01*
X154174917Y-76351081D01*
X154171635Y-76458041D01*
X154166300Y-76531250D01*
X154159585Y-76558391D01*
X154157790Y-76558206D01*
X154118982Y-76543498D01*
X154054709Y-76512456D01*
X153965880Y-76466521D01*
X153976436Y-76052628D01*
X153977171Y-76025179D01*
X153985555Y-75832517D01*
X154000366Y-75687309D01*
X154024629Y-75579887D01*
X154061364Y-75500584D01*
X154113597Y-75439730D01*
X154184348Y-75387658D01*
X154185657Y-75386842D01*
X154300056Y-75344360D01*
X154432365Y-75337184D01*
X154559995Y-75363674D01*
G37*
X154559995Y-75363674D02*
X154660355Y-75422191D01*
X154704505Y-75467784D01*
X154789347Y-75604072D01*
X154817931Y-75752658D01*
X154817931Y-75854882D01*
X154723963Y-75815372D01*
X154658977Y-75775504D01*
X154607763Y-75692734D01*
X154602504Y-75675669D01*
X154545903Y-75588724D01*
X154460594Y-75541758D01*
X154362641Y-75539741D01*
X154268106Y-75587644D01*
X154253993Y-75599998D01*
X154206797Y-75653683D01*
X154199003Y-75700488D01*
X154234706Y-75746446D01*
X154318003Y-75797588D01*
X154452988Y-75859948D01*
X154462118Y-75863897D01*
X154611969Y-75933772D01*
X154714316Y-75995672D01*
X154777320Y-76057476D01*
X154809138Y-76127062D01*
X154817931Y-76212308D01*
X154806409Y-76306816D01*
X154748228Y-76427785D01*
X154645875Y-76514688D01*
X154571843Y-76540778D01*
X154467367Y-76555055D01*
X154365917Y-76552006D01*
X154293472Y-76530467D01*
X154285777Y-76525104D01*
X154265341Y-76487632D01*
X154279522Y-76421591D01*
X154304161Y-76369753D01*
X154343670Y-76348172D01*
X154418602Y-76349246D01*
X154522630Y-76343055D01*
X154590605Y-76300311D01*
X154613563Y-76221189D01*
X154613542Y-76218916D01*
X154599629Y-76172986D01*
X154552303Y-76130845D01*
X154460287Y-76082272D01*
X154335151Y-76023790D01*
X154252268Y-75991975D01*
X154204420Y-75994025D01*
X154182063Y-76036051D01*
X154175649Y-76124162D01*
X154175632Y-76264469D01*
X154174917Y-76351081D01*
X154171635Y-76458041D01*
X154166300Y-76531250D01*
X154159585Y-76558391D01*
X154157790Y-76558206D01*
X154118982Y-76543498D01*
X154054709Y-76512456D01*
X153965880Y-76466521D01*
X153976436Y-76052628D01*
X153977171Y-76025179D01*
X153985555Y-75832517D01*
X154000366Y-75687309D01*
X154024629Y-75579887D01*
X154061364Y-75500584D01*
X154113597Y-75439730D01*
X154184348Y-75387658D01*
X154185657Y-75386842D01*
X154300056Y-75344360D01*
X154432365Y-75337184D01*
X154559995Y-75363674D01*
X149044310Y-75360018D02*
X149009415Y-75375269D01*
X149009415Y-75375269D02*
X148926123Y-75441235D01*
X148926123Y-75441235D02*
X148854897Y-75536618D01*
X148854897Y-75536618D02*
X148810847Y-75638406D01*
X148810847Y-75638406D02*
X148803678Y-75688587D01*
X148803678Y-75688587D02*
X148827715Y-75758647D01*
X148827715Y-75758647D02*
X148880439Y-75795717D01*
X148880439Y-75795717D02*
X148936969Y-75818164D01*
X148936969Y-75818164D02*
X148962854Y-75822300D01*
X148962854Y-75822300D02*
X148975458Y-75792283D01*
X148975458Y-75792283D02*
X149000346Y-75726961D01*
X149000346Y-75726961D02*
X149011265Y-75697445D01*
X149011265Y-75697445D02*
X149072492Y-75595348D01*
X149072492Y-75595348D02*
X149161139Y-75544423D01*
X149161139Y-75544423D02*
X149274807Y-75545989D01*
X149274807Y-75545989D02*
X149283226Y-75547994D01*
X149283226Y-75547994D02*
X149343912Y-75576767D01*
X149343912Y-75576767D02*
X149388526Y-75632859D01*
X149388526Y-75632859D02*
X149418998Y-75723163D01*
X149418998Y-75723163D02*
X149437256Y-75854571D01*
X149437256Y-75854571D02*
X149445229Y-76033974D01*
X149445229Y-76033974D02*
X149445977Y-76129433D01*
X149445977Y-76129433D02*
X149446348Y-76279913D01*
X149446348Y-76279913D02*
X149448777Y-76382495D01*
X149448777Y-76382495D02*
X149455240Y-76447672D01*
X149455240Y-76447672D02*
X149467712Y-76485938D01*
X149467712Y-76485938D02*
X149488167Y-76507785D01*
X149488167Y-76507785D02*
X149518581Y-76523707D01*
X149518581Y-76523707D02*
X149520339Y-76524509D01*
X149520339Y-76524509D02*
X149578909Y-76549272D01*
X149578909Y-76549272D02*
X149607925Y-76558391D01*
X149607925Y-76558391D02*
X149612384Y-76530822D01*
X149612384Y-76530822D02*
X149616201Y-76454620D01*
X149616201Y-76454620D02*
X149619101Y-76339541D01*
X149619101Y-76339541D02*
X149620809Y-76195341D01*
X149620809Y-76195341D02*
X149621149Y-76089814D01*
X149621149Y-76089814D02*
X149619412Y-75885613D01*
X149619412Y-75885613D02*
X149612618Y-75730697D01*
X149612618Y-75730697D02*
X149598393Y-75616024D01*
X149598393Y-75616024D02*
X149574362Y-75532551D01*
X149574362Y-75532551D02*
X149538152Y-75471236D01*
X149538152Y-75471236D02*
X149487388Y-75423034D01*
X149487388Y-75423034D02*
X149437261Y-75389393D01*
X149437261Y-75389393D02*
X149316725Y-75344619D01*
X149316725Y-75344619D02*
X149176443Y-75334521D01*
X149176443Y-75334521D02*
X149044310Y-75360018D01*
X149044310Y-75360018D02*
X149044310Y-75360018D01*
G36*
X149316725Y-75344619D02*
G01*
X149437261Y-75389393D01*
X149487388Y-75423034D01*
X149538152Y-75471236D01*
X149574362Y-75532551D01*
X149598393Y-75616024D01*
X149612618Y-75730697D01*
X149619412Y-75885613D01*
X149621149Y-76089814D01*
X149620809Y-76195341D01*
X149619101Y-76339541D01*
X149616201Y-76454620D01*
X149612384Y-76530822D01*
X149607925Y-76558391D01*
X149578909Y-76549272D01*
X149520339Y-76524509D01*
X149518581Y-76523707D01*
X149488167Y-76507785D01*
X149467712Y-76485938D01*
X149455240Y-76447672D01*
X149448777Y-76382495D01*
X149446348Y-76279913D01*
X149445977Y-76129433D01*
X149445229Y-76033974D01*
X149437256Y-75854571D01*
X149418998Y-75723163D01*
X149388526Y-75632859D01*
X149343912Y-75576767D01*
X149283226Y-75547994D01*
X149274807Y-75545989D01*
X149161139Y-75544423D01*
X149072492Y-75595348D01*
X149011265Y-75697445D01*
X149000346Y-75726961D01*
X148975458Y-75792283D01*
X148962854Y-75822300D01*
X148936969Y-75818164D01*
X148880439Y-75795717D01*
X148827715Y-75758647D01*
X148803678Y-75688587D01*
X148810847Y-75638406D01*
X148854897Y-75536618D01*
X148926123Y-75441235D01*
X149009415Y-75375269D01*
X149044310Y-75360018D01*
X149176443Y-75334521D01*
X149316725Y-75344619D01*
G37*
X149316725Y-75344619D02*
X149437261Y-75389393D01*
X149487388Y-75423034D01*
X149538152Y-75471236D01*
X149574362Y-75532551D01*
X149598393Y-75616024D01*
X149612618Y-75730697D01*
X149619412Y-75885613D01*
X149621149Y-76089814D01*
X149620809Y-76195341D01*
X149619101Y-76339541D01*
X149616201Y-76454620D01*
X149612384Y-76530822D01*
X149607925Y-76558391D01*
X149578909Y-76549272D01*
X149520339Y-76524509D01*
X149518581Y-76523707D01*
X149488167Y-76507785D01*
X149467712Y-76485938D01*
X149455240Y-76447672D01*
X149448777Y-76382495D01*
X149446348Y-76279913D01*
X149445977Y-76129433D01*
X149445229Y-76033974D01*
X149437256Y-75854571D01*
X149418998Y-75723163D01*
X149388526Y-75632859D01*
X149343912Y-75576767D01*
X149283226Y-75547994D01*
X149274807Y-75545989D01*
X149161139Y-75544423D01*
X149072492Y-75595348D01*
X149011265Y-75697445D01*
X149000346Y-75726961D01*
X148975458Y-75792283D01*
X148962854Y-75822300D01*
X148936969Y-75818164D01*
X148880439Y-75795717D01*
X148827715Y-75758647D01*
X148803678Y-75688587D01*
X148810847Y-75638406D01*
X148854897Y-75536618D01*
X148926123Y-75441235D01*
X149009415Y-75375269D01*
X149044310Y-75360018D01*
X149176443Y-75334521D01*
X149316725Y-75344619D01*
X153314057Y-75341920D02*
X153181435Y-75390859D01*
X153181435Y-75390859D02*
X153073990Y-75477419D01*
X153073990Y-75477419D02*
X153031968Y-75538352D01*
X153031968Y-75538352D02*
X152986157Y-75650161D01*
X152986157Y-75650161D02*
X152987109Y-75731006D01*
X152987109Y-75731006D02*
X153035192Y-75785378D01*
X153035192Y-75785378D02*
X153052983Y-75794624D01*
X153052983Y-75794624D02*
X153129796Y-75823450D01*
X153129796Y-75823450D02*
X153169024Y-75816065D01*
X153169024Y-75816065D02*
X153182311Y-75767658D01*
X153182311Y-75767658D02*
X153182988Y-75740920D01*
X153182988Y-75740920D02*
X153207314Y-75642548D01*
X153207314Y-75642548D02*
X153270719Y-75573734D01*
X153270719Y-75573734D02*
X153358846Y-75540498D01*
X153358846Y-75540498D02*
X153457337Y-75548861D01*
X153457337Y-75548861D02*
X153537398Y-75592296D01*
X153537398Y-75592296D02*
X153564439Y-75617072D01*
X153564439Y-75617072D02*
X153583606Y-75647129D01*
X153583606Y-75647129D02*
X153596554Y-75692565D01*
X153596554Y-75692565D02*
X153604936Y-75763476D01*
X153604936Y-75763476D02*
X153610407Y-75869960D01*
X153610407Y-75869960D02*
X153614622Y-76022112D01*
X153614622Y-76022112D02*
X153615713Y-76070287D01*
X153615713Y-76070287D02*
X153619693Y-76235095D01*
X153619693Y-76235095D02*
X153624219Y-76351088D01*
X153624219Y-76351088D02*
X153631005Y-76427833D01*
X153631005Y-76427833D02*
X153641769Y-76474893D01*
X153641769Y-76474893D02*
X153658227Y-76501835D01*
X153658227Y-76501835D02*
X153682094Y-76518223D01*
X153682094Y-76518223D02*
X153697374Y-76525463D01*
X153697374Y-76525463D02*
X153762267Y-76550220D01*
X153762267Y-76550220D02*
X153800466Y-76558391D01*
X153800466Y-76558391D02*
X153813088Y-76531103D01*
X153813088Y-76531103D02*
X153820792Y-76448603D01*
X153820792Y-76448603D02*
X153823620Y-76309941D01*
X153823620Y-76309941D02*
X153821614Y-76114162D01*
X153821614Y-76114162D02*
X153820989Y-76083965D01*
X153820989Y-76083965D02*
X153816579Y-75905349D01*
X153816579Y-75905349D02*
X153811365Y-75774923D01*
X153811365Y-75774923D02*
X153803945Y-75682492D01*
X153803945Y-75682492D02*
X153792918Y-75617858D01*
X153792918Y-75617858D02*
X153776883Y-75570825D01*
X153776883Y-75570825D02*
X153754439Y-75531196D01*
X153754439Y-75531196D02*
X153742698Y-75514215D01*
X153742698Y-75514215D02*
X153675381Y-75439080D01*
X153675381Y-75439080D02*
X153600090Y-75380638D01*
X153600090Y-75380638D02*
X153590872Y-75375536D01*
X153590872Y-75375536D02*
X153455867Y-75335260D01*
X153455867Y-75335260D02*
X153314057Y-75341920D01*
X153314057Y-75341920D02*
X153314057Y-75341920D01*
G36*
X153590872Y-75375536D02*
G01*
X153600090Y-75380638D01*
X153675381Y-75439080D01*
X153742698Y-75514215D01*
X153754439Y-75531196D01*
X153776883Y-75570825D01*
X153792918Y-75617858D01*
X153803945Y-75682492D01*
X153811365Y-75774923D01*
X153816579Y-75905349D01*
X153820989Y-76083965D01*
X153821614Y-76114162D01*
X153823620Y-76309941D01*
X153820792Y-76448603D01*
X153813088Y-76531103D01*
X153800466Y-76558391D01*
X153762267Y-76550220D01*
X153697374Y-76525463D01*
X153682094Y-76518223D01*
X153658227Y-76501835D01*
X153641769Y-76474893D01*
X153631005Y-76427833D01*
X153624219Y-76351088D01*
X153619693Y-76235095D01*
X153615713Y-76070287D01*
X153614622Y-76022112D01*
X153610407Y-75869960D01*
X153604936Y-75763476D01*
X153596554Y-75692565D01*
X153583606Y-75647129D01*
X153564439Y-75617072D01*
X153537398Y-75592296D01*
X153457337Y-75548861D01*
X153358846Y-75540498D01*
X153270719Y-75573734D01*
X153207314Y-75642548D01*
X153182988Y-75740920D01*
X153182311Y-75767658D01*
X153169024Y-75816065D01*
X153129796Y-75823450D01*
X153052983Y-75794624D01*
X153035192Y-75785378D01*
X152987109Y-75731006D01*
X152986157Y-75650161D01*
X153031968Y-75538352D01*
X153073990Y-75477419D01*
X153181435Y-75390859D01*
X153314057Y-75341920D01*
X153455867Y-75335260D01*
X153590872Y-75375536D01*
G37*
X153590872Y-75375536D02*
X153600090Y-75380638D01*
X153675381Y-75439080D01*
X153742698Y-75514215D01*
X153754439Y-75531196D01*
X153776883Y-75570825D01*
X153792918Y-75617858D01*
X153803945Y-75682492D01*
X153811365Y-75774923D01*
X153816579Y-75905349D01*
X153820989Y-76083965D01*
X153821614Y-76114162D01*
X153823620Y-76309941D01*
X153820792Y-76448603D01*
X153813088Y-76531103D01*
X153800466Y-76558391D01*
X153762267Y-76550220D01*
X153697374Y-76525463D01*
X153682094Y-76518223D01*
X153658227Y-76501835D01*
X153641769Y-76474893D01*
X153631005Y-76427833D01*
X153624219Y-76351088D01*
X153619693Y-76235095D01*
X153615713Y-76070287D01*
X153614622Y-76022112D01*
X153610407Y-75869960D01*
X153604936Y-75763476D01*
X153596554Y-75692565D01*
X153583606Y-75647129D01*
X153564439Y-75617072D01*
X153537398Y-75592296D01*
X153457337Y-75548861D01*
X153358846Y-75540498D01*
X153270719Y-75573734D01*
X153207314Y-75642548D01*
X153182988Y-75740920D01*
X153182311Y-75767658D01*
X153169024Y-75816065D01*
X153129796Y-75823450D01*
X153052983Y-75794624D01*
X153035192Y-75785378D01*
X152987109Y-75731006D01*
X152986157Y-75650161D01*
X153031968Y-75538352D01*
X153073990Y-75477419D01*
X153181435Y-75390859D01*
X153314057Y-75341920D01*
X153455867Y-75335260D01*
X153590872Y-75375536D01*
X158064448Y-75304676D02*
X157949342Y-75382111D01*
X157949342Y-75382111D02*
X157860389Y-75493949D01*
X157860389Y-75493949D02*
X157807251Y-75636265D01*
X157807251Y-75636265D02*
X157796503Y-75741015D01*
X157796503Y-75741015D02*
X157797724Y-75784726D01*
X157797724Y-75784726D02*
X157807944Y-75818194D01*
X157807944Y-75818194D02*
X157836039Y-75848179D01*
X157836039Y-75848179D02*
X157890884Y-75881440D01*
X157890884Y-75881440D02*
X157981355Y-75924738D01*
X157981355Y-75924738D02*
X158116328Y-75984833D01*
X158116328Y-75984833D02*
X158117011Y-75985134D01*
X158117011Y-75985134D02*
X158241249Y-76042037D01*
X158241249Y-76042037D02*
X158343127Y-76092565D01*
X158343127Y-76092565D02*
X158412233Y-76131280D01*
X158412233Y-76131280D02*
X158438154Y-76152740D01*
X158438154Y-76152740D02*
X158438161Y-76152913D01*
X158438161Y-76152913D02*
X158415315Y-76199644D01*
X158415315Y-76199644D02*
X158361891Y-76251154D01*
X158361891Y-76251154D02*
X158300558Y-76288261D01*
X158300558Y-76288261D02*
X158269485Y-76295632D01*
X158269485Y-76295632D02*
X158184711Y-76270138D01*
X158184711Y-76270138D02*
X158111707Y-76206291D01*
X158111707Y-76206291D02*
X158076087Y-76136094D01*
X158076087Y-76136094D02*
X158041820Y-76084343D01*
X158041820Y-76084343D02*
X157974697Y-76025409D01*
X157974697Y-76025409D02*
X157895792Y-75974496D01*
X157895792Y-75974496D02*
X157826179Y-75946809D01*
X157826179Y-75946809D02*
X157811623Y-75945287D01*
X157811623Y-75945287D02*
X157795237Y-75970321D01*
X157795237Y-75970321D02*
X157794250Y-76034311D01*
X157794250Y-76034311D02*
X157806292Y-76120593D01*
X157806292Y-76120593D02*
X157828993Y-76212501D01*
X157828993Y-76212501D02*
X157859986Y-76293369D01*
X157859986Y-76293369D02*
X157861552Y-76296509D01*
X157861552Y-76296509D02*
X157954819Y-76426734D01*
X157954819Y-76426734D02*
X158075696Y-76515311D01*
X158075696Y-76515311D02*
X158212973Y-76558786D01*
X158212973Y-76558786D02*
X158355440Y-76553706D01*
X158355440Y-76553706D02*
X158491888Y-76496616D01*
X158491888Y-76496616D02*
X158497955Y-76492602D01*
X158497955Y-76492602D02*
X158605290Y-76395326D01*
X158605290Y-76395326D02*
X158675868Y-76268409D01*
X158675868Y-76268409D02*
X158714926Y-76101526D01*
X158714926Y-76101526D02*
X158720168Y-76054639D01*
X158720168Y-76054639D02*
X158729452Y-75833329D01*
X158729452Y-75833329D02*
X158718322Y-75730124D01*
X158718322Y-75730124D02*
X158438161Y-75730124D01*
X158438161Y-75730124D02*
X158434521Y-75794503D01*
X158434521Y-75794503D02*
X158414611Y-75813291D01*
X158414611Y-75813291D02*
X158364974Y-75799235D01*
X158364974Y-75799235D02*
X158286733Y-75766009D01*
X158286733Y-75766009D02*
X158199274Y-75724359D01*
X158199274Y-75724359D02*
X158197101Y-75723256D01*
X158197101Y-75723256D02*
X158122970Y-75684265D01*
X158122970Y-75684265D02*
X158093219Y-75658244D01*
X158093219Y-75658244D02*
X158100555Y-75630965D01*
X158100555Y-75630965D02*
X158131447Y-75595121D01*
X158131447Y-75595121D02*
X158210040Y-75543251D01*
X158210040Y-75543251D02*
X158294677Y-75539439D01*
X158294677Y-75539439D02*
X158370597Y-75577189D01*
X158370597Y-75577189D02*
X158423035Y-75650001D01*
X158423035Y-75650001D02*
X158438161Y-75730124D01*
X158438161Y-75730124D02*
X158718322Y-75730124D01*
X158718322Y-75730124D02*
X158710356Y-75656261D01*
X158710356Y-75656261D02*
X158661366Y-75515829D01*
X158661366Y-75515829D02*
X158593164Y-75417447D01*
X158593164Y-75417447D02*
X158470065Y-75318030D01*
X158470065Y-75318030D02*
X158334472Y-75268711D01*
X158334472Y-75268711D02*
X158196045Y-75265568D01*
X158196045Y-75265568D02*
X158064448Y-75304676D01*
X158064448Y-75304676D02*
X158064448Y-75304676D01*
G36*
X158720168Y-76054639D02*
G01*
X158714926Y-76101526D01*
X158675868Y-76268409D01*
X158605290Y-76395326D01*
X158497955Y-76492602D01*
X158491888Y-76496616D01*
X158355440Y-76553706D01*
X158212973Y-76558786D01*
X158075696Y-76515311D01*
X157954819Y-76426734D01*
X157861552Y-76296509D01*
X157859986Y-76293369D01*
X157828993Y-76212501D01*
X157806292Y-76120593D01*
X157794250Y-76034311D01*
X157795237Y-75970321D01*
X157811623Y-75945287D01*
X157826179Y-75946809D01*
X157895792Y-75974496D01*
X157974697Y-76025409D01*
X158041820Y-76084343D01*
X158076087Y-76136094D01*
X158111707Y-76206291D01*
X158184711Y-76270138D01*
X158269485Y-76295632D01*
X158300558Y-76288261D01*
X158361891Y-76251154D01*
X158415315Y-76199644D01*
X158438161Y-76152913D01*
X158438154Y-76152740D01*
X158412233Y-76131280D01*
X158343127Y-76092565D01*
X158241249Y-76042037D01*
X158117011Y-75985134D01*
X158116328Y-75984833D01*
X157981355Y-75924738D01*
X157890884Y-75881440D01*
X157836039Y-75848179D01*
X157807944Y-75818194D01*
X157797724Y-75784726D01*
X157796503Y-75741015D01*
X157804996Y-75658244D01*
X158093219Y-75658244D01*
X158122970Y-75684265D01*
X158197101Y-75723256D01*
X158199274Y-75724359D01*
X158286733Y-75766009D01*
X158364974Y-75799235D01*
X158414611Y-75813291D01*
X158434521Y-75794503D01*
X158438161Y-75730124D01*
X158423035Y-75650001D01*
X158370597Y-75577189D01*
X158294677Y-75539439D01*
X158210040Y-75543251D01*
X158131447Y-75595121D01*
X158100555Y-75630965D01*
X158093219Y-75658244D01*
X157804996Y-75658244D01*
X157807251Y-75636265D01*
X157860389Y-75493949D01*
X157949342Y-75382111D01*
X158064448Y-75304676D01*
X158196045Y-75265568D01*
X158334472Y-75268711D01*
X158470065Y-75318030D01*
X158593164Y-75417447D01*
X158661366Y-75515829D01*
X158710356Y-75656261D01*
X158718322Y-75730124D01*
X158729452Y-75833329D01*
X158720168Y-76054639D01*
G37*
X158720168Y-76054639D02*
X158714926Y-76101526D01*
X158675868Y-76268409D01*
X158605290Y-76395326D01*
X158497955Y-76492602D01*
X158491888Y-76496616D01*
X158355440Y-76553706D01*
X158212973Y-76558786D01*
X158075696Y-76515311D01*
X157954819Y-76426734D01*
X157861552Y-76296509D01*
X157859986Y-76293369D01*
X157828993Y-76212501D01*
X157806292Y-76120593D01*
X157794250Y-76034311D01*
X157795237Y-75970321D01*
X157811623Y-75945287D01*
X157826179Y-75946809D01*
X157895792Y-75974496D01*
X157974697Y-76025409D01*
X158041820Y-76084343D01*
X158076087Y-76136094D01*
X158111707Y-76206291D01*
X158184711Y-76270138D01*
X158269485Y-76295632D01*
X158300558Y-76288261D01*
X158361891Y-76251154D01*
X158415315Y-76199644D01*
X158438161Y-76152913D01*
X158438154Y-76152740D01*
X158412233Y-76131280D01*
X158343127Y-76092565D01*
X158241249Y-76042037D01*
X158117011Y-75985134D01*
X158116328Y-75984833D01*
X157981355Y-75924738D01*
X157890884Y-75881440D01*
X157836039Y-75848179D01*
X157807944Y-75818194D01*
X157797724Y-75784726D01*
X157796503Y-75741015D01*
X157804996Y-75658244D01*
X158093219Y-75658244D01*
X158122970Y-75684265D01*
X158197101Y-75723256D01*
X158199274Y-75724359D01*
X158286733Y-75766009D01*
X158364974Y-75799235D01*
X158414611Y-75813291D01*
X158434521Y-75794503D01*
X158438161Y-75730124D01*
X158423035Y-75650001D01*
X158370597Y-75577189D01*
X158294677Y-75539439D01*
X158210040Y-75543251D01*
X158131447Y-75595121D01*
X158100555Y-75630965D01*
X158093219Y-75658244D01*
X157804996Y-75658244D01*
X157807251Y-75636265D01*
X157860389Y-75493949D01*
X157949342Y-75382111D01*
X158064448Y-75304676D01*
X158196045Y-75265568D01*
X158334472Y-75268711D01*
X158470065Y-75318030D01*
X158593164Y-75417447D01*
X158661366Y-75515829D01*
X158710356Y-75656261D01*
X158718322Y-75730124D01*
X158729452Y-75833329D01*
X158720168Y-76054639D01*
X155635402Y-75143857D02*
X155626846Y-75263188D01*
X155626846Y-75263188D02*
X155617019Y-75333506D01*
X155617019Y-75333506D02*
X155603401Y-75364179D01*
X155603401Y-75364179D02*
X155583473Y-75364571D01*
X155583473Y-75364571D02*
X155577011Y-75360910D01*
X155577011Y-75360910D02*
X155491060Y-75334398D01*
X155491060Y-75334398D02*
X155379255Y-75335946D01*
X155379255Y-75335946D02*
X155265586Y-75363199D01*
X155265586Y-75363199D02*
X155194490Y-75398455D01*
X155194490Y-75398455D02*
X155121595Y-75454778D01*
X155121595Y-75454778D02*
X155068307Y-75518519D01*
X155068307Y-75518519D02*
X155031725Y-75599510D01*
X155031725Y-75599510D02*
X155008950Y-75707586D01*
X155008950Y-75707586D02*
X154997081Y-75852580D01*
X154997081Y-75852580D02*
X154993218Y-76044326D01*
X154993218Y-76044326D02*
X154993149Y-76081109D01*
X154993149Y-76081109D02*
X154993103Y-76494288D01*
X154993103Y-76494288D02*
X155085046Y-76526339D01*
X155085046Y-76526339D02*
X155150348Y-76548144D01*
X155150348Y-76548144D02*
X155186176Y-76558297D01*
X155186176Y-76558297D02*
X155187230Y-76558391D01*
X155187230Y-76558391D02*
X155190758Y-76530860D01*
X155190758Y-76530860D02*
X155193761Y-76454923D01*
X155193761Y-76454923D02*
X155196010Y-76340565D01*
X155196010Y-76340565D02*
X155197276Y-76197769D01*
X155197276Y-76197769D02*
X155197471Y-76110951D01*
X155197471Y-76110951D02*
X155197877Y-75939773D01*
X155197877Y-75939773D02*
X155199968Y-75817088D01*
X155199968Y-75817088D02*
X155205053Y-75733000D01*
X155205053Y-75733000D02*
X155214440Y-75677614D01*
X155214440Y-75677614D02*
X155229439Y-75641032D01*
X155229439Y-75641032D02*
X155251358Y-75613359D01*
X155251358Y-75613359D02*
X155265043Y-75600032D01*
X155265043Y-75600032D02*
X155359051Y-75546328D01*
X155359051Y-75546328D02*
X155461636Y-75542307D01*
X155461636Y-75542307D02*
X155554710Y-75587725D01*
X155554710Y-75587725D02*
X155571922Y-75604123D01*
X155571922Y-75604123D02*
X155597168Y-75634957D01*
X155597168Y-75634957D02*
X155614680Y-75671531D01*
X155614680Y-75671531D02*
X155625858Y-75724415D01*
X155625858Y-75724415D02*
X155632104Y-75804177D01*
X155632104Y-75804177D02*
X155634818Y-75921385D01*
X155634818Y-75921385D02*
X155635402Y-76082991D01*
X155635402Y-76082991D02*
X155635402Y-76494288D01*
X155635402Y-76494288D02*
X155727345Y-76526339D01*
X155727345Y-76526339D02*
X155792647Y-76548144D01*
X155792647Y-76548144D02*
X155828475Y-76558297D01*
X155828475Y-76558297D02*
X155829529Y-76558391D01*
X155829529Y-76558391D02*
X155832225Y-76530448D01*
X155832225Y-76530448D02*
X155834655Y-76451630D01*
X155834655Y-76451630D02*
X155836722Y-76329453D01*
X155836722Y-76329453D02*
X155838329Y-76171432D01*
X155838329Y-76171432D02*
X155839377Y-75985083D01*
X155839377Y-75985083D02*
X155839769Y-75777920D01*
X155839769Y-75777920D02*
X155839770Y-75768706D01*
X155839770Y-75768706D02*
X155839770Y-74979020D01*
X155839770Y-74979020D02*
X155744885Y-74938997D01*
X155744885Y-74938997D02*
X155650000Y-74898973D01*
X155650000Y-74898973D02*
X155635402Y-75143857D01*
X155635402Y-75143857D02*
X155635402Y-75143857D01*
G36*
X155744885Y-74938997D02*
G01*
X155839770Y-74979020D01*
X155839770Y-75768706D01*
X155839769Y-75777920D01*
X155839377Y-75985083D01*
X155838329Y-76171432D01*
X155836722Y-76329453D01*
X155834655Y-76451630D01*
X155832225Y-76530448D01*
X155829529Y-76558391D01*
X155828475Y-76558297D01*
X155792647Y-76548144D01*
X155727345Y-76526339D01*
X155635402Y-76494288D01*
X155635402Y-76082991D01*
X155634818Y-75921385D01*
X155632104Y-75804177D01*
X155625858Y-75724415D01*
X155614680Y-75671531D01*
X155597168Y-75634957D01*
X155571922Y-75604123D01*
X155554710Y-75587725D01*
X155461636Y-75542307D01*
X155359051Y-75546328D01*
X155265043Y-75600032D01*
X155251358Y-75613359D01*
X155229439Y-75641032D01*
X155214440Y-75677614D01*
X155205053Y-75733000D01*
X155199968Y-75817088D01*
X155197877Y-75939773D01*
X155197471Y-76110951D01*
X155197276Y-76197769D01*
X155196010Y-76340565D01*
X155193761Y-76454923D01*
X155190758Y-76530860D01*
X155187230Y-76558391D01*
X155186176Y-76558297D01*
X155150348Y-76548144D01*
X155085046Y-76526339D01*
X154993103Y-76494288D01*
X154993149Y-76081109D01*
X154993218Y-76044326D01*
X154997081Y-75852580D01*
X155008950Y-75707586D01*
X155031725Y-75599510D01*
X155068307Y-75518519D01*
X155121595Y-75454778D01*
X155194490Y-75398455D01*
X155265586Y-75363199D01*
X155379255Y-75335946D01*
X155491060Y-75334398D01*
X155577011Y-75360910D01*
X155583473Y-75364571D01*
X155603401Y-75364179D01*
X155617019Y-75333506D01*
X155626846Y-75263188D01*
X155635402Y-75143857D01*
X155650000Y-74898973D01*
X155744885Y-74938997D01*
G37*
X155744885Y-74938997D02*
X155839770Y-74979020D01*
X155839770Y-75768706D01*
X155839769Y-75777920D01*
X155839377Y-75985083D01*
X155838329Y-76171432D01*
X155836722Y-76329453D01*
X155834655Y-76451630D01*
X155832225Y-76530448D01*
X155829529Y-76558391D01*
X155828475Y-76558297D01*
X155792647Y-76548144D01*
X155727345Y-76526339D01*
X155635402Y-76494288D01*
X155635402Y-76082991D01*
X155634818Y-75921385D01*
X155632104Y-75804177D01*
X155625858Y-75724415D01*
X155614680Y-75671531D01*
X155597168Y-75634957D01*
X155571922Y-75604123D01*
X155554710Y-75587725D01*
X155461636Y-75542307D01*
X155359051Y-75546328D01*
X155265043Y-75600032D01*
X155251358Y-75613359D01*
X155229439Y-75641032D01*
X155214440Y-75677614D01*
X155205053Y-75733000D01*
X155199968Y-75817088D01*
X155197877Y-75939773D01*
X155197471Y-76110951D01*
X155197276Y-76197769D01*
X155196010Y-76340565D01*
X155193761Y-76454923D01*
X155190758Y-76530860D01*
X155187230Y-76558391D01*
X155186176Y-76558297D01*
X155150348Y-76548144D01*
X155085046Y-76526339D01*
X154993103Y-76494288D01*
X154993149Y-76081109D01*
X154993218Y-76044326D01*
X154997081Y-75852580D01*
X155008950Y-75707586D01*
X155031725Y-75599510D01*
X155068307Y-75518519D01*
X155121595Y-75454778D01*
X155194490Y-75398455D01*
X155265586Y-75363199D01*
X155379255Y-75335946D01*
X155491060Y-75334398D01*
X155577011Y-75360910D01*
X155583473Y-75364571D01*
X155603401Y-75364179D01*
X155617019Y-75333506D01*
X155626846Y-75263188D01*
X155635402Y-75143857D01*
X155650000Y-74898973D01*
X155744885Y-74938997D01*
D11*
%TO.C,J2*%
X107337500Y-66935000D02*
X98217500Y-66935000D01*
X107337500Y-71035000D02*
X98217500Y-71035000D01*
X98217500Y-61235000D02*
X98217500Y-76735000D01*
X113957500Y-65945000D02*
X113957500Y-66945000D01*
X112957500Y-66445000D02*
X113957500Y-65945000D01*
X107337500Y-76735000D02*
X107337500Y-61235000D01*
X107337500Y-61235000D02*
X98217500Y-61235000D01*
X98217500Y-76735000D02*
X107337500Y-76735000D01*
X113957500Y-66945000D02*
X112957500Y-66445000D01*
%TD*%
M02*
