%TF.GenerationSoftware,KiCad,Pcbnew,(6.0.2)*%
%TF.CreationDate,2022-05-21T08:25:36-07:00*%
%TF.ProjectId,muffin,6d756666-696e-42e6-9b69-6361645f7063,rev?*%
%TF.SameCoordinates,Original*%
%TF.FileFunction,Paste,Top*%
%TF.FilePolarity,Positive*%
%FSLAX46Y46*%
G04 Gerber Fmt 4.6, Leading zero omitted, Abs format (unit mm)*
G04 Created by KiCad (PCBNEW (6.0.2)) date 2022-05-21 08:25:36*
%MOMM*%
%LPD*%
G01*
G04 APERTURE LIST*
G04 Aperture macros list*
%AMRoundRect*
0 Rectangle with rounded corners*
0 $1 Rounding radius*
0 $2 $3 $4 $5 $6 $7 $8 $9 X,Y pos of 4 corners*
0 Add a 4 corners polygon primitive as box body*
4,1,4,$2,$3,$4,$5,$6,$7,$8,$9,$2,$3,0*
0 Add four circle primitives for the rounded corners*
1,1,$1+$1,$2,$3*
1,1,$1+$1,$4,$5*
1,1,$1+$1,$6,$7*
1,1,$1+$1,$8,$9*
0 Add four rect primitives between the rounded corners*
20,1,$1+$1,$2,$3,$4,$5,0*
20,1,$1+$1,$4,$5,$6,$7,0*
20,1,$1+$1,$6,$7,$8,$9,0*
20,1,$1+$1,$8,$9,$2,$3,0*%
G04 Aperture macros list end*
%ADD10RoundRect,0.250000X-0.350000X-0.450000X0.350000X-0.450000X0.350000X0.450000X-0.350000X0.450000X0*%
%ADD11RoundRect,0.250000X0.325000X0.450000X-0.325000X0.450000X-0.325000X-0.450000X0.325000X-0.450000X0*%
%ADD12RoundRect,0.250000X-0.337500X-0.475000X0.337500X-0.475000X0.337500X0.475000X-0.337500X0.475000X0*%
%ADD13RoundRect,0.250000X0.337500X0.475000X-0.337500X0.475000X-0.337500X-0.475000X0.337500X-0.475000X0*%
%ADD14RoundRect,0.050000X0.300000X0.725000X-0.300000X0.725000X-0.300000X-0.725000X0.300000X-0.725000X0*%
%ADD15RoundRect,0.050000X0.150000X0.725000X-0.150000X0.725000X-0.150000X-0.725000X0.150000X-0.725000X0*%
%ADD16RoundRect,0.250000X-0.450000X0.350000X-0.450000X-0.350000X0.450000X-0.350000X0.450000X0.350000X0*%
%ADD17RoundRect,0.250000X0.350000X0.450000X-0.350000X0.450000X-0.350000X-0.450000X0.350000X-0.450000X0*%
%ADD18RoundRect,0.250000X-0.275000X0.275000X-0.275000X-0.275000X0.275000X-0.275000X0.275000X0.275000X0*%
%ADD19RoundRect,0.062500X-0.062500X0.475000X-0.062500X-0.475000X0.062500X-0.475000X0.062500X0.475000X0*%
%ADD20RoundRect,0.062500X-0.475000X0.062500X-0.475000X-0.062500X0.475000X-0.062500X0.475000X0.062500X0*%
%ADD21RoundRect,0.250000X0.450000X-0.350000X0.450000X0.350000X-0.450000X0.350000X-0.450000X-0.350000X0*%
%ADD22R,0.700000X1.000000*%
%ADD23R,0.700000X0.600000*%
%ADD24RoundRect,0.250000X-0.325000X-0.450000X0.325000X-0.450000X0.325000X0.450000X-0.325000X0.450000X0*%
G04 APERTURE END LIST*
D10*
%TO.C,R3*%
X122158000Y-50690000D03*
X124158000Y-50690000D03*
%TD*%
D11*
%TO.C,D6*%
X151132500Y-86520000D03*
X149082500Y-86520000D03*
%TD*%
D12*
%TO.C,C1*%
X143782500Y-59740000D03*
X145857500Y-59740000D03*
%TD*%
D13*
%TO.C,C7*%
X118147500Y-66600000D03*
X116072500Y-66600000D03*
%TD*%
D10*
%TO.C,R4*%
X147550000Y-66130000D03*
X149550000Y-66130000D03*
%TD*%
D12*
%TO.C,C4*%
X143742500Y-62710000D03*
X145817500Y-62710000D03*
%TD*%
D11*
%TO.C,D2*%
X137145000Y-82540000D03*
X135095000Y-82540000D03*
%TD*%
D14*
%TO.C,J1*%
X134515000Y-48102500D03*
X133740000Y-48102500D03*
D15*
X132540000Y-48102500D03*
X131540000Y-48102500D03*
X131040000Y-48102500D03*
X130040000Y-48102500D03*
D14*
X128840000Y-48102500D03*
X128065000Y-48102500D03*
X128065000Y-48102500D03*
X128840000Y-48102500D03*
D15*
X129540000Y-48102500D03*
X130540000Y-48102500D03*
X132040000Y-48102500D03*
X133040000Y-48102500D03*
D14*
X133740000Y-48102500D03*
X134515000Y-48102500D03*
%TD*%
D13*
%TO.C,C2*%
X133427500Y-74040000D03*
X131352500Y-74040000D03*
%TD*%
D11*
%TO.C,D10*%
X156412500Y-71030000D03*
X154362500Y-71030000D03*
%TD*%
D16*
%TO.C,R8*%
X132830000Y-56380000D03*
X132830000Y-58380000D03*
%TD*%
D11*
%TO.C,D1*%
X131520000Y-82510000D03*
X129470000Y-82510000D03*
%TD*%
%TO.C,D8*%
X156375000Y-66107500D03*
X154325000Y-66107500D03*
%TD*%
%TO.C,D9*%
X156382500Y-68580000D03*
X154332500Y-68580000D03*
%TD*%
D13*
%TO.C,C8*%
X127177500Y-57720000D03*
X125102500Y-57720000D03*
%TD*%
D17*
%TO.C,R2*%
X125660000Y-45137500D03*
X123660000Y-45137500D03*
%TD*%
D18*
%TO.C,U1*%
X138140000Y-69040000D03*
X136840000Y-69040000D03*
X138140000Y-70340000D03*
X135540000Y-66440000D03*
X135540000Y-69040000D03*
X138140000Y-66440000D03*
X139440000Y-67740000D03*
X139440000Y-69040000D03*
X136840000Y-67740000D03*
X136840000Y-70340000D03*
X135540000Y-70340000D03*
X135540000Y-67740000D03*
X138140000Y-67740000D03*
X139440000Y-70340000D03*
X139440000Y-66440000D03*
X136840000Y-66440000D03*
D19*
X139990000Y-65052500D03*
X139490000Y-65052500D03*
X138990000Y-65052500D03*
X138490000Y-65052500D03*
X137990000Y-65052500D03*
X137490000Y-65052500D03*
X136990000Y-65052500D03*
X136490000Y-65052500D03*
X135990000Y-65052500D03*
X135490000Y-65052500D03*
X134990000Y-65052500D03*
D20*
X134152500Y-65890000D03*
X134152500Y-66390000D03*
X134152500Y-66890000D03*
X134152500Y-67390000D03*
X134152500Y-67890000D03*
X134152500Y-68390000D03*
X134152500Y-68890000D03*
X134152500Y-69390000D03*
X134152500Y-69890000D03*
X134152500Y-70390000D03*
X134152500Y-70890000D03*
D19*
X134990000Y-71727500D03*
X135490000Y-71727500D03*
X135990000Y-71727500D03*
X136490000Y-71727500D03*
X136990000Y-71727500D03*
X137490000Y-71727500D03*
X137990000Y-71727500D03*
X138490000Y-71727500D03*
X138990000Y-71727500D03*
X139490000Y-71727500D03*
X139990000Y-71727500D03*
D20*
X140827500Y-70890000D03*
X140827500Y-70390000D03*
X140827500Y-69890000D03*
X140827500Y-69390000D03*
X140827500Y-68890000D03*
X140827500Y-68390000D03*
X140827500Y-67890000D03*
X140827500Y-67390000D03*
X140827500Y-66890000D03*
X140827500Y-66390000D03*
X140827500Y-65890000D03*
%TD*%
D11*
%TO.C,D3*%
X141780000Y-89470000D03*
X139730000Y-89470000D03*
%TD*%
D13*
%TO.C,C3*%
X128807500Y-61460000D03*
X126732500Y-61460000D03*
%TD*%
D10*
%TO.C,R1*%
X137040000Y-45207500D03*
X139040000Y-45207500D03*
%TD*%
D13*
%TO.C,C5*%
X118097500Y-71550000D03*
X116022500Y-71550000D03*
%TD*%
D11*
%TO.C,D5*%
X146462500Y-81960000D03*
X144412500Y-81960000D03*
%TD*%
D21*
%TO.C,R5*%
X117740000Y-59320000D03*
X117740000Y-57320000D03*
%TD*%
D10*
%TO.C,R9*%
X147540000Y-71000000D03*
X149540000Y-71000000D03*
%TD*%
D22*
%TO.C,D7*%
X130810000Y-51620000D03*
D23*
X130810000Y-53320000D03*
X132810000Y-53320000D03*
X132810000Y-51420000D03*
%TD*%
D10*
%TO.C,R6*%
X147550000Y-68590000D03*
X149550000Y-68590000D03*
%TD*%
D24*
%TO.C,D4*%
X143797500Y-56550000D03*
X145847500Y-56550000D03*
%TD*%
D21*
%TO.C,R7*%
X130820000Y-58400000D03*
X130820000Y-56400000D03*
%TD*%
D13*
%TO.C,C6*%
X113617500Y-55260000D03*
X111542500Y-55260000D03*
%TD*%
M02*
