%TF.GenerationSoftware,KiCad,Pcbnew,(6.0.2)*%
%TF.CreationDate,2022-05-21T08:25:36-07:00*%
%TF.ProjectId,muffin,6d756666-696e-42e6-9b69-6361645f7063,rev?*%
%TF.SameCoordinates,Original*%
%TF.FileFunction,Soldermask,Bot*%
%TF.FilePolarity,Negative*%
%FSLAX46Y46*%
G04 Gerber Fmt 4.6, Leading zero omitted, Abs format (unit mm)*
G04 Created by KiCad (PCBNEW (6.0.2)) date 2022-05-21 08:25:36*
%MOMM*%
%LPD*%
G01*
G04 APERTURE LIST*
G04 Aperture macros list*
%AMRoundRect*
0 Rectangle with rounded corners*
0 $1 Rounding radius*
0 $2 $3 $4 $5 $6 $7 $8 $9 X,Y pos of 4 corners*
0 Add a 4 corners polygon primitive as box body*
4,1,4,$2,$3,$4,$5,$6,$7,$8,$9,$2,$3,0*
0 Add four circle primitives for the rounded corners*
1,1,$1+$1,$2,$3*
1,1,$1+$1,$4,$5*
1,1,$1+$1,$6,$7*
1,1,$1+$1,$8,$9*
0 Add four rect primitives between the rounded corners*
20,1,$1+$1,$2,$3,$4,$5,0*
20,1,$1+$1,$4,$5,$6,$7,0*
20,1,$1+$1,$6,$7,$8,$9,0*
20,1,$1+$1,$8,$9,$2,$3,0*%
%AMHorizOval*
0 Thick line with rounded ends*
0 $1 width*
0 $2 $3 position (X,Y) of the first rounded end (center of the circle)*
0 $4 $5 position (X,Y) of the second rounded end (center of the circle)*
0 Add line between two ends*
20,1,$1,$2,$3,$4,$5,0*
0 Add two circle primitives to create the rounded ends*
1,1,$1,$2,$3*
1,1,$1,$4,$5*%
G04 Aperture macros list end*
%ADD10C,3.352400*%
%ADD11C,1.852400*%
%ADD12C,1.352400*%
%ADD13C,1.902400*%
%ADD14C,4.140200*%
%ADD15C,2.152400*%
%ADD16C,2.402400*%
%ADD17HorizOval,2.402400X0.019771X0.290016X-0.019771X-0.290016X0*%
%ADD18HorizOval,2.402400X0.654995X0.730004X-0.654995X-0.730004X0*%
%ADD19C,3.200400*%
%ADD20HorizOval,2.402400X-0.730004X0.654995X0.730004X-0.654995X0*%
%ADD21HorizOval,2.402400X-0.290016X0.019771X0.290016X-0.019771X0*%
%ADD22C,2.057400*%
%ADD23RoundRect,0.076200X0.952500X-0.952500X0.952500X0.952500X-0.952500X0.952500X-0.952500X-0.952500X0*%
%ADD24C,0.750000*%
%ADD25O,1.100000X2.200000*%
%ADD26O,1.100000X1.700000*%
%ADD27O,3.352400X2.152400*%
%ADD28RoundRect,0.076200X-1.000000X-1.000000X1.000000X-1.000000X1.000000X1.000000X-1.000000X1.000000X0*%
%ADD29C,2.252400*%
%ADD30C,1.652400*%
%ADD31RoundRect,0.351200X-0.475000X-0.275000X0.475000X-0.275000X0.475000X0.275000X-0.475000X0.275000X0*%
%ADD32RoundRect,0.326200X0.600000X0.600000X-0.600000X0.600000X-0.600000X-0.600000X0.600000X-0.600000X0*%
G04 APERTURE END LIST*
D10*
%TO.C,H2*%
X165370000Y-131400000D03*
%TD*%
%TO.C,H4*%
X95580000Y-80310000D03*
%TD*%
D11*
%TO.C,SW3*%
X133262000Y-104648000D03*
X122262000Y-104648000D03*
D12*
X122542000Y-108848000D03*
D13*
X132842000Y-104648000D03*
D14*
X127762000Y-104648000D03*
D13*
X122682000Y-104648000D03*
D15*
X132762000Y-100848000D03*
D16*
X130302000Y-99568000D03*
D17*
X130281771Y-99857984D03*
D15*
X127762000Y-98748000D03*
D16*
X125262000Y-100648000D03*
D18*
X124606995Y-101377996D03*
%TD*%
D11*
%TO.C,SW4*%
X133262000Y-123648000D03*
D13*
X132842000Y-123648000D03*
D12*
X122542000Y-127848000D03*
D14*
X127762000Y-123648000D03*
D13*
X122682000Y-123648000D03*
D11*
X122262000Y-123648000D03*
D15*
X132762000Y-119848000D03*
D17*
X130281771Y-118857984D03*
D16*
X130302000Y-118568000D03*
D15*
X127762000Y-117748000D03*
D16*
X125262000Y-119648000D03*
D18*
X124606995Y-120377996D03*
%TD*%
D14*
%TO.C,SW2*%
X107562000Y-114198000D03*
D11*
X107562000Y-108698000D03*
D14*
X115817000Y-126136000D03*
D13*
X107562000Y-109118000D03*
X107562000Y-119278000D03*
D19*
X100577000Y-102260000D03*
D11*
X107562000Y-119698000D03*
D14*
X115817000Y-102260000D03*
D12*
X111762000Y-119418000D03*
D19*
X100577000Y-126136000D03*
D20*
X104291996Y-117353005D03*
D15*
X101662000Y-114198000D03*
D16*
X103562000Y-116698000D03*
D15*
X103762000Y-109198000D03*
D21*
X102771984Y-111678229D03*
D16*
X102482000Y-111658000D03*
D22*
X112642000Y-115468000D03*
D23*
X112642000Y-112928000D03*
%TD*%
D10*
%TO.C,H1*%
X95520000Y-131400000D03*
%TD*%
D24*
%TO.C,J1*%
X128400000Y-46657500D03*
X134180000Y-46657500D03*
D25*
X135610000Y-47187500D03*
D26*
X135610000Y-43007500D03*
X126970000Y-43007500D03*
D25*
X126970000Y-47187500D03*
%TD*%
D27*
%TO.C,SW1*%
X107816000Y-91350000D03*
X107816000Y-80150000D03*
D28*
X100316000Y-83250000D03*
D15*
X100316000Y-88250000D03*
X100316000Y-85750000D03*
X114816000Y-88250000D03*
X114816000Y-83250000D03*
%TD*%
D12*
%TO.C,SW7*%
X115133000Y-46992500D03*
D29*
X118643000Y-50692500D03*
X111633000Y-50692500D03*
D13*
X112633000Y-48202500D03*
X117633000Y-48202500D03*
%TD*%
D10*
%TO.C,H3*%
X165120000Y-80150000D03*
%TD*%
D11*
%TO.C,SW6*%
X153462000Y-123648000D03*
D13*
X142882000Y-123648000D03*
X153042000Y-123648000D03*
D12*
X142742000Y-127848000D03*
D11*
X142462000Y-123648000D03*
D14*
X147962000Y-123648000D03*
D16*
X150502000Y-118568000D03*
D15*
X152962000Y-119848000D03*
D17*
X150481771Y-118857984D03*
D16*
X145462000Y-119648000D03*
D15*
X147962000Y-117748000D03*
D18*
X144806995Y-120377996D03*
%TD*%
D30*
%TO.C,Y1*%
X122060000Y-71650000D03*
X122060000Y-66770000D03*
%TD*%
D13*
%TO.C,SW5*%
X142882000Y-104648000D03*
D11*
X142462000Y-104648000D03*
X153462000Y-104648000D03*
D13*
X153042000Y-104648000D03*
D12*
X142742000Y-108848000D03*
D14*
X147962000Y-104648000D03*
D15*
X152962000Y-100848000D03*
D17*
X150481771Y-99857984D03*
D16*
X150502000Y-99568000D03*
D15*
X147962000Y-98748000D03*
D16*
X145462000Y-100648000D03*
D18*
X144806995Y-101377996D03*
%TD*%
D31*
%TO.C,SW8*%
X115600000Y-57830000D03*
X124500000Y-57830000D03*
%TD*%
D32*
%TO.C,J2*%
X111607500Y-66445000D03*
D11*
X109067500Y-66445000D03*
X111607500Y-68985000D03*
X109067500Y-68985000D03*
X111607500Y-71525000D03*
X109067500Y-71525000D03*
%TD*%
M02*
