M48
; DRILL file {KiCad (6.0.2)} date Sat May 21 08:25:39 2022
; FORMAT={-:-/ absolute / inch / decimal}
; #@! TF.CreationDate,2022-05-21T08:25:39-07:00
; #@! TF.GenerationSoftware,Kicad,Pcbnew,(6.0.2)
; #@! TF.FileFunction,NonPlated,1,2,NPTH
FMAT,2
INCH
; #@! TA.AperFunction,NonPlated,NPTH,ComponentDrill
T1C0.0256
; #@! TA.AperFunction,NonPlated,NPTH,ComponentDrill
T2C0.0472
; #@! TA.AperFunction,NonPlated,NPTH,ComponentDrill
T3C0.0591
; #@! TA.AperFunction,NonPlated,NPTH,ComponentDrill
T4C0.0669
; #@! TA.AperFunction,NonPlated,NPTH,ComponentDrill
T5C0.0689
; #@! TA.AperFunction,NonPlated,NPTH,ComponentDrill
T6C0.1200
; #@! TA.AperFunction,NonPlated,NPTH,ComponentDrill
T7C0.1260
; #@! TA.AperFunction,NonPlated,NPTH,ComponentDrill
T8C0.1570
%
G90
G05
T1
X5.0551Y-1.8369
X5.2827Y-1.8369
T2
X4.4001Y-4.7015
X4.5328Y-1.8501
X4.8245Y-4.2854
X4.8245Y-5.0334
X5.6198Y-4.2854
X5.6198Y-5.0334
T4
X4.2347Y-4.2794
X4.2347Y-4.7125
X4.8135Y-4.12
X4.8135Y-4.868
X5.2465Y-4.12
X5.2465Y-4.868
X5.6087Y-4.12
X5.6087Y-4.868
X6.0418Y-4.12
X6.0418Y-4.868
T5
X4.2347Y-4.296
X4.2347Y-4.696
X4.83Y-4.12
X4.83Y-4.868
X5.23Y-4.12
X5.23Y-4.868
X5.6253Y-4.12
X5.6253Y-4.868
X6.0253Y-4.12
X6.0253Y-4.868
T6
X3.9597Y-4.026
X3.9597Y-4.966
T7
X3.7606Y-5.1732
X3.763Y-3.1618
X6.5008Y-3.1555
X6.5106Y-5.1732
T8
X4.2347Y-4.496
X4.5597Y-4.026
X4.5597Y-4.966
X5.03Y-4.12
X5.03Y-4.868
X5.8253Y-4.12
X5.8253Y-4.868
T3
G00X4.2191Y-3.1555
M15
G01X4.2703Y-3.1555
M16
G05
G00X4.2191Y-3.5965
M15
G01X4.2703Y-3.5965
M16
G05
T0
M30
