M48
; DRILL file {KiCad (6.0.2)} date Sat May 21 08:25:39 2022
; FORMAT={-:-/ absolute / inch / decimal}
; #@! TF.CreationDate,2022-05-21T08:25:39-07:00
; #@! TF.GenerationSoftware,Kicad,Pcbnew,(6.0.2)
; #@! TF.FileFunction,Plated,1,2,PTH
FMAT,2
INCH
; #@! TA.AperFunction,Plated,PTH,ViaDrill
T1C0.0157
; #@! TA.AperFunction,Plated,PTH,ComponentDrill
T2C0.0236
; #@! TA.AperFunction,Plated,PTH,ComponentDrill
T3C0.0315
; #@! TA.AperFunction,Plated,PTH,ComponentDrill
T4C0.0390
; #@! TA.AperFunction,Plated,PTH,ComponentDrill
T5C0.0390
; #@! TA.AperFunction,Plated,PTH,ComponentDrill
T6C0.0394
; #@! TA.AperFunction,Plated,PTH,ComponentDrill
T7C0.0472
; #@! TA.AperFunction,Plated,PTH,ComponentDrill
T8C0.0512
; #@! TA.AperFunction,Plated,PTH,ComponentDrill
T9C0.0579
%
G90
G05
T1
X4.5508Y-2.2087
X5.0217Y-3.0732
X5.026Y-2.1705
X5.0988Y-3.0732
X5.1118Y-2.811
X5.1173Y-2.75
X5.1472Y-2.5201
X5.2303Y-2.511
X5.2449Y-2.561
X5.2717Y-2.4783
X5.3358Y-2.9004
X5.3476Y-2.9402
X5.3528Y-2.024
X5.3913Y-2.4488
X5.5567Y-2.2287
X5.6331Y-2.7906
X5.7059Y-2.7366
T3
X4.8055Y-2.6287
X4.8055Y-2.8209
T4
X4.4344Y-1.8977
X4.6312Y-1.8977
T5
X4.4347Y-4.446
X4.4347Y-4.546
T6
X3.9494Y-3.2776
X3.9494Y-3.376
X3.9494Y-3.4744
X4.294Y-2.6159
X4.294Y-2.7159
X4.294Y-2.8159
X4.394Y-2.6159
X4.394Y-2.7159
X4.394Y-2.8159
X4.5203Y-3.2776
X4.5203Y-3.4744
T7
X4.0024Y-4.496
X4.0851Y-4.2991
X5.03Y-3.8877
X5.03Y-4.6357
X5.2269Y-3.9704
X5.2269Y-4.7184
X5.8253Y-3.8877
X5.8253Y-4.6357
X6.0221Y-3.9704
X6.0221Y-4.7184
T8
X4.395Y-1.9958
X4.671Y-1.9958
T9
X4.0347Y-4.396
X4.0576Y-4.3976
X4.0772Y-4.5944
X4.1347Y-4.646
X4.88Y-4.02
X4.88Y-4.768
X4.9316Y-3.9625
X4.9316Y-4.7106
X5.1284Y-3.9428
X5.1284Y-4.6909
X5.13Y-3.92
X5.13Y-4.668
X5.6753Y-4.02
X5.6753Y-4.768
X5.7269Y-3.9625
X5.7269Y-4.7106
X5.9237Y-3.9428
X5.9237Y-4.6909
X5.9253Y-3.92
X5.9253Y-4.668
T2
G00X4.9988Y-1.705
M15
G01X4.9988Y-1.6814
M16
G05
G00X4.9988Y-1.8794
M15
G01X4.9988Y-1.8361
M16
G05
G00X5.339Y-1.705
M15
G01X5.339Y-1.6814
M16
G05
G00X5.339Y-1.8794
M15
G01X5.339Y-1.8361
M16
G05
T0
M30
