%TF.GenerationSoftware,KiCad,Pcbnew,(6.0.2)*%
%TF.CreationDate,2022-05-21T08:25:36-07:00*%
%TF.ProjectId,muffin,6d756666-696e-42e6-9b69-6361645f7063,rev?*%
%TF.SameCoordinates,Original*%
%TF.FileFunction,Soldermask,Top*%
%TF.FilePolarity,Negative*%
%FSLAX46Y46*%
G04 Gerber Fmt 4.6, Leading zero omitted, Abs format (unit mm)*
G04 Created by KiCad (PCBNEW (6.0.2)) date 2022-05-21 08:25:36*
%MOMM*%
%LPD*%
G01*
G04 APERTURE LIST*
G04 Aperture macros list*
%AMRoundRect*
0 Rectangle with rounded corners*
0 $1 Rounding radius*
0 $2 $3 $4 $5 $6 $7 $8 $9 X,Y pos of 4 corners*
0 Add a 4 corners polygon primitive as box body*
4,1,4,$2,$3,$4,$5,$6,$7,$8,$9,$2,$3,0*
0 Add four circle primitives for the rounded corners*
1,1,$1+$1,$2,$3*
1,1,$1+$1,$4,$5*
1,1,$1+$1,$6,$7*
1,1,$1+$1,$8,$9*
0 Add four rect primitives between the rounded corners*
20,1,$1+$1,$2,$3,$4,$5,0*
20,1,$1+$1,$4,$5,$6,$7,0*
20,1,$1+$1,$6,$7,$8,$9,0*
20,1,$1+$1,$8,$9,$2,$3,0*%
%AMHorizOval*
0 Thick line with rounded ends*
0 $1 width*
0 $2 $3 position (X,Y) of the first rounded end (center of the circle)*
0 $4 $5 position (X,Y) of the second rounded end (center of the circle)*
0 Add line between two ends*
20,1,$1,$2,$3,$4,$5,0*
0 Add two circle primitives to create the rounded ends*
1,1,$1,$2,$3*
1,1,$1,$4,$5*%
G04 Aperture macros list end*
%ADD10C,3.352400*%
%ADD11C,1.852400*%
%ADD12C,1.352400*%
%ADD13C,1.902400*%
%ADD14C,4.140200*%
%ADD15C,2.152400*%
%ADD16C,2.402400*%
%ADD17HorizOval,2.402400X0.019771X0.290016X-0.019771X-0.290016X0*%
%ADD18HorizOval,2.402400X0.654995X0.730004X-0.654995X-0.730004X0*%
%ADD19RoundRect,0.326200X-0.350000X-0.450000X0.350000X-0.450000X0.350000X0.450000X-0.350000X0.450000X0*%
%ADD20RoundRect,0.326200X0.325000X0.450000X-0.325000X0.450000X-0.325000X-0.450000X0.325000X-0.450000X0*%
%ADD21RoundRect,0.326200X-0.337500X-0.475000X0.337500X-0.475000X0.337500X0.475000X-0.337500X0.475000X0*%
%ADD22RoundRect,0.326200X0.337500X0.475000X-0.337500X0.475000X-0.337500X-0.475000X0.337500X-0.475000X0*%
%ADD23C,3.200400*%
%ADD24HorizOval,2.402400X-0.730004X0.654995X0.730004X-0.654995X0*%
%ADD25HorizOval,2.402400X-0.290016X0.019771X0.290016X-0.019771X0*%
%ADD26C,2.057400*%
%ADD27RoundRect,0.076200X0.952500X-0.952500X0.952500X0.952500X-0.952500X0.952500X-0.952500X-0.952500X0*%
%ADD28C,0.750000*%
%ADD29RoundRect,0.050000X0.300000X0.725000X-0.300000X0.725000X-0.300000X-0.725000X0.300000X-0.725000X0*%
%ADD30RoundRect,0.050000X0.150000X0.725000X-0.150000X0.725000X-0.150000X-0.725000X0.150000X-0.725000X0*%
%ADD31O,1.100000X2.200000*%
%ADD32O,1.100000X1.700000*%
%ADD33O,3.352400X2.152400*%
%ADD34RoundRect,0.076200X-1.000000X-1.000000X1.000000X-1.000000X1.000000X1.000000X-1.000000X1.000000X0*%
%ADD35C,2.252400*%
%ADD36RoundRect,0.326200X-0.450000X0.350000X-0.450000X-0.350000X0.450000X-0.350000X0.450000X0.350000X0*%
%ADD37RoundRect,0.326200X0.350000X0.450000X-0.350000X0.450000X-0.350000X-0.450000X0.350000X-0.450000X0*%
%ADD38RoundRect,0.138700X-0.062500X0.475000X-0.062500X-0.475000X0.062500X-0.475000X0.062500X0.475000X0*%
%ADD39RoundRect,0.138700X-0.475000X0.062500X-0.475000X-0.062500X0.475000X-0.062500X0.475000X0.062500X0*%
%ADD40RoundRect,0.076200X-2.600000X2.600000X-2.600000X-2.600000X2.600000X-2.600000X2.600000X2.600000X0*%
%ADD41RoundRect,0.326200X0.450000X-0.350000X0.450000X0.350000X-0.450000X0.350000X-0.450000X-0.350000X0*%
%ADD42RoundRect,0.076200X-0.350000X-0.500000X0.350000X-0.500000X0.350000X0.500000X-0.350000X0.500000X0*%
%ADD43RoundRect,0.076200X-0.350000X-0.300000X0.350000X-0.300000X0.350000X0.300000X-0.350000X0.300000X0*%
%ADD44C,1.652400*%
%ADD45RoundRect,0.326200X-0.325000X-0.450000X0.325000X-0.450000X0.325000X0.450000X-0.325000X0.450000X0*%
%ADD46RoundRect,0.326200X0.600000X0.600000X-0.600000X0.600000X-0.600000X-0.600000X0.600000X-0.600000X0*%
G04 APERTURE END LIST*
D10*
%TO.C,H2*%
X165370000Y-131400000D03*
%TD*%
%TO.C,H4*%
X95580000Y-80310000D03*
%TD*%
D11*
%TO.C,SW3*%
X133262000Y-104648000D03*
X122262000Y-104648000D03*
D12*
X122542000Y-108848000D03*
D13*
X132842000Y-104648000D03*
D14*
X127762000Y-104648000D03*
D13*
X122682000Y-104648000D03*
D15*
X132762000Y-100848000D03*
D16*
X130302000Y-99568000D03*
D17*
X130281771Y-99857984D03*
D15*
X127762000Y-98748000D03*
D16*
X125262000Y-100648000D03*
D18*
X124606995Y-101377996D03*
%TD*%
D11*
%TO.C,SW4*%
X133262000Y-123648000D03*
D13*
X132842000Y-123648000D03*
D12*
X122542000Y-127848000D03*
D14*
X127762000Y-123648000D03*
D13*
X122682000Y-123648000D03*
D11*
X122262000Y-123648000D03*
D15*
X132762000Y-119848000D03*
D17*
X130281771Y-118857984D03*
D16*
X130302000Y-118568000D03*
D15*
X127762000Y-117748000D03*
D16*
X125262000Y-119648000D03*
D18*
X124606995Y-120377996D03*
%TD*%
D19*
%TO.C,R3*%
X122158000Y-50690000D03*
X124158000Y-50690000D03*
%TD*%
D20*
%TO.C,D6*%
X151132500Y-86520000D03*
X149082500Y-86520000D03*
%TD*%
D21*
%TO.C,C1*%
X143782500Y-59740000D03*
X145857500Y-59740000D03*
%TD*%
D22*
%TO.C,C7*%
X118147500Y-66600000D03*
X116072500Y-66600000D03*
%TD*%
D19*
%TO.C,R4*%
X147550000Y-66130000D03*
X149550000Y-66130000D03*
%TD*%
D14*
%TO.C,SW2*%
X107562000Y-114198000D03*
D11*
X107562000Y-108698000D03*
D14*
X115817000Y-126136000D03*
D13*
X107562000Y-109118000D03*
X107562000Y-119278000D03*
D23*
X100577000Y-102260000D03*
D11*
X107562000Y-119698000D03*
D14*
X115817000Y-102260000D03*
D12*
X111762000Y-119418000D03*
D23*
X100577000Y-126136000D03*
D24*
X104291996Y-117353005D03*
D15*
X101662000Y-114198000D03*
D16*
X103562000Y-116698000D03*
D15*
X103762000Y-109198000D03*
D25*
X102771984Y-111678229D03*
D16*
X102482000Y-111658000D03*
D26*
X112642000Y-115468000D03*
D27*
X112642000Y-112928000D03*
%TD*%
D21*
%TO.C,C4*%
X143742500Y-62710000D03*
X145817500Y-62710000D03*
%TD*%
D20*
%TO.C,D2*%
X137145000Y-82540000D03*
X135095000Y-82540000D03*
%TD*%
D10*
%TO.C,H1*%
X95520000Y-131400000D03*
%TD*%
D28*
%TO.C,J1*%
X128400000Y-46657500D03*
X134180000Y-46657500D03*
D29*
X134515000Y-48102500D03*
X133740000Y-48102500D03*
D30*
X132540000Y-48102500D03*
X131540000Y-48102500D03*
X131040000Y-48102500D03*
X130040000Y-48102500D03*
D29*
X128840000Y-48102500D03*
X128065000Y-48102500D03*
X128065000Y-48102500D03*
X128840000Y-48102500D03*
D30*
X129540000Y-48102500D03*
X130540000Y-48102500D03*
X132040000Y-48102500D03*
X133040000Y-48102500D03*
D29*
X133740000Y-48102500D03*
X134515000Y-48102500D03*
D31*
X135610000Y-47187500D03*
D32*
X135610000Y-43007500D03*
X126970000Y-43007500D03*
D31*
X126970000Y-47187500D03*
%TD*%
D22*
%TO.C,C2*%
X133427500Y-74040000D03*
X131352500Y-74040000D03*
%TD*%
D33*
%TO.C,SW1*%
X107816000Y-91350000D03*
X107816000Y-80150000D03*
D34*
X100316000Y-83250000D03*
D15*
X100316000Y-88250000D03*
X100316000Y-85750000D03*
X114816000Y-88250000D03*
X114816000Y-83250000D03*
%TD*%
D20*
%TO.C,D10*%
X156412500Y-71030000D03*
X154362500Y-71030000D03*
%TD*%
D12*
%TO.C,SW7*%
X115133000Y-46992500D03*
D35*
X118643000Y-50692500D03*
X111633000Y-50692500D03*
D13*
X112633000Y-48202500D03*
X117633000Y-48202500D03*
%TD*%
D36*
%TO.C,R8*%
X132830000Y-56380000D03*
X132830000Y-58380000D03*
%TD*%
D20*
%TO.C,D1*%
X131520000Y-82510000D03*
X129470000Y-82510000D03*
%TD*%
%TO.C,D8*%
X156375000Y-66107500D03*
X154325000Y-66107500D03*
%TD*%
%TO.C,D9*%
X156382500Y-68580000D03*
X154332500Y-68580000D03*
%TD*%
D22*
%TO.C,C8*%
X127177500Y-57720000D03*
X125102500Y-57720000D03*
%TD*%
D37*
%TO.C,R2*%
X125660000Y-45137500D03*
X123660000Y-45137500D03*
%TD*%
D38*
%TO.C,U1*%
X139990000Y-65052500D03*
X139490000Y-65052500D03*
X138990000Y-65052500D03*
X138490000Y-65052500D03*
X137990000Y-65052500D03*
X137490000Y-65052500D03*
X136990000Y-65052500D03*
X136490000Y-65052500D03*
X135990000Y-65052500D03*
X135490000Y-65052500D03*
X134990000Y-65052500D03*
D39*
X134152500Y-65890000D03*
X134152500Y-66390000D03*
X134152500Y-66890000D03*
X134152500Y-67390000D03*
X134152500Y-67890000D03*
X134152500Y-68390000D03*
X134152500Y-68890000D03*
X134152500Y-69390000D03*
X134152500Y-69890000D03*
X134152500Y-70390000D03*
X134152500Y-70890000D03*
D38*
X134990000Y-71727500D03*
X135490000Y-71727500D03*
X135990000Y-71727500D03*
X136490000Y-71727500D03*
X136990000Y-71727500D03*
X137490000Y-71727500D03*
X137990000Y-71727500D03*
X138490000Y-71727500D03*
X138990000Y-71727500D03*
X139490000Y-71727500D03*
X139990000Y-71727500D03*
D39*
X140827500Y-70890000D03*
X140827500Y-70390000D03*
X140827500Y-69890000D03*
X140827500Y-69390000D03*
X140827500Y-68890000D03*
X140827500Y-68390000D03*
X140827500Y-67890000D03*
X140827500Y-67390000D03*
X140827500Y-66890000D03*
X140827500Y-66390000D03*
X140827500Y-65890000D03*
D40*
X137490000Y-68390000D03*
%TD*%
D20*
%TO.C,D3*%
X141780000Y-89470000D03*
X139730000Y-89470000D03*
%TD*%
D22*
%TO.C,C3*%
X128807500Y-61460000D03*
X126732500Y-61460000D03*
%TD*%
D19*
%TO.C,R1*%
X137040000Y-45207500D03*
X139040000Y-45207500D03*
%TD*%
D10*
%TO.C,H3*%
X165120000Y-80150000D03*
%TD*%
D22*
%TO.C,C5*%
X118097500Y-71550000D03*
X116022500Y-71550000D03*
%TD*%
D11*
%TO.C,SW6*%
X153462000Y-123648000D03*
D13*
X142882000Y-123648000D03*
X153042000Y-123648000D03*
D12*
X142742000Y-127848000D03*
D11*
X142462000Y-123648000D03*
D14*
X147962000Y-123648000D03*
D16*
X150502000Y-118568000D03*
D15*
X152962000Y-119848000D03*
D17*
X150481771Y-118857984D03*
D16*
X145462000Y-119648000D03*
D15*
X147962000Y-117748000D03*
D18*
X144806995Y-120377996D03*
%TD*%
D20*
%TO.C,D5*%
X146462500Y-81960000D03*
X144412500Y-81960000D03*
%TD*%
D41*
%TO.C,R5*%
X117740000Y-59320000D03*
X117740000Y-57320000D03*
%TD*%
D19*
%TO.C,R9*%
X147540000Y-71000000D03*
X149540000Y-71000000D03*
%TD*%
D42*
%TO.C,D7*%
X130810000Y-51620000D03*
D43*
X130810000Y-53320000D03*
X132810000Y-53320000D03*
X132810000Y-51420000D03*
%TD*%
D19*
%TO.C,R6*%
X147550000Y-68590000D03*
X149550000Y-68590000D03*
%TD*%
D44*
%TO.C,Y1*%
X122060000Y-71650000D03*
X122060000Y-66770000D03*
%TD*%
D45*
%TO.C,D4*%
X143797500Y-56550000D03*
X145847500Y-56550000D03*
%TD*%
D13*
%TO.C,SW5*%
X142882000Y-104648000D03*
D11*
X142462000Y-104648000D03*
X153462000Y-104648000D03*
D13*
X153042000Y-104648000D03*
D12*
X142742000Y-108848000D03*
D14*
X147962000Y-104648000D03*
D15*
X152962000Y-100848000D03*
D17*
X150481771Y-99857984D03*
D16*
X150502000Y-99568000D03*
D15*
X147962000Y-98748000D03*
D16*
X145462000Y-100648000D03*
D18*
X144806995Y-101377996D03*
%TD*%
D41*
%TO.C,R7*%
X130820000Y-58400000D03*
X130820000Y-56400000D03*
%TD*%
D22*
%TO.C,C6*%
X113617500Y-55260000D03*
X111542500Y-55260000D03*
%TD*%
D46*
%TO.C,J2*%
X111607500Y-66445000D03*
D11*
X109067500Y-66445000D03*
X111607500Y-68985000D03*
X109067500Y-68985000D03*
X111607500Y-71525000D03*
X109067500Y-71525000D03*
%TD*%
G36*
X135192863Y-71252784D02*
G01*
X135212978Y-71282890D01*
X135249486Y-71290153D01*
X135280620Y-71269350D01*
X135286952Y-71254066D01*
X135288539Y-71252848D01*
X135290387Y-71253614D01*
X135290800Y-71254831D01*
X135290800Y-72201105D01*
X135289800Y-72202837D01*
X135287800Y-72202837D01*
X135287137Y-72202216D01*
X135267022Y-72172110D01*
X135230514Y-72164847D01*
X135199380Y-72185650D01*
X135193048Y-72200934D01*
X135191461Y-72202152D01*
X135189613Y-72201386D01*
X135189200Y-72200169D01*
X135189200Y-71253895D01*
X135190200Y-71252163D01*
X135192200Y-71252163D01*
X135192863Y-71252784D01*
G37*
G36*
X137192863Y-71252784D02*
G01*
X137212978Y-71282890D01*
X137249486Y-71290153D01*
X137280620Y-71269350D01*
X137286952Y-71254066D01*
X137288539Y-71252848D01*
X137290387Y-71253614D01*
X137290800Y-71254831D01*
X137290800Y-72201105D01*
X137289800Y-72202837D01*
X137287800Y-72202837D01*
X137287137Y-72202216D01*
X137267022Y-72172110D01*
X137230514Y-72164847D01*
X137199380Y-72185650D01*
X137193048Y-72200934D01*
X137191461Y-72202152D01*
X137189613Y-72201386D01*
X137189200Y-72200169D01*
X137189200Y-71253895D01*
X137190200Y-71252163D01*
X137192200Y-71252163D01*
X137192863Y-71252784D01*
G37*
G36*
X139692863Y-71252784D02*
G01*
X139712978Y-71282890D01*
X139749486Y-71290153D01*
X139780620Y-71269350D01*
X139786952Y-71254066D01*
X139788539Y-71252848D01*
X139790387Y-71253614D01*
X139790800Y-71254831D01*
X139790800Y-72201105D01*
X139789800Y-72202837D01*
X139787800Y-72202837D01*
X139787137Y-72202216D01*
X139767022Y-72172110D01*
X139730514Y-72164847D01*
X139699380Y-72185650D01*
X139693048Y-72200934D01*
X139691461Y-72202152D01*
X139689613Y-72201386D01*
X139689200Y-72200169D01*
X139689200Y-71253895D01*
X139690200Y-71252163D01*
X139692200Y-71252163D01*
X139692863Y-71252784D01*
G37*
G36*
X138192863Y-71252784D02*
G01*
X138212978Y-71282890D01*
X138249486Y-71290153D01*
X138280620Y-71269350D01*
X138286952Y-71254066D01*
X138288539Y-71252848D01*
X138290387Y-71253614D01*
X138290800Y-71254831D01*
X138290800Y-72201105D01*
X138289800Y-72202837D01*
X138287800Y-72202837D01*
X138287137Y-72202216D01*
X138267022Y-72172110D01*
X138230514Y-72164847D01*
X138199380Y-72185650D01*
X138193048Y-72200934D01*
X138191461Y-72202152D01*
X138189613Y-72201386D01*
X138189200Y-72200169D01*
X138189200Y-71253895D01*
X138190200Y-71252163D01*
X138192200Y-71252163D01*
X138192863Y-71252784D01*
G37*
G36*
X135692863Y-71252784D02*
G01*
X135712978Y-71282890D01*
X135749486Y-71290153D01*
X135780620Y-71269350D01*
X135786952Y-71254066D01*
X135788539Y-71252848D01*
X135790387Y-71253614D01*
X135790800Y-71254831D01*
X135790800Y-72201105D01*
X135789800Y-72202837D01*
X135787800Y-72202837D01*
X135787137Y-72202216D01*
X135767022Y-72172110D01*
X135730514Y-72164847D01*
X135699380Y-72185650D01*
X135693048Y-72200934D01*
X135691461Y-72202152D01*
X135689613Y-72201386D01*
X135689200Y-72200169D01*
X135689200Y-71253895D01*
X135690200Y-71252163D01*
X135692200Y-71252163D01*
X135692863Y-71252784D01*
G37*
G36*
X139192863Y-71252784D02*
G01*
X139212978Y-71282890D01*
X139249486Y-71290153D01*
X139280620Y-71269350D01*
X139286952Y-71254066D01*
X139288539Y-71252848D01*
X139290387Y-71253614D01*
X139290800Y-71254831D01*
X139290800Y-72201105D01*
X139289800Y-72202837D01*
X139287800Y-72202837D01*
X139287137Y-72202216D01*
X139267022Y-72172110D01*
X139230514Y-72164847D01*
X139199380Y-72185650D01*
X139193048Y-72200934D01*
X139191461Y-72202152D01*
X139189613Y-72201386D01*
X139189200Y-72200169D01*
X139189200Y-71253895D01*
X139190200Y-71252163D01*
X139192200Y-71252163D01*
X139192863Y-71252784D01*
G37*
G36*
X136192863Y-71252784D02*
G01*
X136212978Y-71282890D01*
X136249486Y-71290153D01*
X136280620Y-71269350D01*
X136286952Y-71254066D01*
X136288539Y-71252848D01*
X136290387Y-71253614D01*
X136290800Y-71254831D01*
X136290800Y-72201105D01*
X136289800Y-72202837D01*
X136287800Y-72202837D01*
X136287137Y-72202216D01*
X136267022Y-72172110D01*
X136230514Y-72164847D01*
X136199380Y-72185650D01*
X136193048Y-72200934D01*
X136191461Y-72202152D01*
X136189613Y-72201386D01*
X136189200Y-72200169D01*
X136189200Y-71253895D01*
X136190200Y-71252163D01*
X136192200Y-71252163D01*
X136192863Y-71252784D01*
G37*
G36*
X136692863Y-71252784D02*
G01*
X136712978Y-71282890D01*
X136749486Y-71290153D01*
X136780620Y-71269350D01*
X136786952Y-71254066D01*
X136788539Y-71252848D01*
X136790387Y-71253614D01*
X136790800Y-71254831D01*
X136790800Y-72201105D01*
X136789800Y-72202837D01*
X136787800Y-72202837D01*
X136787137Y-72202216D01*
X136767022Y-72172110D01*
X136730514Y-72164847D01*
X136699380Y-72185650D01*
X136693048Y-72200934D01*
X136691461Y-72202152D01*
X136689613Y-72201386D01*
X136689200Y-72200169D01*
X136689200Y-71253895D01*
X136690200Y-71252163D01*
X136692200Y-71252163D01*
X136692863Y-71252784D01*
G37*
G36*
X138692863Y-71252784D02*
G01*
X138712978Y-71282890D01*
X138749486Y-71290153D01*
X138780620Y-71269350D01*
X138786952Y-71254066D01*
X138788539Y-71252848D01*
X138790387Y-71253614D01*
X138790800Y-71254831D01*
X138790800Y-72201105D01*
X138789800Y-72202837D01*
X138787800Y-72202837D01*
X138787137Y-72202216D01*
X138767022Y-72172110D01*
X138730514Y-72164847D01*
X138699380Y-72185650D01*
X138693048Y-72200934D01*
X138691461Y-72202152D01*
X138689613Y-72201386D01*
X138689200Y-72200169D01*
X138689200Y-71253895D01*
X138690200Y-71252163D01*
X138692200Y-71252163D01*
X138692863Y-71252784D01*
G37*
G36*
X137692863Y-71252784D02*
G01*
X137712978Y-71282890D01*
X137749486Y-71290153D01*
X137780620Y-71269350D01*
X137786952Y-71254066D01*
X137788539Y-71252848D01*
X137790387Y-71253614D01*
X137790800Y-71254831D01*
X137790800Y-72201105D01*
X137789800Y-72202837D01*
X137787800Y-72202837D01*
X137787137Y-72202216D01*
X137767022Y-72172110D01*
X137730514Y-72164847D01*
X137699380Y-72185650D01*
X137693048Y-72200934D01*
X137691461Y-72202152D01*
X137689613Y-72201386D01*
X137689200Y-72200169D01*
X137689200Y-71253895D01*
X137690200Y-71252163D01*
X137692200Y-71252163D01*
X137692863Y-71252784D01*
G37*
G36*
X139685972Y-71065200D02*
G01*
X139685972Y-71067200D01*
X139685005Y-71068048D01*
X139649853Y-71082609D01*
X139635608Y-71116998D01*
X139647280Y-71145176D01*
X139647019Y-71147159D01*
X139646978Y-71147197D01*
X139649865Y-71151518D01*
X139650049Y-71151862D01*
X139650169Y-71152151D01*
X139649910Y-71154134D01*
X139648063Y-71154901D01*
X139647211Y-71154581D01*
X139604799Y-71126243D01*
X139552301Y-71115800D01*
X139427699Y-71115800D01*
X139375201Y-71126243D01*
X139332657Y-71154669D01*
X139330661Y-71154800D01*
X139329550Y-71153137D01*
X139329883Y-71151895D01*
X139332968Y-71147278D01*
X139332278Y-71146817D01*
X139331393Y-71145023D01*
X139331726Y-71144043D01*
X139343458Y-71126488D01*
X139336196Y-71089979D01*
X139304975Y-71069116D01*
X139295572Y-71068190D01*
X139293946Y-71067025D01*
X139294142Y-71065035D01*
X139295768Y-71064200D01*
X139684240Y-71064200D01*
X139685972Y-71065200D01*
G37*
G36*
X134858684Y-71056554D02*
G01*
X134861619Y-71058515D01*
X134890199Y-71064200D01*
X135184244Y-71064200D01*
X135185976Y-71065200D01*
X135185976Y-71067200D01*
X135185009Y-71068048D01*
X135149855Y-71082610D01*
X135135610Y-71116999D01*
X135147281Y-71145176D01*
X135147020Y-71147159D01*
X135146979Y-71147198D01*
X135149870Y-71151524D01*
X135150056Y-71151873D01*
X135150173Y-71152157D01*
X135149908Y-71154140D01*
X135148059Y-71154901D01*
X135147213Y-71154582D01*
X135104799Y-71126243D01*
X135052301Y-71115800D01*
X134927699Y-71115800D01*
X134875201Y-71126243D01*
X134856563Y-71138696D01*
X134854567Y-71138827D01*
X134853456Y-71137164D01*
X134853789Y-71135922D01*
X134873512Y-71106406D01*
X134866206Y-71069679D01*
X134856159Y-71059631D01*
X134855641Y-71057699D01*
X134857055Y-71056285D01*
X134858684Y-71056554D01*
G37*
G36*
X139185972Y-71065200D02*
G01*
X139185972Y-71067200D01*
X139185005Y-71068048D01*
X139149853Y-71082609D01*
X139135608Y-71116998D01*
X139147280Y-71145176D01*
X139147019Y-71147159D01*
X139146978Y-71147197D01*
X139149865Y-71151518D01*
X139150049Y-71151862D01*
X139150169Y-71152151D01*
X139149910Y-71154134D01*
X139148063Y-71154901D01*
X139147211Y-71154581D01*
X139104799Y-71126243D01*
X139052301Y-71115800D01*
X138927699Y-71115800D01*
X138875201Y-71126243D01*
X138832657Y-71154669D01*
X138830661Y-71154800D01*
X138829550Y-71153137D01*
X138829883Y-71151895D01*
X138832968Y-71147278D01*
X138832278Y-71146817D01*
X138831393Y-71145023D01*
X138831726Y-71144043D01*
X138843458Y-71126488D01*
X138836196Y-71089979D01*
X138804975Y-71069116D01*
X138795572Y-71068190D01*
X138793946Y-71067025D01*
X138794142Y-71065035D01*
X138795768Y-71064200D01*
X139184240Y-71064200D01*
X139185972Y-71065200D01*
G37*
G36*
X135685975Y-71065200D02*
G01*
X135685975Y-71067200D01*
X135685008Y-71068048D01*
X135649854Y-71082610D01*
X135635609Y-71116999D01*
X135647281Y-71145176D01*
X135647020Y-71147158D01*
X135646978Y-71147197D01*
X135649867Y-71151521D01*
X135650051Y-71151864D01*
X135650170Y-71152150D01*
X135649912Y-71154133D01*
X135648065Y-71154901D01*
X135647212Y-71154581D01*
X135604799Y-71126243D01*
X135552301Y-71115800D01*
X135427699Y-71115800D01*
X135375201Y-71126243D01*
X135332657Y-71154669D01*
X135330661Y-71154800D01*
X135329550Y-71153137D01*
X135329883Y-71151895D01*
X135332968Y-71147278D01*
X135332278Y-71146817D01*
X135331393Y-71145023D01*
X135331726Y-71144043D01*
X135343456Y-71126494D01*
X135336197Y-71089984D01*
X135304979Y-71069118D01*
X135295561Y-71068190D01*
X135293935Y-71067025D01*
X135294131Y-71065035D01*
X135295757Y-71064200D01*
X135684243Y-71064200D01*
X135685975Y-71065200D01*
G37*
G36*
X136185975Y-71065200D02*
G01*
X136185975Y-71067200D01*
X136185008Y-71068048D01*
X136149854Y-71082610D01*
X136135609Y-71116999D01*
X136147281Y-71145176D01*
X136147020Y-71147158D01*
X136146978Y-71147197D01*
X136149867Y-71151521D01*
X136150051Y-71151864D01*
X136150170Y-71152150D01*
X136149912Y-71154133D01*
X136148065Y-71154901D01*
X136147212Y-71154581D01*
X136104799Y-71126243D01*
X136052301Y-71115800D01*
X135927699Y-71115800D01*
X135875201Y-71126243D01*
X135832657Y-71154669D01*
X135830661Y-71154800D01*
X135829550Y-71153137D01*
X135829883Y-71151895D01*
X135832968Y-71147278D01*
X135832278Y-71146817D01*
X135831393Y-71145023D01*
X135831726Y-71144043D01*
X135843456Y-71126494D01*
X135836197Y-71089984D01*
X135804979Y-71069118D01*
X135795561Y-71068190D01*
X135793935Y-71067025D01*
X135794131Y-71065035D01*
X135795757Y-71064200D01*
X136184243Y-71064200D01*
X136185975Y-71065200D01*
G37*
G36*
X136685975Y-71065200D02*
G01*
X136685975Y-71067200D01*
X136685008Y-71068048D01*
X136649854Y-71082610D01*
X136635609Y-71116999D01*
X136647281Y-71145176D01*
X136647020Y-71147158D01*
X136646978Y-71147197D01*
X136649867Y-71151521D01*
X136650051Y-71151864D01*
X136650170Y-71152150D01*
X136649912Y-71154133D01*
X136648065Y-71154901D01*
X136647212Y-71154581D01*
X136604799Y-71126243D01*
X136552301Y-71115800D01*
X136427699Y-71115800D01*
X136375201Y-71126243D01*
X136332657Y-71154669D01*
X136330661Y-71154800D01*
X136329550Y-71153137D01*
X136329883Y-71151895D01*
X136332968Y-71147278D01*
X136332278Y-71146817D01*
X136331393Y-71145023D01*
X136331726Y-71144043D01*
X136343456Y-71126494D01*
X136336197Y-71089984D01*
X136304979Y-71069118D01*
X136295561Y-71068190D01*
X136293935Y-71067025D01*
X136294131Y-71065035D01*
X136295757Y-71064200D01*
X136684243Y-71064200D01*
X136685975Y-71065200D01*
G37*
G36*
X137185975Y-71065200D02*
G01*
X137185975Y-71067200D01*
X137185008Y-71068048D01*
X137149854Y-71082610D01*
X137135609Y-71116999D01*
X137147281Y-71145176D01*
X137147020Y-71147158D01*
X137146978Y-71147197D01*
X137149867Y-71151521D01*
X137150051Y-71151864D01*
X137150170Y-71152150D01*
X137149912Y-71154133D01*
X137148065Y-71154901D01*
X137147212Y-71154581D01*
X137104799Y-71126243D01*
X137052301Y-71115800D01*
X136927699Y-71115800D01*
X136875201Y-71126243D01*
X136832657Y-71154669D01*
X136830661Y-71154800D01*
X136829550Y-71153137D01*
X136829883Y-71151895D01*
X136832968Y-71147278D01*
X136832278Y-71146817D01*
X136831393Y-71145023D01*
X136831726Y-71144043D01*
X136843456Y-71126494D01*
X136836197Y-71089984D01*
X136804979Y-71069118D01*
X136795561Y-71068190D01*
X136793935Y-71067025D01*
X136794131Y-71065035D01*
X136795757Y-71064200D01*
X137184243Y-71064200D01*
X137185975Y-71065200D01*
G37*
G36*
X138185973Y-71065200D02*
G01*
X138185973Y-71067200D01*
X138185006Y-71068048D01*
X138149854Y-71082609D01*
X138135609Y-71116998D01*
X138147281Y-71145176D01*
X138147020Y-71147159D01*
X138146979Y-71147198D01*
X138149868Y-71151522D01*
X138150053Y-71151868D01*
X138150171Y-71152153D01*
X138149938Y-71152250D01*
X138150256Y-71153437D01*
X138148842Y-71154851D01*
X138147213Y-71154582D01*
X138104799Y-71126243D01*
X138052301Y-71115800D01*
X137927699Y-71115800D01*
X137875201Y-71126243D01*
X137832657Y-71154669D01*
X137830661Y-71154800D01*
X137829550Y-71153137D01*
X137829883Y-71151895D01*
X137832968Y-71147278D01*
X137832278Y-71146817D01*
X137831393Y-71145023D01*
X137831726Y-71144043D01*
X137843459Y-71126477D01*
X137836191Y-71089971D01*
X137804963Y-71069114D01*
X137795571Y-71068190D01*
X137793945Y-71067026D01*
X137794141Y-71065035D01*
X137795767Y-71064200D01*
X138184241Y-71064200D01*
X138185973Y-71065200D01*
G37*
G36*
X138685973Y-71065200D02*
G01*
X138685973Y-71067200D01*
X138685006Y-71068048D01*
X138649854Y-71082609D01*
X138635609Y-71116998D01*
X138647281Y-71145176D01*
X138647020Y-71147159D01*
X138646979Y-71147198D01*
X138649868Y-71151522D01*
X138650053Y-71151868D01*
X138650171Y-71152153D01*
X138649938Y-71152250D01*
X138650256Y-71153437D01*
X138648842Y-71154851D01*
X138647213Y-71154582D01*
X138604799Y-71126243D01*
X138552301Y-71115800D01*
X138427699Y-71115800D01*
X138375201Y-71126243D01*
X138332657Y-71154669D01*
X138330661Y-71154800D01*
X138329550Y-71153137D01*
X138329883Y-71151895D01*
X138332968Y-71147278D01*
X138332278Y-71146817D01*
X138331393Y-71145023D01*
X138331726Y-71144043D01*
X138343459Y-71126477D01*
X138336191Y-71089971D01*
X138304963Y-71069114D01*
X138295571Y-71068190D01*
X138293945Y-71067026D01*
X138294141Y-71065035D01*
X138295767Y-71064200D01*
X138684241Y-71064200D01*
X138685973Y-71065200D01*
G37*
G36*
X137685973Y-71065200D02*
G01*
X137685973Y-71067200D01*
X137685006Y-71068048D01*
X137649854Y-71082609D01*
X137635609Y-71116998D01*
X137647281Y-71145176D01*
X137647020Y-71147159D01*
X137646979Y-71147198D01*
X137649868Y-71151522D01*
X137650053Y-71151868D01*
X137650171Y-71152153D01*
X137649938Y-71152250D01*
X137650256Y-71153437D01*
X137648842Y-71154851D01*
X137647213Y-71154582D01*
X137604799Y-71126243D01*
X137552301Y-71115800D01*
X137427699Y-71115800D01*
X137375201Y-71126243D01*
X137332657Y-71154669D01*
X137330661Y-71154800D01*
X137329550Y-71153137D01*
X137329883Y-71151895D01*
X137332968Y-71147278D01*
X137332278Y-71146817D01*
X137331393Y-71145023D01*
X137331726Y-71144043D01*
X137343456Y-71126494D01*
X137336197Y-71089984D01*
X137304979Y-71069118D01*
X137295561Y-71068190D01*
X137293935Y-71067025D01*
X137294131Y-71065035D01*
X137295757Y-71064200D01*
X137684241Y-71064200D01*
X137685973Y-71065200D01*
G37*
G36*
X140126544Y-71056669D02*
G01*
X140126211Y-71057911D01*
X140106488Y-71087429D01*
X140113794Y-71124156D01*
X140123840Y-71134201D01*
X140124358Y-71136133D01*
X140122944Y-71137547D01*
X140121315Y-71137278D01*
X140104799Y-71126243D01*
X140052301Y-71115800D01*
X139927699Y-71115800D01*
X139875201Y-71126243D01*
X139832657Y-71154669D01*
X139830661Y-71154800D01*
X139829550Y-71153137D01*
X139829883Y-71151895D01*
X139832968Y-71147278D01*
X139832278Y-71146817D01*
X139831393Y-71145023D01*
X139831726Y-71144043D01*
X139843458Y-71126488D01*
X139836196Y-71089979D01*
X139804975Y-71069116D01*
X139795572Y-71068190D01*
X139793946Y-71067025D01*
X139794142Y-71065035D01*
X139795768Y-71064200D01*
X140089801Y-71064200D01*
X140118381Y-71058515D01*
X140123437Y-71055137D01*
X140125433Y-71055006D01*
X140126544Y-71056669D01*
G37*
G36*
X140168048Y-70694991D02*
G01*
X140182610Y-70730145D01*
X140216999Y-70744390D01*
X140245176Y-70732719D01*
X140247159Y-70732980D01*
X140247198Y-70733021D01*
X140251524Y-70730130D01*
X140251873Y-70729944D01*
X140252157Y-70729827D01*
X140254140Y-70730092D01*
X140254901Y-70731941D01*
X140254582Y-70732787D01*
X140226243Y-70775201D01*
X140215800Y-70827699D01*
X140215800Y-70952301D01*
X140226243Y-71004799D01*
X140238696Y-71023437D01*
X140238827Y-71025433D01*
X140237164Y-71026544D01*
X140235922Y-71026211D01*
X140206406Y-71006488D01*
X140169679Y-71013794D01*
X140159631Y-71023841D01*
X140157699Y-71024359D01*
X140156285Y-71022945D01*
X140156554Y-71021316D01*
X140158515Y-71018381D01*
X140164200Y-70989801D01*
X140164200Y-70695756D01*
X140165200Y-70694024D01*
X140167200Y-70694024D01*
X140168048Y-70694991D01*
G37*
G36*
X134814965Y-70694142D02*
G01*
X134815800Y-70695768D01*
X134815800Y-70989801D01*
X134821485Y-71018381D01*
X134824863Y-71023437D01*
X134824994Y-71025433D01*
X134823331Y-71026544D01*
X134822089Y-71026211D01*
X134792571Y-71006488D01*
X134755844Y-71013794D01*
X134745799Y-71023840D01*
X134743867Y-71024358D01*
X134742453Y-71022944D01*
X134742722Y-71021315D01*
X134753757Y-71004799D01*
X134764200Y-70952301D01*
X134764200Y-70827699D01*
X134753757Y-70775201D01*
X134725331Y-70732657D01*
X134725200Y-70730661D01*
X134726863Y-70729550D01*
X134728105Y-70729883D01*
X134732722Y-70732968D01*
X134733183Y-70732278D01*
X134734977Y-70731393D01*
X134735957Y-70731726D01*
X134753512Y-70743458D01*
X134790021Y-70736196D01*
X134810884Y-70704975D01*
X134811810Y-70695572D01*
X134812975Y-70693946D01*
X134814965Y-70694142D01*
G37*
G36*
X134627837Y-70590200D02*
G01*
X134627837Y-70592200D01*
X134627216Y-70592863D01*
X134597110Y-70612978D01*
X134589847Y-70649486D01*
X134610650Y-70680620D01*
X134625934Y-70686952D01*
X134627152Y-70688539D01*
X134626386Y-70690387D01*
X134625169Y-70690800D01*
X133678895Y-70690800D01*
X133677163Y-70689800D01*
X133677163Y-70687800D01*
X133677784Y-70687137D01*
X133707890Y-70667022D01*
X133715153Y-70630514D01*
X133694350Y-70599380D01*
X133679066Y-70593048D01*
X133677848Y-70591461D01*
X133678614Y-70589613D01*
X133679831Y-70589200D01*
X134626105Y-70589200D01*
X134627837Y-70590200D01*
G37*
G36*
X141302837Y-70590200D02*
G01*
X141302837Y-70592200D01*
X141302216Y-70592863D01*
X141272110Y-70612978D01*
X141264847Y-70649486D01*
X141285650Y-70680620D01*
X141300934Y-70686952D01*
X141302152Y-70688539D01*
X141301386Y-70690387D01*
X141300169Y-70690800D01*
X140353895Y-70690800D01*
X140352163Y-70689800D01*
X140352163Y-70687800D01*
X140352784Y-70687137D01*
X140382890Y-70667022D01*
X140390153Y-70630514D01*
X140369350Y-70599380D01*
X140354066Y-70593048D01*
X140352848Y-70591461D01*
X140353614Y-70589613D01*
X140354831Y-70589200D01*
X141301105Y-70589200D01*
X141302837Y-70590200D01*
G37*
G36*
X140168048Y-70194993D02*
G01*
X140182610Y-70230146D01*
X140216999Y-70244391D01*
X140245176Y-70232719D01*
X140247158Y-70232980D01*
X140247197Y-70233022D01*
X140251521Y-70230133D01*
X140251866Y-70229949D01*
X140252153Y-70229830D01*
X140254136Y-70230090D01*
X140254902Y-70231937D01*
X140254582Y-70232788D01*
X140226243Y-70275201D01*
X140215800Y-70327699D01*
X140215800Y-70452301D01*
X140226243Y-70504799D01*
X140254669Y-70547343D01*
X140254800Y-70549339D01*
X140253137Y-70550450D01*
X140251895Y-70550117D01*
X140247278Y-70547032D01*
X140246817Y-70547722D01*
X140245023Y-70548607D01*
X140244043Y-70548274D01*
X140226494Y-70536544D01*
X140189984Y-70543803D01*
X140169118Y-70575021D01*
X140168190Y-70584438D01*
X140167025Y-70586064D01*
X140165035Y-70585868D01*
X140164200Y-70584242D01*
X140164200Y-70195758D01*
X140165200Y-70194026D01*
X140167200Y-70194026D01*
X140168048Y-70194993D01*
G37*
G36*
X134814965Y-70194142D02*
G01*
X134815800Y-70195768D01*
X134815800Y-70584240D01*
X134814800Y-70585972D01*
X134812800Y-70585972D01*
X134811952Y-70585005D01*
X134797391Y-70549853D01*
X134763002Y-70535608D01*
X134734824Y-70547280D01*
X134732841Y-70547019D01*
X134732803Y-70546978D01*
X134728482Y-70549865D01*
X134728138Y-70550049D01*
X134727849Y-70550169D01*
X134725866Y-70549910D01*
X134725099Y-70548063D01*
X134725419Y-70547211D01*
X134753757Y-70504799D01*
X134764200Y-70452301D01*
X134764200Y-70327699D01*
X134753757Y-70275201D01*
X134725331Y-70232657D01*
X134725200Y-70230661D01*
X134726863Y-70229550D01*
X134728105Y-70229883D01*
X134732722Y-70232968D01*
X134733183Y-70232278D01*
X134734977Y-70231393D01*
X134735957Y-70231726D01*
X134753512Y-70243458D01*
X134790021Y-70236196D01*
X134810884Y-70204975D01*
X134811810Y-70195572D01*
X134812975Y-70193946D01*
X134814965Y-70194142D01*
G37*
G36*
X134627837Y-70090200D02*
G01*
X134627837Y-70092200D01*
X134627216Y-70092863D01*
X134597110Y-70112978D01*
X134589847Y-70149486D01*
X134610650Y-70180620D01*
X134625934Y-70186952D01*
X134627152Y-70188539D01*
X134626386Y-70190387D01*
X134625169Y-70190800D01*
X133678895Y-70190800D01*
X133677163Y-70189800D01*
X133677163Y-70187800D01*
X133677784Y-70187137D01*
X133707890Y-70167022D01*
X133715153Y-70130514D01*
X133694350Y-70099380D01*
X133679066Y-70093048D01*
X133677848Y-70091461D01*
X133678614Y-70089613D01*
X133679831Y-70089200D01*
X134626105Y-70089200D01*
X134627837Y-70090200D01*
G37*
G36*
X141302837Y-70090200D02*
G01*
X141302837Y-70092200D01*
X141302216Y-70092863D01*
X141272110Y-70112978D01*
X141264847Y-70149486D01*
X141285650Y-70180620D01*
X141300934Y-70186952D01*
X141302152Y-70188539D01*
X141301386Y-70190387D01*
X141300169Y-70190800D01*
X140353895Y-70190800D01*
X140352163Y-70189800D01*
X140352163Y-70187800D01*
X140352784Y-70187137D01*
X140382890Y-70167022D01*
X140390153Y-70130514D01*
X140369350Y-70099380D01*
X140354066Y-70093048D01*
X140352848Y-70091461D01*
X140353614Y-70089613D01*
X140354831Y-70089200D01*
X141301105Y-70089200D01*
X141302837Y-70090200D01*
G37*
G36*
X140168048Y-69694993D02*
G01*
X140182610Y-69730146D01*
X140216999Y-69744391D01*
X140245176Y-69732719D01*
X140247158Y-69732980D01*
X140247197Y-69733022D01*
X140251521Y-69730133D01*
X140251866Y-69729949D01*
X140252153Y-69729830D01*
X140254136Y-69730090D01*
X140254902Y-69731937D01*
X140254582Y-69732788D01*
X140226243Y-69775201D01*
X140215800Y-69827699D01*
X140215800Y-69952301D01*
X140226243Y-70004799D01*
X140254669Y-70047343D01*
X140254800Y-70049339D01*
X140253137Y-70050450D01*
X140251895Y-70050117D01*
X140247278Y-70047032D01*
X140246817Y-70047722D01*
X140245023Y-70048607D01*
X140244043Y-70048274D01*
X140226494Y-70036544D01*
X140189984Y-70043803D01*
X140169118Y-70075021D01*
X140168190Y-70084438D01*
X140167025Y-70086064D01*
X140165035Y-70085868D01*
X140164200Y-70084242D01*
X140164200Y-69695758D01*
X140165200Y-69694026D01*
X140167200Y-69694026D01*
X140168048Y-69694993D01*
G37*
G36*
X134814965Y-69694142D02*
G01*
X134815800Y-69695768D01*
X134815800Y-70084240D01*
X134814800Y-70085972D01*
X134812800Y-70085972D01*
X134811952Y-70085005D01*
X134797391Y-70049853D01*
X134763002Y-70035608D01*
X134734824Y-70047280D01*
X134732841Y-70047019D01*
X134732803Y-70046978D01*
X134728482Y-70049865D01*
X134728138Y-70050049D01*
X134727849Y-70050169D01*
X134725866Y-70049910D01*
X134725099Y-70048063D01*
X134725419Y-70047211D01*
X134753757Y-70004799D01*
X134764200Y-69952301D01*
X134764200Y-69827699D01*
X134753757Y-69775201D01*
X134725331Y-69732657D01*
X134725200Y-69730661D01*
X134726863Y-69729550D01*
X134728105Y-69729883D01*
X134732722Y-69732968D01*
X134733183Y-69732278D01*
X134734977Y-69731393D01*
X134735957Y-69731726D01*
X134753512Y-69743458D01*
X134790021Y-69736196D01*
X134810884Y-69704975D01*
X134811810Y-69695572D01*
X134812975Y-69693946D01*
X134814965Y-69694142D01*
G37*
G36*
X141302837Y-69590200D02*
G01*
X141302837Y-69592200D01*
X141302216Y-69592863D01*
X141272110Y-69612978D01*
X141264847Y-69649486D01*
X141285650Y-69680620D01*
X141300934Y-69686952D01*
X141302152Y-69688539D01*
X141301386Y-69690387D01*
X141300169Y-69690800D01*
X140353895Y-69690800D01*
X140352163Y-69689800D01*
X140352163Y-69687800D01*
X140352784Y-69687137D01*
X140382890Y-69667022D01*
X140390153Y-69630514D01*
X140369350Y-69599380D01*
X140354066Y-69593048D01*
X140352848Y-69591461D01*
X140353614Y-69589613D01*
X140354831Y-69589200D01*
X141301105Y-69589200D01*
X141302837Y-69590200D01*
G37*
G36*
X134627837Y-69590200D02*
G01*
X134627837Y-69592200D01*
X134627216Y-69592863D01*
X134597110Y-69612978D01*
X134589847Y-69649486D01*
X134610650Y-69680620D01*
X134625934Y-69686952D01*
X134627152Y-69688539D01*
X134626386Y-69690387D01*
X134625169Y-69690800D01*
X133678895Y-69690800D01*
X133677163Y-69689800D01*
X133677163Y-69687800D01*
X133677784Y-69687137D01*
X133707890Y-69667022D01*
X133715153Y-69630514D01*
X133694350Y-69599380D01*
X133679066Y-69593048D01*
X133677848Y-69591461D01*
X133678614Y-69589613D01*
X133679831Y-69589200D01*
X134626105Y-69589200D01*
X134627837Y-69590200D01*
G37*
G36*
X140168048Y-69194992D02*
G01*
X140182610Y-69230146D01*
X140216999Y-69244391D01*
X140245176Y-69232719D01*
X140247158Y-69232980D01*
X140247197Y-69233022D01*
X140251521Y-69230133D01*
X140251866Y-69229949D01*
X140252153Y-69229830D01*
X140254136Y-69230090D01*
X140254902Y-69231937D01*
X140254582Y-69232788D01*
X140226243Y-69275201D01*
X140215800Y-69327699D01*
X140215800Y-69452301D01*
X140226243Y-69504799D01*
X140254669Y-69547343D01*
X140254800Y-69549339D01*
X140253137Y-69550450D01*
X140251895Y-69550117D01*
X140247278Y-69547032D01*
X140246817Y-69547722D01*
X140245023Y-69548607D01*
X140244043Y-69548274D01*
X140226494Y-69536544D01*
X140189984Y-69543803D01*
X140169118Y-69575021D01*
X140168190Y-69584439D01*
X140167025Y-69586065D01*
X140165035Y-69585869D01*
X140164200Y-69584243D01*
X140164200Y-69195757D01*
X140165200Y-69194025D01*
X140167200Y-69194025D01*
X140168048Y-69194992D01*
G37*
G36*
X134814965Y-69194141D02*
G01*
X134815800Y-69195767D01*
X134815800Y-69584241D01*
X134814800Y-69585973D01*
X134812800Y-69585973D01*
X134811952Y-69585006D01*
X134797391Y-69549854D01*
X134763002Y-69535609D01*
X134734824Y-69547281D01*
X134732841Y-69547020D01*
X134732802Y-69546979D01*
X134728478Y-69549868D01*
X134728132Y-69550053D01*
X134727847Y-69550171D01*
X134727746Y-69549926D01*
X134726840Y-69550313D01*
X134725240Y-69549113D01*
X134725416Y-69547216D01*
X134753757Y-69504799D01*
X134764200Y-69452301D01*
X134764200Y-69327699D01*
X134753757Y-69275201D01*
X134725331Y-69232657D01*
X134725200Y-69230661D01*
X134726863Y-69229550D01*
X134728105Y-69229883D01*
X134732722Y-69232968D01*
X134733183Y-69232278D01*
X134734977Y-69231393D01*
X134735957Y-69231726D01*
X134753523Y-69243459D01*
X134790029Y-69236191D01*
X134810886Y-69204963D01*
X134811810Y-69195571D01*
X134812974Y-69193945D01*
X134814965Y-69194141D01*
G37*
G36*
X141302837Y-69090200D02*
G01*
X141302837Y-69092200D01*
X141302216Y-69092863D01*
X141272110Y-69112978D01*
X141264847Y-69149486D01*
X141285650Y-69180620D01*
X141300934Y-69186952D01*
X141302152Y-69188539D01*
X141301386Y-69190387D01*
X141300169Y-69190800D01*
X140353895Y-69190800D01*
X140352163Y-69189800D01*
X140352163Y-69187800D01*
X140352784Y-69187137D01*
X140382890Y-69167022D01*
X140390153Y-69130514D01*
X140369350Y-69099380D01*
X140354066Y-69093048D01*
X140352848Y-69091461D01*
X140353614Y-69089613D01*
X140354831Y-69089200D01*
X141301105Y-69089200D01*
X141302837Y-69090200D01*
G37*
G36*
X134627837Y-69090200D02*
G01*
X134627837Y-69092200D01*
X134627216Y-69092863D01*
X134597110Y-69112978D01*
X134589847Y-69149486D01*
X134610650Y-69180620D01*
X134625934Y-69186952D01*
X134627152Y-69188539D01*
X134626386Y-69190387D01*
X134625169Y-69190800D01*
X133678895Y-69190800D01*
X133677163Y-69189800D01*
X133677163Y-69187800D01*
X133677784Y-69187137D01*
X133707890Y-69167022D01*
X133715153Y-69130514D01*
X133694350Y-69099380D01*
X133679066Y-69093048D01*
X133677848Y-69091461D01*
X133678614Y-69089613D01*
X133679831Y-69089200D01*
X134626105Y-69089200D01*
X134627837Y-69090200D01*
G37*
G36*
X140168048Y-68694992D02*
G01*
X140182610Y-68730146D01*
X140216999Y-68744391D01*
X140245176Y-68732719D01*
X140247158Y-68732980D01*
X140247197Y-68733022D01*
X140251521Y-68730133D01*
X140251866Y-68729949D01*
X140252153Y-68729830D01*
X140254136Y-68730090D01*
X140254902Y-68731937D01*
X140254582Y-68732788D01*
X140226243Y-68775201D01*
X140215800Y-68827699D01*
X140215800Y-68952301D01*
X140226243Y-69004799D01*
X140254669Y-69047343D01*
X140254800Y-69049339D01*
X140253137Y-69050450D01*
X140251895Y-69050117D01*
X140247278Y-69047032D01*
X140246817Y-69047722D01*
X140245023Y-69048607D01*
X140244043Y-69048274D01*
X140226494Y-69036544D01*
X140189984Y-69043803D01*
X140169118Y-69075021D01*
X140168190Y-69084439D01*
X140167025Y-69086065D01*
X140165035Y-69085869D01*
X140164200Y-69084243D01*
X140164200Y-68695757D01*
X140165200Y-68694025D01*
X140167200Y-68694025D01*
X140168048Y-68694992D01*
G37*
G36*
X134814965Y-68694141D02*
G01*
X134815800Y-68695767D01*
X134815800Y-69084241D01*
X134814800Y-69085973D01*
X134812800Y-69085973D01*
X134811952Y-69085006D01*
X134797391Y-69049854D01*
X134763002Y-69035609D01*
X134734824Y-69047281D01*
X134732841Y-69047020D01*
X134732802Y-69046979D01*
X134728478Y-69049868D01*
X134728132Y-69050053D01*
X134727847Y-69050171D01*
X134727746Y-69049926D01*
X134726840Y-69050313D01*
X134725240Y-69049113D01*
X134725416Y-69047216D01*
X134753757Y-69004799D01*
X134764200Y-68952301D01*
X134764200Y-68827699D01*
X134753757Y-68775201D01*
X134725331Y-68732657D01*
X134725200Y-68730661D01*
X134726863Y-68729550D01*
X134728105Y-68729883D01*
X134732722Y-68732968D01*
X134733183Y-68732278D01*
X134734977Y-68731393D01*
X134735957Y-68731726D01*
X134753523Y-68743459D01*
X134790029Y-68736191D01*
X134810886Y-68704963D01*
X134811810Y-68695571D01*
X134812974Y-68693945D01*
X134814965Y-68694141D01*
G37*
G36*
X141302837Y-68590200D02*
G01*
X141302837Y-68592200D01*
X141302216Y-68592863D01*
X141272110Y-68612978D01*
X141264847Y-68649486D01*
X141285650Y-68680620D01*
X141300934Y-68686952D01*
X141302152Y-68688539D01*
X141301386Y-68690387D01*
X141300169Y-68690800D01*
X140353895Y-68690800D01*
X140352163Y-68689800D01*
X140352163Y-68687800D01*
X140352784Y-68687137D01*
X140382890Y-68667022D01*
X140390153Y-68630514D01*
X140369350Y-68599380D01*
X140354066Y-68593048D01*
X140352848Y-68591461D01*
X140353614Y-68589613D01*
X140354831Y-68589200D01*
X141301105Y-68589200D01*
X141302837Y-68590200D01*
G37*
G36*
X134627837Y-68590200D02*
G01*
X134627837Y-68592200D01*
X134627216Y-68592863D01*
X134597110Y-68612978D01*
X134589847Y-68649486D01*
X134610650Y-68680620D01*
X134625934Y-68686952D01*
X134627152Y-68688539D01*
X134626386Y-68690387D01*
X134625169Y-68690800D01*
X133678895Y-68690800D01*
X133677163Y-68689800D01*
X133677163Y-68687800D01*
X133677784Y-68687137D01*
X133707890Y-68667022D01*
X133715153Y-68630514D01*
X133694350Y-68599380D01*
X133679066Y-68593048D01*
X133677848Y-68591461D01*
X133678614Y-68589613D01*
X133679831Y-68589200D01*
X134626105Y-68589200D01*
X134627837Y-68590200D01*
G37*
G36*
X140168048Y-68194994D02*
G01*
X140182609Y-68230146D01*
X140216998Y-68244391D01*
X140245176Y-68232719D01*
X140247159Y-68232980D01*
X140247198Y-68233021D01*
X140251522Y-68230132D01*
X140251868Y-68229947D01*
X140252153Y-68229829D01*
X140252254Y-68230074D01*
X140253160Y-68229687D01*
X140254760Y-68230887D01*
X140254584Y-68232784D01*
X140226243Y-68275201D01*
X140215800Y-68327699D01*
X140215800Y-68452301D01*
X140226243Y-68504799D01*
X140254669Y-68547343D01*
X140254800Y-68549339D01*
X140253137Y-68550450D01*
X140251895Y-68550117D01*
X140247278Y-68547032D01*
X140246817Y-68547722D01*
X140245023Y-68548607D01*
X140244043Y-68548274D01*
X140226494Y-68536544D01*
X140189984Y-68543803D01*
X140169118Y-68575021D01*
X140168190Y-68584439D01*
X140167025Y-68586065D01*
X140165035Y-68585869D01*
X140164200Y-68584243D01*
X140164200Y-68195759D01*
X140165200Y-68194027D01*
X140167200Y-68194027D01*
X140168048Y-68194994D01*
G37*
G36*
X134814965Y-68194131D02*
G01*
X134815800Y-68195757D01*
X134815800Y-68584241D01*
X134814800Y-68585973D01*
X134812800Y-68585973D01*
X134811952Y-68585006D01*
X134797391Y-68549854D01*
X134763002Y-68535609D01*
X134734824Y-68547281D01*
X134732841Y-68547020D01*
X134732802Y-68546979D01*
X134728478Y-68549868D01*
X134728132Y-68550053D01*
X134727847Y-68550171D01*
X134727746Y-68549926D01*
X134726840Y-68550313D01*
X134725240Y-68549113D01*
X134725416Y-68547216D01*
X134753757Y-68504799D01*
X134764200Y-68452301D01*
X134764200Y-68327699D01*
X134753757Y-68275201D01*
X134725331Y-68232657D01*
X134725200Y-68230661D01*
X134726863Y-68229550D01*
X134728105Y-68229883D01*
X134732722Y-68232968D01*
X134733183Y-68232278D01*
X134734977Y-68231393D01*
X134735957Y-68231726D01*
X134753506Y-68243456D01*
X134790016Y-68236197D01*
X134810882Y-68204979D01*
X134811810Y-68195561D01*
X134812975Y-68193935D01*
X134814965Y-68194131D01*
G37*
G36*
X141302837Y-68090200D02*
G01*
X141302837Y-68092200D01*
X141302216Y-68092863D01*
X141272110Y-68112978D01*
X141264847Y-68149486D01*
X141285650Y-68180620D01*
X141300934Y-68186952D01*
X141302152Y-68188539D01*
X141301386Y-68190387D01*
X141300169Y-68190800D01*
X140353895Y-68190800D01*
X140352163Y-68189800D01*
X140352163Y-68187800D01*
X140352784Y-68187137D01*
X140382890Y-68167022D01*
X140390153Y-68130514D01*
X140369350Y-68099380D01*
X140354066Y-68093048D01*
X140352848Y-68091461D01*
X140353614Y-68089613D01*
X140354831Y-68089200D01*
X141301105Y-68089200D01*
X141302837Y-68090200D01*
G37*
G36*
X134627837Y-68090200D02*
G01*
X134627837Y-68092200D01*
X134627216Y-68092863D01*
X134597110Y-68112978D01*
X134589847Y-68149486D01*
X134610650Y-68180620D01*
X134625934Y-68186952D01*
X134627152Y-68188539D01*
X134626386Y-68190387D01*
X134625169Y-68190800D01*
X133678895Y-68190800D01*
X133677163Y-68189800D01*
X133677163Y-68187800D01*
X133677784Y-68187137D01*
X133707890Y-68167022D01*
X133715153Y-68130514D01*
X133694350Y-68099380D01*
X133679066Y-68093048D01*
X133677848Y-68091461D01*
X133678614Y-68089613D01*
X133679831Y-68089200D01*
X134626105Y-68089200D01*
X134627837Y-68090200D01*
G37*
G36*
X140168048Y-67694994D02*
G01*
X140182609Y-67730146D01*
X140216998Y-67744391D01*
X140245176Y-67732719D01*
X140247159Y-67732980D01*
X140247198Y-67733021D01*
X140251522Y-67730132D01*
X140251868Y-67729947D01*
X140252153Y-67729829D01*
X140252254Y-67730074D01*
X140253160Y-67729687D01*
X140254760Y-67730887D01*
X140254584Y-67732784D01*
X140226243Y-67775201D01*
X140215800Y-67827699D01*
X140215800Y-67952301D01*
X140226243Y-68004799D01*
X140254669Y-68047343D01*
X140254800Y-68049339D01*
X140253137Y-68050450D01*
X140251895Y-68050117D01*
X140247278Y-68047032D01*
X140246817Y-68047722D01*
X140245023Y-68048607D01*
X140244043Y-68048274D01*
X140226477Y-68036541D01*
X140189971Y-68043809D01*
X140169114Y-68075037D01*
X140168190Y-68084429D01*
X140167026Y-68086055D01*
X140165035Y-68085859D01*
X140164200Y-68084233D01*
X140164200Y-67695759D01*
X140165200Y-67694027D01*
X140167200Y-67694027D01*
X140168048Y-67694994D01*
G37*
G36*
X134814965Y-67694131D02*
G01*
X134815800Y-67695757D01*
X134815800Y-68084243D01*
X134814800Y-68085975D01*
X134812800Y-68085975D01*
X134811952Y-68085008D01*
X134797390Y-68049854D01*
X134763001Y-68035609D01*
X134734824Y-68047281D01*
X134732842Y-68047020D01*
X134732803Y-68046978D01*
X134728479Y-68049867D01*
X134728136Y-68050051D01*
X134727850Y-68050170D01*
X134725867Y-68049912D01*
X134725099Y-68048065D01*
X134725419Y-68047212D01*
X134753757Y-68004799D01*
X134764200Y-67952301D01*
X134764200Y-67827699D01*
X134753757Y-67775201D01*
X134725331Y-67732657D01*
X134725200Y-67730661D01*
X134726863Y-67729550D01*
X134728105Y-67729883D01*
X134732722Y-67732968D01*
X134733183Y-67732278D01*
X134734977Y-67731393D01*
X134735957Y-67731726D01*
X134753506Y-67743456D01*
X134790016Y-67736197D01*
X134810882Y-67704979D01*
X134811810Y-67695561D01*
X134812975Y-67693935D01*
X134814965Y-67694131D01*
G37*
G36*
X134627837Y-67590200D02*
G01*
X134627837Y-67592200D01*
X134627216Y-67592863D01*
X134597110Y-67612978D01*
X134589847Y-67649486D01*
X134610650Y-67680620D01*
X134625934Y-67686952D01*
X134627152Y-67688539D01*
X134626386Y-67690387D01*
X134625169Y-67690800D01*
X133678895Y-67690800D01*
X133677163Y-67689800D01*
X133677163Y-67687800D01*
X133677784Y-67687137D01*
X133707890Y-67667022D01*
X133715153Y-67630514D01*
X133694350Y-67599380D01*
X133679066Y-67593048D01*
X133677848Y-67591461D01*
X133678614Y-67589613D01*
X133679831Y-67589200D01*
X134626105Y-67589200D01*
X134627837Y-67590200D01*
G37*
G36*
X141302837Y-67590200D02*
G01*
X141302837Y-67592200D01*
X141302216Y-67592863D01*
X141272110Y-67612978D01*
X141264847Y-67649486D01*
X141285650Y-67680620D01*
X141300934Y-67686952D01*
X141302152Y-67688539D01*
X141301386Y-67690387D01*
X141300169Y-67690800D01*
X140353895Y-67690800D01*
X140352163Y-67689800D01*
X140352163Y-67687800D01*
X140352784Y-67687137D01*
X140382890Y-67667022D01*
X140390153Y-67630514D01*
X140369350Y-67599380D01*
X140354066Y-67593048D01*
X140352848Y-67591461D01*
X140353614Y-67589613D01*
X140354831Y-67589200D01*
X141301105Y-67589200D01*
X141302837Y-67590200D01*
G37*
G36*
X140168048Y-67194994D02*
G01*
X140182609Y-67230146D01*
X140216998Y-67244391D01*
X140245176Y-67232719D01*
X140247159Y-67232980D01*
X140247198Y-67233021D01*
X140251522Y-67230132D01*
X140251868Y-67229947D01*
X140252153Y-67229829D01*
X140252254Y-67230074D01*
X140253160Y-67229687D01*
X140254760Y-67230887D01*
X140254584Y-67232784D01*
X140226243Y-67275201D01*
X140215800Y-67327699D01*
X140215800Y-67452301D01*
X140226243Y-67504799D01*
X140254669Y-67547343D01*
X140254800Y-67549339D01*
X140253137Y-67550450D01*
X140251895Y-67550117D01*
X140247278Y-67547032D01*
X140246817Y-67547722D01*
X140245023Y-67548607D01*
X140244043Y-67548274D01*
X140226477Y-67536541D01*
X140189971Y-67543809D01*
X140169114Y-67575037D01*
X140168190Y-67584429D01*
X140167026Y-67586055D01*
X140165035Y-67585859D01*
X140164200Y-67584233D01*
X140164200Y-67195759D01*
X140165200Y-67194027D01*
X140167200Y-67194027D01*
X140168048Y-67194994D01*
G37*
G36*
X134814965Y-67194131D02*
G01*
X134815800Y-67195757D01*
X134815800Y-67584243D01*
X134814800Y-67585975D01*
X134812800Y-67585975D01*
X134811952Y-67585008D01*
X134797390Y-67549854D01*
X134763001Y-67535609D01*
X134734824Y-67547281D01*
X134732842Y-67547020D01*
X134732803Y-67546978D01*
X134728479Y-67549867D01*
X134728136Y-67550051D01*
X134727850Y-67550170D01*
X134725867Y-67549912D01*
X134725099Y-67548065D01*
X134725419Y-67547212D01*
X134753757Y-67504799D01*
X134764200Y-67452301D01*
X134764200Y-67327699D01*
X134753757Y-67275201D01*
X134725331Y-67232657D01*
X134725200Y-67230661D01*
X134726863Y-67229550D01*
X134728105Y-67229883D01*
X134732722Y-67232968D01*
X134733183Y-67232278D01*
X134734977Y-67231393D01*
X134735957Y-67231726D01*
X134753506Y-67243456D01*
X134790016Y-67236197D01*
X134810882Y-67204979D01*
X134811810Y-67195561D01*
X134812975Y-67193935D01*
X134814965Y-67194131D01*
G37*
G36*
X134627837Y-67090200D02*
G01*
X134627837Y-67092200D01*
X134627216Y-67092863D01*
X134597110Y-67112978D01*
X134589847Y-67149486D01*
X134610650Y-67180620D01*
X134625934Y-67186952D01*
X134627152Y-67188539D01*
X134626386Y-67190387D01*
X134625169Y-67190800D01*
X133678895Y-67190800D01*
X133677163Y-67189800D01*
X133677163Y-67187800D01*
X133677784Y-67187137D01*
X133707890Y-67167022D01*
X133715153Y-67130514D01*
X133694350Y-67099380D01*
X133679066Y-67093048D01*
X133677848Y-67091461D01*
X133678614Y-67089613D01*
X133679831Y-67089200D01*
X134626105Y-67089200D01*
X134627837Y-67090200D01*
G37*
G36*
X141302837Y-67090200D02*
G01*
X141302837Y-67092200D01*
X141302216Y-67092863D01*
X141272110Y-67112978D01*
X141264847Y-67149486D01*
X141285650Y-67180620D01*
X141300934Y-67186952D01*
X141302152Y-67188539D01*
X141301386Y-67190387D01*
X141300169Y-67190800D01*
X140353895Y-67190800D01*
X140352163Y-67189800D01*
X140352163Y-67187800D01*
X140352784Y-67187137D01*
X140382890Y-67167022D01*
X140390153Y-67130514D01*
X140369350Y-67099380D01*
X140354066Y-67093048D01*
X140352848Y-67091461D01*
X140353614Y-67089613D01*
X140354831Y-67089200D01*
X141301105Y-67089200D01*
X141302837Y-67090200D01*
G37*
G36*
X140168048Y-66694995D02*
G01*
X140182609Y-66730147D01*
X140216998Y-66744392D01*
X140245176Y-66732720D01*
X140247159Y-66732981D01*
X140247197Y-66733022D01*
X140251518Y-66730135D01*
X140251862Y-66729951D01*
X140252151Y-66729831D01*
X140254134Y-66730090D01*
X140254901Y-66731937D01*
X140254581Y-66732789D01*
X140226243Y-66775201D01*
X140215800Y-66827699D01*
X140215800Y-66952301D01*
X140226243Y-67004799D01*
X140254669Y-67047343D01*
X140254800Y-67049339D01*
X140253137Y-67050450D01*
X140251895Y-67050117D01*
X140247278Y-67047032D01*
X140246817Y-67047722D01*
X140245023Y-67048607D01*
X140244043Y-67048274D01*
X140226488Y-67036542D01*
X140189979Y-67043804D01*
X140169116Y-67075025D01*
X140168190Y-67084428D01*
X140167025Y-67086054D01*
X140165035Y-67085858D01*
X140164200Y-67084232D01*
X140164200Y-66695760D01*
X140165200Y-66694028D01*
X140167200Y-66694028D01*
X140168048Y-66694995D01*
G37*
G36*
X134814965Y-66694132D02*
G01*
X134815800Y-66695758D01*
X134815800Y-67084242D01*
X134814800Y-67085974D01*
X134812800Y-67085974D01*
X134811952Y-67085007D01*
X134797390Y-67049854D01*
X134763001Y-67035609D01*
X134734824Y-67047281D01*
X134732842Y-67047020D01*
X134732803Y-67046978D01*
X134728479Y-67049867D01*
X134728136Y-67050051D01*
X134727850Y-67050170D01*
X134725867Y-67049912D01*
X134725099Y-67048065D01*
X134725419Y-67047212D01*
X134753757Y-67004799D01*
X134764200Y-66952301D01*
X134764200Y-66827699D01*
X134753757Y-66775201D01*
X134725331Y-66732657D01*
X134725200Y-66730661D01*
X134726863Y-66729550D01*
X134728105Y-66729883D01*
X134732722Y-66732968D01*
X134733183Y-66732278D01*
X134734977Y-66731393D01*
X134735957Y-66731726D01*
X134753506Y-66743456D01*
X134790016Y-66736197D01*
X134810882Y-66704979D01*
X134811810Y-66695562D01*
X134812975Y-66693936D01*
X134814965Y-66694132D01*
G37*
G36*
X134627837Y-66590200D02*
G01*
X134627837Y-66592200D01*
X134627216Y-66592863D01*
X134597110Y-66612978D01*
X134589847Y-66649486D01*
X134610650Y-66680620D01*
X134625934Y-66686952D01*
X134627152Y-66688539D01*
X134626386Y-66690387D01*
X134625169Y-66690800D01*
X133678895Y-66690800D01*
X133677163Y-66689800D01*
X133677163Y-66687800D01*
X133677784Y-66687137D01*
X133707890Y-66667022D01*
X133715153Y-66630514D01*
X133694350Y-66599380D01*
X133679066Y-66593048D01*
X133677848Y-66591461D01*
X133678614Y-66589613D01*
X133679831Y-66589200D01*
X134626105Y-66589200D01*
X134627837Y-66590200D01*
G37*
G36*
X141302837Y-66590200D02*
G01*
X141302837Y-66592200D01*
X141302216Y-66592863D01*
X141272110Y-66612978D01*
X141264847Y-66649486D01*
X141285650Y-66680620D01*
X141300934Y-66686952D01*
X141302152Y-66688539D01*
X141301386Y-66690387D01*
X141300169Y-66690800D01*
X140353895Y-66690800D01*
X140352163Y-66689800D01*
X140352163Y-66687800D01*
X140352784Y-66687137D01*
X140382890Y-66667022D01*
X140390153Y-66630514D01*
X140369350Y-66599380D01*
X140354066Y-66593048D01*
X140352848Y-66591461D01*
X140353614Y-66589613D01*
X140354831Y-66589200D01*
X141301105Y-66589200D01*
X141302837Y-66590200D01*
G37*
G36*
X140168048Y-66194995D02*
G01*
X140182609Y-66230147D01*
X140216998Y-66244392D01*
X140245176Y-66232720D01*
X140247159Y-66232981D01*
X140247197Y-66233022D01*
X140251518Y-66230135D01*
X140251862Y-66229951D01*
X140252151Y-66229831D01*
X140254134Y-66230090D01*
X140254901Y-66231937D01*
X140254581Y-66232789D01*
X140226243Y-66275201D01*
X140215800Y-66327699D01*
X140215800Y-66452301D01*
X140226243Y-66504799D01*
X140254669Y-66547343D01*
X140254800Y-66549339D01*
X140253137Y-66550450D01*
X140251895Y-66550117D01*
X140247278Y-66547032D01*
X140246817Y-66547722D01*
X140245023Y-66548607D01*
X140244043Y-66548274D01*
X140226488Y-66536542D01*
X140189979Y-66543804D01*
X140169116Y-66575025D01*
X140168190Y-66584428D01*
X140167025Y-66586054D01*
X140165035Y-66585858D01*
X140164200Y-66584232D01*
X140164200Y-66195760D01*
X140165200Y-66194028D01*
X140167200Y-66194028D01*
X140168048Y-66194995D01*
G37*
G36*
X134814965Y-66194132D02*
G01*
X134815800Y-66195758D01*
X134815800Y-66584242D01*
X134814800Y-66585974D01*
X134812800Y-66585974D01*
X134811952Y-66585007D01*
X134797390Y-66549854D01*
X134763001Y-66535609D01*
X134734824Y-66547281D01*
X134732842Y-66547020D01*
X134732803Y-66546978D01*
X134728479Y-66549867D01*
X134728136Y-66550051D01*
X134727850Y-66550170D01*
X134725867Y-66549912D01*
X134725099Y-66548065D01*
X134725419Y-66547212D01*
X134753757Y-66504799D01*
X134764200Y-66452301D01*
X134764200Y-66327699D01*
X134753757Y-66275201D01*
X134725331Y-66232657D01*
X134725200Y-66230661D01*
X134726863Y-66229550D01*
X134728105Y-66229883D01*
X134732722Y-66232968D01*
X134733183Y-66232278D01*
X134734977Y-66231393D01*
X134735957Y-66231726D01*
X134753506Y-66243456D01*
X134790016Y-66236197D01*
X134810882Y-66204979D01*
X134811810Y-66195562D01*
X134812975Y-66193936D01*
X134814965Y-66194132D01*
G37*
G36*
X141302837Y-66090200D02*
G01*
X141302837Y-66092200D01*
X141302216Y-66092863D01*
X141272110Y-66112978D01*
X141264847Y-66149486D01*
X141285650Y-66180620D01*
X141300934Y-66186952D01*
X141302152Y-66188539D01*
X141301386Y-66190387D01*
X141300169Y-66190800D01*
X140353895Y-66190800D01*
X140352163Y-66189800D01*
X140352163Y-66187800D01*
X140352784Y-66187137D01*
X140382890Y-66167022D01*
X140390153Y-66130514D01*
X140369350Y-66099380D01*
X140354066Y-66093048D01*
X140352848Y-66091461D01*
X140353614Y-66089613D01*
X140354831Y-66089200D01*
X141301105Y-66089200D01*
X141302837Y-66090200D01*
G37*
G36*
X134627837Y-66090200D02*
G01*
X134627837Y-66092200D01*
X134627216Y-66092863D01*
X134597110Y-66112978D01*
X134589847Y-66149486D01*
X134610650Y-66180620D01*
X134625934Y-66186952D01*
X134627152Y-66188539D01*
X134626386Y-66190387D01*
X134625169Y-66190800D01*
X133678895Y-66190800D01*
X133677163Y-66189800D01*
X133677163Y-66187800D01*
X133677784Y-66187137D01*
X133707890Y-66167022D01*
X133715153Y-66130514D01*
X133694350Y-66099380D01*
X133679066Y-66093048D01*
X133677848Y-66091461D01*
X133678614Y-66089613D01*
X133679831Y-66089200D01*
X134626105Y-66089200D01*
X134627837Y-66090200D01*
G37*
G36*
X140157911Y-65753789D02*
G01*
X140187429Y-65773512D01*
X140224156Y-65766206D01*
X140234201Y-65756160D01*
X140236133Y-65755642D01*
X140237547Y-65757056D01*
X140237278Y-65758685D01*
X140226243Y-65775201D01*
X140215800Y-65827699D01*
X140215800Y-65952301D01*
X140226243Y-66004799D01*
X140254669Y-66047343D01*
X140254800Y-66049339D01*
X140253137Y-66050450D01*
X140251895Y-66050117D01*
X140247278Y-66047032D01*
X140246817Y-66047722D01*
X140245023Y-66048607D01*
X140244043Y-66048274D01*
X140226488Y-66036542D01*
X140189979Y-66043804D01*
X140169116Y-66075025D01*
X140168190Y-66084428D01*
X140167025Y-66086054D01*
X140165035Y-66085858D01*
X140164200Y-66084232D01*
X140164200Y-65790199D01*
X140158515Y-65761619D01*
X140155137Y-65756563D01*
X140155006Y-65754567D01*
X140156669Y-65753456D01*
X140157911Y-65753789D01*
G37*
G36*
X134744078Y-65753789D02*
G01*
X134773594Y-65773512D01*
X134810321Y-65766206D01*
X134820369Y-65756159D01*
X134822301Y-65755641D01*
X134823715Y-65757055D01*
X134823446Y-65758684D01*
X134821485Y-65761619D01*
X134815800Y-65790199D01*
X134815800Y-66084244D01*
X134814800Y-66085976D01*
X134812800Y-66085976D01*
X134811952Y-66085009D01*
X134797390Y-66049855D01*
X134763001Y-66035610D01*
X134734824Y-66047281D01*
X134732841Y-66047020D01*
X134732802Y-66046979D01*
X134728476Y-66049870D01*
X134728127Y-66050056D01*
X134727843Y-66050173D01*
X134725860Y-66049908D01*
X134725099Y-66048059D01*
X134725418Y-66047213D01*
X134753757Y-66004799D01*
X134764200Y-65952301D01*
X134764200Y-65827699D01*
X134753757Y-65775201D01*
X134741304Y-65756563D01*
X134741173Y-65754567D01*
X134742836Y-65753456D01*
X134744078Y-65753789D01*
G37*
G36*
X135150450Y-65626863D02*
G01*
X135150117Y-65628105D01*
X135147032Y-65632722D01*
X135147722Y-65633183D01*
X135148607Y-65634977D01*
X135148274Y-65635957D01*
X135136542Y-65653512D01*
X135143804Y-65690021D01*
X135175025Y-65710884D01*
X135184428Y-65711810D01*
X135186054Y-65712975D01*
X135185858Y-65714965D01*
X135184232Y-65715800D01*
X134890199Y-65715800D01*
X134861619Y-65721485D01*
X134856563Y-65724863D01*
X134854567Y-65724994D01*
X134853456Y-65723331D01*
X134853789Y-65722089D01*
X134873512Y-65692571D01*
X134866206Y-65655844D01*
X134856160Y-65645799D01*
X134855642Y-65643867D01*
X134857056Y-65642453D01*
X134858685Y-65642722D01*
X134875201Y-65653757D01*
X134927699Y-65664200D01*
X135052301Y-65664200D01*
X135104799Y-65653757D01*
X135147343Y-65625331D01*
X135149339Y-65625200D01*
X135150450Y-65626863D01*
G37*
G36*
X139832787Y-65625418D02*
G01*
X139875201Y-65653757D01*
X139927699Y-65664200D01*
X140052301Y-65664200D01*
X140104799Y-65653757D01*
X140123437Y-65641304D01*
X140125433Y-65641173D01*
X140126544Y-65642836D01*
X140126211Y-65644078D01*
X140106488Y-65673594D01*
X140113794Y-65710321D01*
X140123841Y-65720369D01*
X140124359Y-65722301D01*
X140122945Y-65723715D01*
X140121316Y-65723446D01*
X140118381Y-65721485D01*
X140089801Y-65715800D01*
X139795756Y-65715800D01*
X139794024Y-65714800D01*
X139794024Y-65712800D01*
X139794991Y-65711952D01*
X139830145Y-65697390D01*
X139844390Y-65663001D01*
X139832719Y-65634824D01*
X139832980Y-65632841D01*
X139833021Y-65632802D01*
X139830130Y-65628476D01*
X139829944Y-65628127D01*
X139829827Y-65627843D01*
X139830092Y-65625860D01*
X139831941Y-65625099D01*
X139832787Y-65625418D01*
G37*
G36*
X139332788Y-65625419D02*
G01*
X139375201Y-65653757D01*
X139427699Y-65664200D01*
X139552301Y-65664200D01*
X139604799Y-65653757D01*
X139647343Y-65625331D01*
X139649339Y-65625200D01*
X139650450Y-65626863D01*
X139650117Y-65628105D01*
X139647032Y-65632722D01*
X139647722Y-65633183D01*
X139648607Y-65634977D01*
X139648274Y-65635957D01*
X139636544Y-65653506D01*
X139643803Y-65690016D01*
X139675021Y-65710882D01*
X139684439Y-65711810D01*
X139686065Y-65712975D01*
X139685869Y-65714965D01*
X139684243Y-65715800D01*
X138795757Y-65715800D01*
X138794025Y-65714800D01*
X138794025Y-65712800D01*
X138794992Y-65711952D01*
X138830146Y-65697390D01*
X138844391Y-65663001D01*
X138832719Y-65634824D01*
X138832980Y-65632842D01*
X138833022Y-65632803D01*
X138830133Y-65628479D01*
X138829949Y-65628136D01*
X138829830Y-65627850D01*
X138830088Y-65625867D01*
X138831935Y-65625099D01*
X138832788Y-65625419D01*
X138875201Y-65653757D01*
X138927699Y-65664200D01*
X139052301Y-65664200D01*
X139104799Y-65653757D01*
X139147343Y-65625331D01*
X139149339Y-65625200D01*
X139150450Y-65626863D01*
X139150117Y-65628105D01*
X139147032Y-65632722D01*
X139147722Y-65633183D01*
X139148607Y-65634977D01*
X139148274Y-65635957D01*
X139136544Y-65653506D01*
X139143803Y-65690016D01*
X139175021Y-65710882D01*
X139184337Y-65711800D01*
X139295359Y-65711800D01*
X139330146Y-65697390D01*
X139344391Y-65663001D01*
X139332719Y-65634824D01*
X139332980Y-65632842D01*
X139333022Y-65632803D01*
X139330133Y-65628479D01*
X139329949Y-65628136D01*
X139329830Y-65627850D01*
X139330088Y-65625867D01*
X139331935Y-65625099D01*
X139332788Y-65625419D01*
G37*
G36*
X138332788Y-65625419D02*
G01*
X138375201Y-65653757D01*
X138427699Y-65664200D01*
X138552301Y-65664200D01*
X138604799Y-65653757D01*
X138647343Y-65625331D01*
X138649339Y-65625200D01*
X138650450Y-65626863D01*
X138650117Y-65628105D01*
X138647032Y-65632722D01*
X138647722Y-65633183D01*
X138648607Y-65634977D01*
X138648274Y-65635957D01*
X138636544Y-65653506D01*
X138643803Y-65690016D01*
X138675021Y-65710882D01*
X138684439Y-65711810D01*
X138686065Y-65712975D01*
X138685869Y-65714965D01*
X138684243Y-65715800D01*
X137295759Y-65715800D01*
X137294027Y-65714800D01*
X137294027Y-65712800D01*
X137294994Y-65711952D01*
X137330146Y-65697391D01*
X137344391Y-65663002D01*
X137332719Y-65634824D01*
X137332980Y-65632841D01*
X137333021Y-65632802D01*
X137330132Y-65628478D01*
X137329947Y-65628132D01*
X137329829Y-65627847D01*
X137330062Y-65627750D01*
X137329744Y-65626563D01*
X137331158Y-65625149D01*
X137332787Y-65625418D01*
X137375201Y-65653757D01*
X137427699Y-65664200D01*
X137552301Y-65664200D01*
X137604799Y-65653757D01*
X137647343Y-65625331D01*
X137649339Y-65625200D01*
X137650450Y-65626863D01*
X137650117Y-65628105D01*
X137647032Y-65632722D01*
X137647722Y-65633183D01*
X137648607Y-65634977D01*
X137648274Y-65635957D01*
X137636544Y-65653506D01*
X137643803Y-65690016D01*
X137675021Y-65710882D01*
X137684337Y-65711800D01*
X137795359Y-65711800D01*
X137830146Y-65697390D01*
X137844391Y-65663001D01*
X137832719Y-65634824D01*
X137832980Y-65632842D01*
X137833022Y-65632803D01*
X137830133Y-65628479D01*
X137829949Y-65628136D01*
X137829830Y-65627850D01*
X137830088Y-65625867D01*
X137831935Y-65625099D01*
X137832788Y-65625419D01*
X137875201Y-65653757D01*
X137927699Y-65664200D01*
X138052301Y-65664200D01*
X138104799Y-65653757D01*
X138147343Y-65625331D01*
X138149339Y-65625200D01*
X138150450Y-65626863D01*
X138150117Y-65628105D01*
X138147032Y-65632722D01*
X138147722Y-65633183D01*
X138148607Y-65634977D01*
X138148274Y-65635957D01*
X138136544Y-65653506D01*
X138143803Y-65690016D01*
X138175021Y-65710882D01*
X138184337Y-65711800D01*
X138295359Y-65711800D01*
X138330146Y-65697390D01*
X138344391Y-65663001D01*
X138332719Y-65634824D01*
X138332980Y-65632842D01*
X138333022Y-65632803D01*
X138330133Y-65628479D01*
X138329949Y-65628136D01*
X138329830Y-65627850D01*
X138330088Y-65625867D01*
X138331935Y-65625099D01*
X138332788Y-65625419D01*
G37*
G36*
X136332787Y-65625418D02*
G01*
X136375201Y-65653757D01*
X136427699Y-65664200D01*
X136552301Y-65664200D01*
X136604799Y-65653757D01*
X136647343Y-65625331D01*
X136649339Y-65625200D01*
X136650450Y-65626863D01*
X136650117Y-65628105D01*
X136647032Y-65632722D01*
X136647722Y-65633183D01*
X136648607Y-65634977D01*
X136648274Y-65635957D01*
X136636541Y-65653523D01*
X136643809Y-65690029D01*
X136675037Y-65710886D01*
X136684429Y-65711810D01*
X136686055Y-65712974D01*
X136685859Y-65714965D01*
X136684233Y-65715800D01*
X136295759Y-65715800D01*
X136294027Y-65714800D01*
X136294027Y-65712800D01*
X136294994Y-65711952D01*
X136330146Y-65697391D01*
X136344391Y-65663002D01*
X136332719Y-65634824D01*
X136332980Y-65632841D01*
X136333021Y-65632802D01*
X136330132Y-65628478D01*
X136329947Y-65628132D01*
X136329829Y-65627847D01*
X136330062Y-65627750D01*
X136329744Y-65626563D01*
X136331158Y-65625149D01*
X136332787Y-65625418D01*
G37*
G36*
X135832789Y-65625419D02*
G01*
X135875201Y-65653757D01*
X135927699Y-65664200D01*
X136052301Y-65664200D01*
X136104799Y-65653757D01*
X136147343Y-65625331D01*
X136149339Y-65625200D01*
X136150450Y-65626863D01*
X136150117Y-65628105D01*
X136147032Y-65632722D01*
X136147722Y-65633183D01*
X136148607Y-65634977D01*
X136148274Y-65635957D01*
X136136542Y-65653512D01*
X136143804Y-65690021D01*
X136175025Y-65710884D01*
X136184428Y-65711810D01*
X136186054Y-65712975D01*
X136185858Y-65714965D01*
X136184232Y-65715800D01*
X135795760Y-65715800D01*
X135794028Y-65714800D01*
X135794028Y-65712800D01*
X135794995Y-65711952D01*
X135830147Y-65697391D01*
X135844392Y-65663002D01*
X135832720Y-65634824D01*
X135832981Y-65632841D01*
X135833022Y-65632803D01*
X135830135Y-65628482D01*
X135829951Y-65628138D01*
X135829831Y-65627849D01*
X135830090Y-65625866D01*
X135831937Y-65625099D01*
X135832789Y-65625419D01*
G37*
G36*
X135332789Y-65625419D02*
G01*
X135375201Y-65653757D01*
X135427699Y-65664200D01*
X135552301Y-65664200D01*
X135604799Y-65653757D01*
X135647343Y-65625331D01*
X135649339Y-65625200D01*
X135650450Y-65626863D01*
X135650117Y-65628105D01*
X135647032Y-65632722D01*
X135647722Y-65633183D01*
X135648607Y-65634977D01*
X135648274Y-65635957D01*
X135636542Y-65653512D01*
X135643804Y-65690021D01*
X135675025Y-65710884D01*
X135684428Y-65711810D01*
X135686054Y-65712975D01*
X135685858Y-65714965D01*
X135684232Y-65715800D01*
X135295760Y-65715800D01*
X135294028Y-65714800D01*
X135294028Y-65712800D01*
X135294995Y-65711952D01*
X135330147Y-65697391D01*
X135344392Y-65663002D01*
X135332720Y-65634824D01*
X135332981Y-65632841D01*
X135333022Y-65632803D01*
X135330135Y-65628482D01*
X135329951Y-65628138D01*
X135329831Y-65627849D01*
X135330090Y-65625866D01*
X135331937Y-65625099D01*
X135332789Y-65625419D01*
G37*
G36*
X136832787Y-65625418D02*
G01*
X136875201Y-65653757D01*
X136927699Y-65664200D01*
X137052301Y-65664200D01*
X137104799Y-65653757D01*
X137147343Y-65625331D01*
X137149339Y-65625200D01*
X137150450Y-65626863D01*
X137150117Y-65628105D01*
X137147032Y-65632722D01*
X137147722Y-65633183D01*
X137148607Y-65634977D01*
X137148274Y-65635957D01*
X137136541Y-65653523D01*
X137143809Y-65690029D01*
X137175037Y-65710886D01*
X137184429Y-65711810D01*
X137186055Y-65712974D01*
X137185859Y-65714965D01*
X137184233Y-65715800D01*
X136795759Y-65715800D01*
X136794027Y-65714800D01*
X136794027Y-65712800D01*
X136794994Y-65711952D01*
X136830146Y-65697391D01*
X136844391Y-65663002D01*
X136832719Y-65634824D01*
X136832980Y-65632841D01*
X136833021Y-65632802D01*
X136830132Y-65628478D01*
X136829947Y-65628132D01*
X136829829Y-65627847D01*
X136830062Y-65627750D01*
X136829744Y-65626563D01*
X136831158Y-65625149D01*
X136832787Y-65625418D01*
G37*
G36*
X137692863Y-64577784D02*
G01*
X137712978Y-64607890D01*
X137749486Y-64615153D01*
X137780620Y-64594350D01*
X137786952Y-64579066D01*
X137788539Y-64577848D01*
X137790387Y-64578614D01*
X137790800Y-64579831D01*
X137790800Y-65526105D01*
X137789800Y-65527837D01*
X137787800Y-65527837D01*
X137787137Y-65527216D01*
X137767022Y-65497110D01*
X137730514Y-65489847D01*
X137699380Y-65510650D01*
X137693048Y-65525934D01*
X137691461Y-65527152D01*
X137689613Y-65526386D01*
X137689200Y-65525169D01*
X137689200Y-64578895D01*
X137690200Y-64577163D01*
X137692200Y-64577163D01*
X137692863Y-64577784D01*
G37*
G36*
X138192863Y-64577784D02*
G01*
X138212978Y-64607890D01*
X138249486Y-64615153D01*
X138280620Y-64594350D01*
X138286952Y-64579066D01*
X138288539Y-64577848D01*
X138290387Y-64578614D01*
X138290800Y-64579831D01*
X138290800Y-65526105D01*
X138289800Y-65527837D01*
X138287800Y-65527837D01*
X138287137Y-65527216D01*
X138267022Y-65497110D01*
X138230514Y-65489847D01*
X138199380Y-65510650D01*
X138193048Y-65525934D01*
X138191461Y-65527152D01*
X138189613Y-65526386D01*
X138189200Y-65525169D01*
X138189200Y-64578895D01*
X138190200Y-64577163D01*
X138192200Y-64577163D01*
X138192863Y-64577784D01*
G37*
G36*
X137192863Y-64577784D02*
G01*
X137212978Y-64607890D01*
X137249486Y-64615153D01*
X137280620Y-64594350D01*
X137286952Y-64579066D01*
X137288539Y-64577848D01*
X137290387Y-64578614D01*
X137290800Y-64579831D01*
X137290800Y-65526105D01*
X137289800Y-65527837D01*
X137287800Y-65527837D01*
X137287137Y-65527216D01*
X137267022Y-65497110D01*
X137230514Y-65489847D01*
X137199380Y-65510650D01*
X137193048Y-65525934D01*
X137191461Y-65527152D01*
X137189613Y-65526386D01*
X137189200Y-65525169D01*
X137189200Y-64578895D01*
X137190200Y-64577163D01*
X137192200Y-64577163D01*
X137192863Y-64577784D01*
G37*
G36*
X138692863Y-64577784D02*
G01*
X138712978Y-64607890D01*
X138749486Y-64615153D01*
X138780620Y-64594350D01*
X138786952Y-64579066D01*
X138788539Y-64577848D01*
X138790387Y-64578614D01*
X138790800Y-64579831D01*
X138790800Y-65526105D01*
X138789800Y-65527837D01*
X138787800Y-65527837D01*
X138787137Y-65527216D01*
X138767022Y-65497110D01*
X138730514Y-65489847D01*
X138699380Y-65510650D01*
X138693048Y-65525934D01*
X138691461Y-65527152D01*
X138689613Y-65526386D01*
X138689200Y-65525169D01*
X138689200Y-64578895D01*
X138690200Y-64577163D01*
X138692200Y-64577163D01*
X138692863Y-64577784D01*
G37*
G36*
X135692863Y-64577784D02*
G01*
X135712978Y-64607890D01*
X135749486Y-64615153D01*
X135780620Y-64594350D01*
X135786952Y-64579066D01*
X135788539Y-64577848D01*
X135790387Y-64578614D01*
X135790800Y-64579831D01*
X135790800Y-65526105D01*
X135789800Y-65527837D01*
X135787800Y-65527837D01*
X135787137Y-65527216D01*
X135767022Y-65497110D01*
X135730514Y-65489847D01*
X135699380Y-65510650D01*
X135693048Y-65525934D01*
X135691461Y-65527152D01*
X135689613Y-65526386D01*
X135689200Y-65525169D01*
X135689200Y-64578895D01*
X135690200Y-64577163D01*
X135692200Y-64577163D01*
X135692863Y-64577784D01*
G37*
G36*
X135192863Y-64577784D02*
G01*
X135212978Y-64607890D01*
X135249486Y-64615153D01*
X135280620Y-64594350D01*
X135286952Y-64579066D01*
X135288539Y-64577848D01*
X135290387Y-64578614D01*
X135290800Y-64579831D01*
X135290800Y-65526105D01*
X135289800Y-65527837D01*
X135287800Y-65527837D01*
X135287137Y-65527216D01*
X135267022Y-65497110D01*
X135230514Y-65489847D01*
X135199380Y-65510650D01*
X135193048Y-65525934D01*
X135191461Y-65527152D01*
X135189613Y-65526386D01*
X135189200Y-65525169D01*
X135189200Y-64578895D01*
X135190200Y-64577163D01*
X135192200Y-64577163D01*
X135192863Y-64577784D01*
G37*
G36*
X136692863Y-64577784D02*
G01*
X136712978Y-64607890D01*
X136749486Y-64615153D01*
X136780620Y-64594350D01*
X136786952Y-64579066D01*
X136788539Y-64577848D01*
X136790387Y-64578614D01*
X136790800Y-64579831D01*
X136790800Y-65526105D01*
X136789800Y-65527837D01*
X136787800Y-65527837D01*
X136787137Y-65527216D01*
X136767022Y-65497110D01*
X136730514Y-65489847D01*
X136699380Y-65510650D01*
X136693048Y-65525934D01*
X136691461Y-65527152D01*
X136689613Y-65526386D01*
X136689200Y-65525169D01*
X136689200Y-64578895D01*
X136690200Y-64577163D01*
X136692200Y-64577163D01*
X136692863Y-64577784D01*
G37*
G36*
X139192863Y-64577784D02*
G01*
X139212978Y-64607890D01*
X139249486Y-64615153D01*
X139280620Y-64594350D01*
X139286952Y-64579066D01*
X139288539Y-64577848D01*
X139290387Y-64578614D01*
X139290800Y-64579831D01*
X139290800Y-65526105D01*
X139289800Y-65527837D01*
X139287800Y-65527837D01*
X139287137Y-65527216D01*
X139267022Y-65497110D01*
X139230514Y-65489847D01*
X139199380Y-65510650D01*
X139193048Y-65525934D01*
X139191461Y-65527152D01*
X139189613Y-65526386D01*
X139189200Y-65525169D01*
X139189200Y-64578895D01*
X139190200Y-64577163D01*
X139192200Y-64577163D01*
X139192863Y-64577784D01*
G37*
G36*
X136192863Y-64577784D02*
G01*
X136212978Y-64607890D01*
X136249486Y-64615153D01*
X136280620Y-64594350D01*
X136286952Y-64579066D01*
X136288539Y-64577848D01*
X136290387Y-64578614D01*
X136290800Y-64579831D01*
X136290800Y-65526105D01*
X136289800Y-65527837D01*
X136287800Y-65527837D01*
X136287137Y-65527216D01*
X136267022Y-65497110D01*
X136230514Y-65489847D01*
X136199380Y-65510650D01*
X136193048Y-65525934D01*
X136191461Y-65527152D01*
X136189613Y-65526386D01*
X136189200Y-65525169D01*
X136189200Y-64578895D01*
X136190200Y-64577163D01*
X136192200Y-64577163D01*
X136192863Y-64577784D01*
G37*
G36*
X139692863Y-64577784D02*
G01*
X139712978Y-64607890D01*
X139749486Y-64615153D01*
X139780620Y-64594350D01*
X139786952Y-64579066D01*
X139788539Y-64577848D01*
X139790387Y-64578614D01*
X139790800Y-64579831D01*
X139790800Y-65526105D01*
X139789800Y-65527837D01*
X139787800Y-65527837D01*
X139787137Y-65527216D01*
X139767022Y-65497110D01*
X139730514Y-65489847D01*
X139699380Y-65510650D01*
X139693048Y-65525934D01*
X139691461Y-65527152D01*
X139689613Y-65526386D01*
X139689200Y-65525169D01*
X139689200Y-64578895D01*
X139690200Y-64577163D01*
X139692200Y-64577163D01*
X139692863Y-64577784D01*
G37*
G36*
X134087531Y-47357839D02*
G01*
X134118011Y-47378206D01*
X134154738Y-47370900D01*
X134167071Y-47358567D01*
X134169003Y-47358049D01*
X134170417Y-47359463D01*
X134170447Y-47360371D01*
X134167000Y-47377699D01*
X134167000Y-48827301D01*
X134170542Y-48845108D01*
X134169899Y-48847002D01*
X134167937Y-48847392D01*
X134167469Y-48847161D01*
X134136989Y-48826794D01*
X134100262Y-48834100D01*
X134087929Y-48846433D01*
X134085997Y-48846951D01*
X134084583Y-48845537D01*
X134084553Y-48844629D01*
X134088000Y-48827301D01*
X134088000Y-47377699D01*
X134084458Y-47359892D01*
X134085101Y-47357998D01*
X134087063Y-47357608D01*
X134087531Y-47357839D01*
G37*
G36*
X128412531Y-47357839D02*
G01*
X128443011Y-47378206D01*
X128479738Y-47370900D01*
X128492071Y-47358567D01*
X128494003Y-47358049D01*
X128495417Y-47359463D01*
X128495447Y-47360371D01*
X128492000Y-47377699D01*
X128492000Y-48827301D01*
X128495542Y-48845108D01*
X128494899Y-48847002D01*
X128492937Y-48847392D01*
X128492469Y-48847161D01*
X128461989Y-48826794D01*
X128425262Y-48834100D01*
X128412929Y-48846433D01*
X128410997Y-48846951D01*
X128409583Y-48845537D01*
X128409553Y-48844629D01*
X128413000Y-48827301D01*
X128413000Y-47377699D01*
X128409458Y-47359892D01*
X128410101Y-47357998D01*
X128412063Y-47357608D01*
X128412531Y-47357839D01*
G37*
G36*
X129841319Y-47381001D02*
G01*
X129842000Y-47382504D01*
X129842000Y-48822491D01*
X129841000Y-48824223D01*
X129839000Y-48824223D01*
X129838038Y-48822881D01*
X129837939Y-48822385D01*
X129817023Y-48791077D01*
X129780515Y-48783814D01*
X129749380Y-48804616D01*
X129742100Y-48822189D01*
X129741961Y-48822887D01*
X129740642Y-48824390D01*
X129738681Y-48823999D01*
X129738000Y-48822496D01*
X129738000Y-47382509D01*
X129739000Y-47380777D01*
X129741000Y-47380777D01*
X129741962Y-47382119D01*
X129742061Y-47382615D01*
X129762977Y-47413923D01*
X129799485Y-47421186D01*
X129830620Y-47400384D01*
X129837900Y-47382811D01*
X129838039Y-47382113D01*
X129839358Y-47380610D01*
X129841319Y-47381001D01*
G37*
G36*
X130341319Y-47381001D02*
G01*
X130342000Y-47382504D01*
X130342000Y-48822491D01*
X130341000Y-48824223D01*
X130339000Y-48824223D01*
X130338038Y-48822881D01*
X130337939Y-48822385D01*
X130317023Y-48791077D01*
X130280515Y-48783814D01*
X130249380Y-48804616D01*
X130242100Y-48822189D01*
X130241961Y-48822887D01*
X130240642Y-48824390D01*
X130238681Y-48823999D01*
X130238000Y-48822496D01*
X130238000Y-47382509D01*
X130239000Y-47380777D01*
X130241000Y-47380777D01*
X130241962Y-47382119D01*
X130242061Y-47382615D01*
X130262977Y-47413923D01*
X130299485Y-47421186D01*
X130330620Y-47400384D01*
X130337900Y-47382811D01*
X130338039Y-47382113D01*
X130339358Y-47380610D01*
X130341319Y-47381001D01*
G37*
G36*
X130841319Y-47381001D02*
G01*
X130842000Y-47382504D01*
X130842000Y-48822491D01*
X130841000Y-48824223D01*
X130839000Y-48824223D01*
X130838038Y-48822881D01*
X130837939Y-48822385D01*
X130817023Y-48791077D01*
X130780515Y-48783814D01*
X130749380Y-48804616D01*
X130742100Y-48822189D01*
X130741961Y-48822887D01*
X130740642Y-48824390D01*
X130738681Y-48823999D01*
X130738000Y-48822496D01*
X130738000Y-47382509D01*
X130739000Y-47380777D01*
X130741000Y-47380777D01*
X130741962Y-47382119D01*
X130742061Y-47382615D01*
X130762977Y-47413923D01*
X130799485Y-47421186D01*
X130830620Y-47400384D01*
X130837900Y-47382811D01*
X130838039Y-47382113D01*
X130839358Y-47380610D01*
X130841319Y-47381001D01*
G37*
G36*
X132841319Y-47381001D02*
G01*
X132842000Y-47382504D01*
X132842000Y-48822491D01*
X132841000Y-48824223D01*
X132839000Y-48824223D01*
X132838038Y-48822881D01*
X132837939Y-48822385D01*
X132817023Y-48791077D01*
X132780515Y-48783814D01*
X132749380Y-48804616D01*
X132742100Y-48822189D01*
X132741961Y-48822887D01*
X132740642Y-48824390D01*
X132738681Y-48823999D01*
X132738000Y-48822496D01*
X132738000Y-47382509D01*
X132739000Y-47380777D01*
X132741000Y-47380777D01*
X132741962Y-47382119D01*
X132742061Y-47382615D01*
X132762977Y-47413923D01*
X132799485Y-47421186D01*
X132830620Y-47400384D01*
X132837900Y-47382811D01*
X132838039Y-47382113D01*
X132839358Y-47380610D01*
X132841319Y-47381001D01*
G37*
G36*
X131341319Y-47381001D02*
G01*
X131342000Y-47382504D01*
X131342000Y-48822491D01*
X131341000Y-48824223D01*
X131339000Y-48824223D01*
X131338038Y-48822881D01*
X131337939Y-48822385D01*
X131317023Y-48791077D01*
X131280515Y-48783814D01*
X131249380Y-48804616D01*
X131242100Y-48822189D01*
X131241961Y-48822887D01*
X131240642Y-48824390D01*
X131238681Y-48823999D01*
X131238000Y-48822496D01*
X131238000Y-47382509D01*
X131239000Y-47380777D01*
X131241000Y-47380777D01*
X131241962Y-47382119D01*
X131242061Y-47382615D01*
X131262977Y-47413923D01*
X131299485Y-47421186D01*
X131330620Y-47400384D01*
X131337900Y-47382811D01*
X131338039Y-47382113D01*
X131339358Y-47380610D01*
X131341319Y-47381001D01*
G37*
G36*
X131841319Y-47381001D02*
G01*
X131842000Y-47382504D01*
X131842000Y-48822491D01*
X131841000Y-48824223D01*
X131839000Y-48824223D01*
X131838038Y-48822881D01*
X131837939Y-48822385D01*
X131817023Y-48791077D01*
X131780515Y-48783814D01*
X131749380Y-48804616D01*
X131742100Y-48822189D01*
X131741961Y-48822887D01*
X131740642Y-48824390D01*
X131738681Y-48823999D01*
X131738000Y-48822496D01*
X131738000Y-47382509D01*
X131739000Y-47380777D01*
X131741000Y-47380777D01*
X131741962Y-47382119D01*
X131742061Y-47382615D01*
X131762977Y-47413923D01*
X131799485Y-47421186D01*
X131830620Y-47400384D01*
X131837900Y-47382811D01*
X131838039Y-47382113D01*
X131839358Y-47380610D01*
X131841319Y-47381001D01*
G37*
G36*
X132341319Y-47381001D02*
G01*
X132342000Y-47382504D01*
X132342000Y-48822491D01*
X132341000Y-48824223D01*
X132339000Y-48824223D01*
X132338038Y-48822881D01*
X132337939Y-48822385D01*
X132317023Y-48791077D01*
X132280515Y-48783814D01*
X132249380Y-48804616D01*
X132242100Y-48822189D01*
X132241961Y-48822887D01*
X132240642Y-48824390D01*
X132238681Y-48823999D01*
X132238000Y-48822496D01*
X132238000Y-47382509D01*
X132239000Y-47380777D01*
X132241000Y-47380777D01*
X132241962Y-47382119D01*
X132242061Y-47382615D01*
X132262977Y-47413923D01*
X132299485Y-47421186D01*
X132330620Y-47400384D01*
X132337900Y-47382811D01*
X132338039Y-47382113D01*
X132339358Y-47380610D01*
X132341319Y-47381001D01*
G37*
M02*
